<svg width="18" height="22" viewBox="0 0 18 22" fill="none" xmlns="http://www.w3.org/2000/svg">
<path d="M5.81609 5.2381C5.81609 3.50235 7.11802 2.09524 8.72414 2.09524C10.3303 2.09524 11.6322 3.50235 11.6322 5.2381H5.81609ZM3.87739 5.2381H0.969349C0.433997 5.2381 0 5.70714 0 6.28571V20.9524C0 21.531 0.433997 22 0.969349 22H16.4789C17.0143 22 17.4483 21.531 17.4483 20.9524V6.28571C17.4483 5.70714 17.0143 5.2381 16.4789 5.2381H13.5709C13.5709 2.34518 11.4009 0 8.72414 0C6.04736 0 3.87739 2.34518 3.87739 5.2381ZM5.81609 9.42857C5.81609 11.1644 7.11802 12.5714 8.72414 12.5714C10.3303 12.5714 11.6322 11.1644 11.6322 9.42857H13.5709C13.5709 12.3215 11.4009 14.6667 8.72414 14.6667C6.04736 14.6667 3.87739 12.3215 3.87739 9.42857H5.81609Z" fill="#2473A6"/>
</svg>
