<svg width="341" height="82" viewBox="0 0 341 82" fill="none" xmlns="http://www.w3.org/2000/svg">
<path d="M329.352 7.06271L329.88 7.0436C332.373 7.01539 334.461 7.45114 335.945 8.59402C337.484 9.7789 338.581 11.8909 338.581 15.6933L338.581 61.8074C338.581 64.2579 337.611 65.8299 336.17 66.8458C334.677 67.8981 332.589 68.4101 330.321 68.4841C330.319 68.4842 330.317 68.4843 330.315 68.4843L36.5276 74.2729L36.5225 74.31L15.044 74.7432L15.0437 74.7432C14.0822 74.7629 13.172 74.7964 12.2898 74.8288C11.2517 74.8669 10.2523 74.9036 9.25352 74.9148C7.45151 74.9351 5.88698 74.8635 4.61896 74.5732C3.3575 74.2845 2.50078 73.805 1.97446 73.0948C1.44999 72.3871 1.13029 71.2834 1.29993 69.4827L1.30317 69.4484L1.30403 69.4138L2.42837 24.3238L2.42868 24.3113L2.42868 24.2988C2.42868 22.8448 3.2095 21.4894 4.60979 20.4403C6.01298 19.3891 7.98402 18.6974 10.1593 18.617C10.1596 18.617 10.1598 18.617 10.16 18.617L329.352 7.06271Z" fill="#F3EBE2" stroke="#2473A6" stroke-width="2"/>
<path d="M42.5232 51.1756C40.264 51.2362 38.5867 50.801 37.4914 49.8701C36.396 48.9391 35.8244 47.584 35.7767 45.8046C35.7287 44.0153 36.2255 42.5864 37.2672 41.5181C38.309 40.4498 39.9594 39.8853 42.2186 39.8247C45.3775 39.7399 47.5208 40.7678 48.6486 42.9083C47.7573 43.2423 46.7151 43.7354 45.5222 44.3877C45.2173 43.8357 44.7463 43.4332 44.1093 43.1802C43.4823 42.9269 42.8439 42.809 42.1941 42.8264C41.2344 42.8522 40.5265 43.1262 40.0704 43.6487C39.614 44.1611 39.3957 44.7872 39.4155 45.5269C39.437 46.3266 39.7045 46.9747 40.218 47.4711C40.7412 47.9572 41.5226 48.1863 42.5623 48.1584C43.392 48.1362 44.0481 47.9835 44.5307 47.7005C45.013 47.4074 45.3611 46.9579 45.5749 46.352C46.4064 46.7698 47.4693 47.2365 48.7636 47.7519C48.2962 48.9749 47.4842 49.842 46.3275 50.3532C45.1708 50.8644 43.9027 51.1386 42.5232 51.1756ZM60.0283 50.5558C59.823 49.9911 59.5489 49.2832 59.206 48.4321L54.4227 48.5604L53.7305 50.7248L49.9669 50.8258L53.8732 39.827L59.3912 39.6789L63.9119 50.4516L60.0283 50.5558ZM58.2885 46.1158C57.8805 45.0764 57.4625 44.0373 57.0344 42.9984L56.6484 42.0334C56.323 42.9524 55.845 44.3408 55.2146 46.1983L58.2885 46.1158ZM77.0577 42.8362C77.081 43.7059 76.8858 44.4464 76.4721 45.0577C76.0683 45.6687 75.3553 46.123 74.3329 46.4206C74.4571 46.5773 74.5454 46.7 74.5978 46.7886L77.1175 50.0972L73.039 50.2066C72.5771 49.3987 71.8513 48.2578 70.8614 46.7838L68.6572 46.843L68.7505 50.3217L65.2118 50.4167C65.2397 48.4752 65.231 46.6598 65.1857 44.9704C65.1403 43.281 65.0517 41.4677 64.9196 39.5306L68.4584 39.4356L68.4588 39.4506L71.5327 39.3681C73.5519 39.3139 74.9702 39.601 75.7873 40.2293C76.6045 40.8576 77.0279 41.7266 77.0577 42.8362ZM68.536 42.3296L68.5819 44.039L70.6062 43.9846C71.4559 43.9618 72.095 43.9197 72.5235 43.8582C72.9617 43.7864 73.2642 43.6882 73.4309 43.5637C73.5976 43.4392 73.6779 43.262 73.6717 43.0321C73.6658 42.8121 73.5813 42.6444 73.4181 42.5287C73.255 42.413 72.9528 42.3361 72.5116 42.2979C72.0704 42.2597 71.42 42.2522 70.5603 42.2753L68.536 42.3296ZM90.875 41.9852C89.3042 41.9773 87.7789 41.9883 86.2992 42.018L86.5092 49.8451L82.7606 49.9457L82.5505 42.1186C81.0613 42.1685 79.5427 42.2393 77.9946 42.3309L77.9101 39.182L90.7905 38.8363L90.875 41.9852ZM101.05 49.455C100.844 48.8903 100.57 48.1824 100.227 47.3312L95.4441 47.4596L94.7519 49.624L90.9882 49.725L94.8946 38.7262L100.413 38.5781L104.933 49.3507L101.05 49.455ZM99.3099 45.015C98.9019 43.9756 98.4838 42.9364 98.0558 41.8975L97.6698 40.9325C97.3443 41.8516 96.8664 43.2399 96.236 45.0975L99.3099 45.015ZM114.237 38.0421C116.116 37.9917 117.606 38.1817 118.708 38.6123C119.81 39.0329 120.587 39.6423 121.038 40.4405C121.5 41.2284 121.746 42.2071 121.777 43.3767C121.807 44.4863 121.583 45.4627 121.106 46.3058C120.628 47.1489 119.896 47.8138 118.908 48.3005C117.921 48.7771 116.697 49.035 115.238 49.0742C114.348 49.0981 113.443 49.1224 112.524 49.147C111.604 49.1717 110.674 49.1917 109.734 49.2069C109.762 47.2354 109.752 45.4 109.707 43.7006C109.661 41.9813 109.572 40.188 109.442 38.3208C110.629 38.1889 112.227 38.096 114.237 38.0421ZM115.578 46.079C116.507 46.0541 117.121 45.8125 117.419 45.3544C117.717 44.8962 117.855 44.2723 117.834 43.4826C117.813 42.7228 117.632 42.1125 117.289 41.6515C116.957 41.1903 116.341 40.9717 115.441 40.9958C114.472 41.0219 113.748 41.0713 113.269 41.1442L113.403 46.1374L115.578 46.079ZM127.084 46.0103C130.882 45.8884 133.634 45.7595 135.341 45.6237C135.282 46.0354 135.249 46.4615 135.24 46.9018C135.242 47.332 135.252 47.8769 135.269 48.5367L123.618 48.8493C123.646 46.9079 123.638 45.0924 123.592 43.403C123.547 41.7137 123.458 39.9004 123.326 37.9632L134.977 37.6506L135.05 40.3646L126.938 40.5823L126.977 42.0218C127.457 42.0189 128.167 42.0048 129.106 41.9796C130.696 41.937 132.339 41.8629 134.037 41.7573L134.106 44.3363C132.405 44.322 130.76 44.3361 129.171 44.3788C128.231 44.404 127.521 44.428 127.042 44.4509L127.084 46.0103ZM147.225 48.3659C144.966 48.4265 143.288 47.9913 142.193 47.0604C141.098 46.1294 140.526 44.7743 140.478 42.9949C140.43 41.2056 140.927 39.7767 141.969 38.7084C143.011 37.6401 144.661 37.0756 146.92 37.015C150.079 36.9302 152.222 37.9581 153.35 40.0986C152.459 40.4326 151.417 40.9258 150.224 41.578C149.919 41.026 149.448 40.6235 148.811 40.3705C148.184 40.1172 147.545 39.9993 146.896 40.0167C145.936 40.0425 145.228 40.3165 144.772 40.839C144.316 41.3514 144.097 41.9775 144.117 42.7172C144.139 43.5169 144.406 44.165 144.92 44.6614C145.443 45.1475 146.224 45.3766 147.264 45.3487C148.094 45.3265 148.75 45.1738 149.232 44.8908C149.715 44.5977 150.063 44.1482 150.276 43.5423C151.108 43.9601 152.171 44.4268 153.465 44.9422C152.998 46.1652 152.186 47.0323 151.029 47.5435C149.872 48.0547 148.604 48.3289 147.225 48.3659ZM161.491 47.983C159.202 48.0445 157.504 47.5949 156.398 46.6342C155.291 45.6635 154.714 44.2785 154.666 42.4792C154.618 40.6998 155.116 39.2959 156.158 38.2676C157.211 37.239 158.887 36.6938 161.186 36.6321C163.495 36.5702 165.198 37.0246 166.295 37.9956C167.401 38.9663 167.978 40.3413 168.026 42.1206C168.075 43.93 167.577 45.3438 166.534 46.3622C165.491 47.3805 163.81 47.9208 161.491 47.983ZM161.409 44.9241C162.518 44.8944 163.313 44.663 163.791 44.23C164.269 43.787 164.496 43.1157 164.472 42.216C164.449 41.3363 164.186 40.6881 163.685 40.2714C163.183 39.8547 162.378 39.6613 161.268 39.691C160.169 39.7205 159.38 39.9568 158.902 40.3998C158.423 40.8428 158.196 41.5041 158.22 42.3838C158.243 43.2735 158.506 43.9267 159.007 44.3434C159.509 44.7601 160.309 44.9537 161.409 44.9241ZM176.471 47.581C174.212 47.6417 172.535 47.2065 171.439 46.2756C170.344 45.3446 169.772 43.9895 169.725 42.2101C169.677 40.4207 170.173 38.9919 171.215 37.9236C172.257 36.8552 173.907 36.2908 176.166 36.2301C179.325 36.1454 181.469 37.1732 182.596 39.3138C181.705 39.6478 180.663 40.1409 179.47 40.7932C179.165 40.2411 178.694 39.8386 178.057 39.5856C177.43 39.3324 176.792 39.2144 176.142 39.2319C175.182 39.2576 174.474 39.5317 174.018 40.0541C173.562 40.5666 173.344 41.1926 173.363 41.9324C173.385 42.7321 173.652 43.3801 174.166 43.8766C174.689 44.3627 175.471 44.5918 176.51 44.5639C177.34 44.5416 177.996 44.389 178.479 44.1059C178.961 43.8129 179.309 43.3634 179.523 42.7574C180.354 43.1753 181.417 43.6419 182.711 44.1574C182.244 45.3804 181.432 46.2475 180.275 46.7587C179.119 47.2699 177.851 47.544 176.471 47.581ZM197.187 39.1323C195.616 39.1244 194.091 39.1353 192.611 39.165L192.822 46.9922L189.073 47.0928L188.863 39.2656C187.374 39.3156 185.855 39.3864 184.307 39.4779L184.222 36.3291L197.103 35.9834L197.187 39.1323ZM202.566 43.9847C206.364 43.8628 209.117 43.7339 210.824 43.5981C210.765 44.0098 210.731 44.4359 210.723 44.8762C210.725 45.3064 210.734 45.8513 210.752 46.5111L199.101 46.8237C199.129 44.8823 199.12 43.0668 199.075 41.3775C199.03 39.6881 198.941 37.8748 198.809 35.9376L210.46 35.625L210.533 38.339L202.421 38.5567L202.459 39.9962C202.939 39.9933 203.649 39.9792 204.589 39.954C206.178 39.9114 207.822 39.8373 209.52 39.7317L209.589 42.3107C207.888 42.2964 206.243 42.3105 204.653 42.3532C203.713 42.3784 203.004 42.4024 202.524 42.4253L202.566 43.9847ZM216.181 43.3343C219.08 43.2365 221.478 43.1221 223.375 42.9912C223.259 43.5045 223.192 43.9964 223.174 44.4671C223.157 44.9377 223.157 45.5079 223.175 46.1777L212.604 46.4614C212.632 44.5199 212.623 42.7045 212.578 41.0151C212.533 39.3257 212.444 37.5124 212.312 35.5753L215.971 35.4771L216.181 43.3343ZM228.62 43.2856C232.418 43.1636 235.171 43.0348 236.878 42.8989C236.819 43.3106 236.785 43.7367 236.777 44.1771C236.779 44.6072 236.788 45.1521 236.806 45.8119L225.155 46.1245C225.183 44.1831 225.174 42.3677 225.129 40.6783C225.084 38.9889 224.995 37.1756 224.863 35.2385L236.514 34.9258L236.587 37.6398L228.475 37.8575L228.513 39.297C228.993 39.2941 229.703 39.2801 230.643 39.2549C232.232 39.2122 233.876 39.1381 235.574 39.0325L235.643 41.6116C233.942 41.5972 232.297 41.6113 230.707 41.654C229.768 41.6792 229.058 41.7033 228.578 41.7261L228.62 43.2856ZM250.504 38.1817C250.527 39.0514 250.332 39.7919 249.918 40.4032C249.515 41.0142 248.802 41.4685 247.779 41.7661C247.903 41.9228 247.992 42.0455 248.044 42.1341L250.564 45.4427L246.485 45.5521C246.023 44.7442 245.298 43.6033 244.308 42.1293L242.103 42.1885L242.197 45.6672L238.658 45.7622C238.686 43.8207 238.677 42.0053 238.632 40.3159C238.587 38.6265 238.498 36.8133 238.366 34.8761L241.905 34.7811L241.905 34.7961L244.979 34.7136C246.998 34.6595 248.417 34.9465 249.234 35.5748C250.051 36.2031 250.474 37.0721 250.504 38.1817ZM241.982 37.6751L242.028 39.3845L244.053 39.3302C244.902 39.3074 245.541 39.2652 245.97 39.2037C246.408 39.1319 246.711 39.0338 246.877 38.9092C247.044 38.7847 247.124 38.6075 247.118 38.3776C247.112 38.1577 247.028 37.9899 246.864 37.8742C246.701 37.7585 246.399 37.6816 245.958 37.6434C245.517 37.6053 244.866 37.5977 244.007 37.6208L241.982 37.6751ZM260.895 37.2576C259.704 37.2295 258.823 37.2182 258.253 37.2235L258.391 42.3516C258.97 42.3261 259.849 42.2675 261.027 42.1758L261.107 45.1598L252.395 45.3935L252.315 42.4096C253.466 42.4387 254.342 42.4503 254.942 42.4442L254.805 37.316C254.205 37.3421 253.331 37.4006 252.183 37.4914L252.103 34.5075L260.815 34.2737L260.895 37.2576ZM257.304 33.7077L255.399 33.7588L255.697 31.425L258.471 31.3505L257.304 33.7077ZM272.27 44.8602C272.065 44.2955 271.791 43.5876 271.448 42.7365L266.665 42.8648L265.972 45.0292L262.209 45.1302L266.115 34.1314L271.633 33.9834L276.154 44.756L272.27 44.8602ZM270.53 40.4203C270.122 39.3808 269.704 38.3417 269.276 37.3028L268.89 36.3378C268.565 37.2569 268.087 38.6452 267.457 40.5028L270.53 40.4203Z" fill="#2473A6"/>
</svg>
