<svg width="229" height="59" viewBox="0 0 229 59" fill="none" xmlns="http://www.w3.org/2000/svg">
<path d="M221.151 1.22591L221.487 1.20852C223.093 1.1757 224.547 1.50271 225.583 2.01783C226.75 2.59762 227.111 3.24874 227.1 3.67917L226.045 48.4877C226.036 48.8463 225.766 49.3677 224.895 49.8727C224.052 50.3612 222.814 50.7208 221.346 50.7905C221.344 50.7906 221.341 50.7907 221.339 50.7909L24.3523 57.0228L24.3473 57.0531L9.94638 57.5168L9.946 57.5168C7.39318 57.6 5.07908 57.0794 3.45144 56.2385C1.77138 55.3706 1.08731 54.3258 1.11665 53.4513C1.11665 53.4512 1.11665 53.4512 1.11666 53.4511L2.43492 14.5928L2.43497 14.5928L2.43522 14.5825C2.44362 14.2258 2.71101 13.7084 3.57062 13.2049C4.40395 12.7168 5.63076 12.3547 7.08692 12.2782C7.0872 12.2782 7.08748 12.2781 7.08775 12.2781L221.151 1.22591Z" fill="#F3EBE2" stroke="#2473A6" stroke-width="2"/>
</svg>
