<svg width="22" height="22" viewBox="0 0 22 22" fill="none" xmlns="http://www.w3.org/2000/svg">
<path d="M14.6667 0C15.2453 0 15.7143 0.46904 15.7143 1.04762V2.09524H20.9524V8.38095H18.8372L21.7141 16.285C21.8987 16.7575 22 17.2717 22 17.8095C22 20.1238 20.1238 22 17.8095 22C15.857 22 14.2163 20.6645 13.751 18.8571H9.29657C8.83132 20.6645 7.19069 22 5.2381 22C3.20101 22 1.50342 20.5464 1.12592 18.62C0.45672 18.2701 0 17.5693 0 16.7619V6.28571C0 5.70714 0.46904 5.2381 1.04762 5.2381H8.38095C8.95955 5.2381 9.42857 5.70714 9.42857 6.28571V11.5238C9.42857 12.1024 9.89759 12.5714 10.4762 12.5714H12.5714C13.15 12.5714 13.619 12.1024 13.619 11.5238V2.09524H10.4762V0H14.6667ZM17.8095 15.7143C16.6523 15.7143 15.7143 16.6523 15.7143 17.8095C15.7143 18.9667 16.6523 19.9048 17.8095 19.9048C18.9667 19.9048 19.9048 18.9667 19.9048 17.8095C19.9048 17.5578 19.8603 17.3163 19.7789 17.0927L19.7618 17.0473C19.4569 16.267 18.6978 15.7143 17.8095 15.7143ZM5.2381 15.7143C4.08093 15.7143 3.14286 16.6523 3.14286 17.8095C3.14286 18.9667 4.08093 19.9048 5.2381 19.9048C6.39526 19.9048 7.33333 18.9667 7.33333 17.8095C7.33333 16.6523 6.39526 15.7143 5.2381 15.7143ZM7.33333 7.33333H2.09524V9.42857H7.33333V7.33333ZM18.8571 4.19048H15.7143V6.28571H18.8571V4.19048Z" fill="#2473A6"/>
</svg>
