<svg width="23" height="20" viewBox="0 0 23 20" fill="none" xmlns="http://www.w3.org/2000/svg">
<path d="M0.646973 0.937371C0.646973 0.417911 1.06576 0 1.58631 0H3.36714C4.2282 0 4.99141 0.499931 5.34758 1.24982H21.4337C22.4631 1.24982 23.2146 2.22625 22.9445 3.2183L21.3398 9.16669C21.0071 10.3931 19.8917 11.2484 18.6196 11.2484H7.32801L7.53937 12.3616C7.62547 12.8029 8.01295 13.1232 8.46305 13.1232H19.7468C20.2674 13.1232 20.6862 13.5411 20.6862 14.0605C20.6862 14.58 20.2674 14.9979 19.7468 14.9979H8.46305C7.10884 14.9979 5.94641 14.0371 5.69591 12.7131L3.67634 2.12861C3.64894 1.98019 3.51978 1.87474 3.36714 1.87474H1.58631C1.06576 1.87474 0.646973 1.45683 0.646973 0.937371ZM5.65677 18.1225C5.65677 16.6793 7.22234 15.7773 8.47479 16.4989C9.05605 16.8338 9.41413 17.4527 9.41413 18.1225C9.41413 19.5656 7.84856 20.4676 6.59611 19.746C6.01485 19.4111 5.65677 18.7922 5.65677 18.1225ZM18.8075 16.2477C20.2537 16.2477 21.1576 17.81 20.4345 19.0598C20.0989 19.6399 19.4787 19.9972 18.8075 19.9972C17.3613 19.9972 16.4574 18.4349 17.1805 17.1851C17.5161 16.605 18.1363 16.2477 18.8075 16.2477Z" fill="#F3EBE2"/>
</svg>
