<svg width="24" height="24" viewBox="0 0 24 24" fill="none" xmlns="http://www.w3.org/2000/svg">
<path d="M16 0C16.6312 0 17.1429 0.51168 17.1429 1.14286V2.28571H22.8571V9.14286H20.5497L23.6881 17.7655C23.8895 18.2809 24 18.8418 24 19.4286C24 21.9533 21.9533 24 19.4286 24C17.2985 24 15.5087 22.5431 15.0011 20.5714H10.1417C9.63417 22.5431 7.84439 24 5.71429 24C3.49201 24 1.64009 22.4143 1.22827 20.3127C0.49824 19.931 0 19.1665 0 18.2857V6.85714C0 6.22597 0.51168 5.71429 1.14286 5.71429H9.14286C9.77406 5.71429 10.2857 6.22597 10.2857 6.85714V12.5714C10.2857 13.2026 10.7974 13.7143 11.4286 13.7143H13.7143C14.3455 13.7143 14.8571 13.2026 14.8571 12.5714V2.28571H11.4286V0H16ZM19.4286 17.1429C18.1662 17.1429 17.1429 18.1662 17.1429 19.4286C17.1429 20.691 18.1662 21.7143 19.4286 21.7143C20.691 21.7143 21.7143 20.691 21.7143 19.4286C21.7143 19.1539 21.6658 18.8905 21.577 18.6466L21.5583 18.597C21.2257 17.7458 20.3976 17.1429 19.4286 17.1429ZM5.71429 17.1429C4.45192 17.1429 3.42857 18.1662 3.42857 19.4286C3.42857 20.691 4.45192 21.7143 5.71429 21.7143C6.97665 21.7143 8 20.691 8 19.4286C8 18.1662 6.97665 17.1429 5.71429 17.1429ZM8 8H2.28571V10.2857H8V8ZM20.5714 4.57143H17.1429V6.85714H20.5714V4.57143Z" fill="#C0C0C0"/>
</svg>
