<svg width="31" height="30" viewBox="0 0 31 30" fill="none" xmlns="http://www.w3.org/2000/svg">
<path d="M19.3159 29.9675C19.3205 29.9233 19.3229 29.8783 19.3229 29.8328V19.029H23.016C23.6082 19.029 24.1412 18.6391 24.2277 18.0533C24.3709 17.0843 24.3101 16.2032 24.2175 15.5766C24.1325 15.0014 23.6198 14.6228 23.0384 14.6228H19.3229C19.3229 11.2933 19.877 10.8089 23 10.7483C23.5992 10.7367 24.1372 10.341 24.2241 9.74799C24.3703 8.75119 24.3121 7.88027 24.2203 7.26759C24.1356 6.70164 23.6281 6.33272 23.0559 6.33773C17.5362 6.38587 14.3925 7.03849 14.3925 14.6228H11.5329C10.9771 14.6228 10.4837 14.9711 10.3997 15.5204C10.3091 16.1123 10.2544 16.9702 10.4055 18.0137C10.4929 18.6165 11.0351 19.029 11.6442 19.029H14.3925V30C10.1186 29.9719 7.0594 29.8032 5.06747 29.6414C2.87527 29.4633 1.18382 27.7718 1.00571 25.5797C0.828478 23.3983 0.643066 19.937 0.643066 15.002C0.643066 10.0671 0.828478 6.60576 1.00571 4.4244C1.18382 2.2322 2.87527 0.540753 5.06747 0.362642C7.24883 0.185405 10.7102 0 15.6451 0C20.58 0 24.0414 0.185412 26.2227 0.362642C28.4149 0.540753 30.1064 2.2322 30.2845 4.4244C30.4617 6.60576 30.6471 10.0671 30.6471 15.002C30.6471 19.937 30.4617 23.3983 30.2845 25.5797C30.1064 27.7719 28.4149 29.4633 26.2227 29.6414C24.6289 29.7709 22.3518 29.9048 19.3159 29.9675Z" fill="#F3EBE2"/>
</svg>
