<svg width="35" height="35" viewBox="0 0 46 46" fill="none" xmlns="http://www.w3.org/2000/svg">
<path fill-rule="evenodd" clip-rule="evenodd" d="M0.577148 44.532L3.69139 33.2449C1.77013 29.942 0.759795 26.1938 0.760951 22.3549C0.766731 10.3448 10.6112 0.573792 22.7098 0.573792C28.5811 0.576087 34.0905 2.84498 38.2348 6.96157C42.3778 11.0793 44.6598 16.5513 44.6574 22.3721C44.6528 34.3822 34.8061 44.1544 22.7098 44.1544H22.7005C19.0279 44.1532 15.4178 43.2386 12.2122 41.5022L0.577148 44.532Z" fill="white"/>
<path fill-rule="evenodd" clip-rule="evenodd" d="M0.577491 45.1058C0.4249 45.1058 0.276933 45.0461 0.167114 44.936C0.0226145 44.7902 -0.0340289 44.5779 0.0203027 44.3817L3.07097 33.323C1.17976 29.9879 0.182141 26.2007 0.184453 22.3561C0.189077 10.0281 10.2936 0 22.7101 0C28.7328 0.00229529 34.3914 2.33086 38.6443 6.55649C42.8972 10.7833 45.2381 16.3998 45.2358 22.3722C45.2312 34.699 35.1255 44.7282 22.7101 44.7282C19.0237 44.7271 15.3765 43.8239 12.1397 42.1151L0.724302 45.0863C0.67575 45.1001 0.627199 45.1058 0.577491 45.1058Z" fill="white"/>
<path fill-rule="evenodd" clip-rule="evenodd" d="M35.6129 9.56223C32.168 6.13996 27.5891 4.25438 22.7155 4.25323C12.6537 4.25323 4.47045 12.374 4.46582 22.3562C4.46467 25.7773 5.42876 29.1077 7.25523 31.9918L7.68988 32.6769L5.84608 39.3573L12.7508 37.5601L13.4178 37.9526C16.2176 39.6029 19.429 40.4752 22.7028 40.4763H22.7097C32.7645 40.4763 40.9478 32.3544 40.9513 22.3711C40.9524 17.5338 39.0577 12.9845 35.6129 9.56223Z" fill="#40C351"/>
<path fill-rule="evenodd" clip-rule="evenodd" d="M17.2235 13.2494C16.8131 12.3427 16.3808 12.3244 15.9889 12.3083C15.6687 12.2945 15.3034 12.2957 14.9381 12.2957C14.5728 12.2957 13.9786 12.4322 13.4758 12.9774C12.9729 13.5225 11.5557 14.8389 11.5557 17.5175C11.5557 20.1961 13.5209 22.7851 13.7948 23.1478C14.0688 23.5104 17.5888 29.1832 23.163 31.3661C27.795 33.1793 28.7383 32.819 29.7441 32.7283C30.7498 32.6377 32.9889 31.412 33.4455 30.1404C33.9022 28.8688 33.9022 27.7797 33.7657 27.5524C33.6282 27.3252 33.2629 27.1898 32.715 26.9167C32.167 26.6435 29.4701 25.3272 28.9672 25.1458C28.4644 24.9645 28.0991 24.8738 27.7326 25.419C27.3673 25.963 26.3165 27.1898 25.9963 27.5524C25.6761 27.9162 25.3559 27.9622 24.808 27.689C24.26 27.4159 22.4937 26.8421 20.3979 24.9875C18.7679 23.5449 17.6674 21.7626 17.3472 21.2175C17.027 20.6735 17.3125 20.3785 17.5876 20.1065C17.8339 19.8621 18.1356 19.4707 18.4107 19.1528C18.6847 18.8349 18.776 18.6077 18.9586 18.2451C19.1413 17.8813 19.05 17.5634 18.9124 17.2914C18.7771 17.0182 17.7113 14.3259 17.2235 13.2494Z" fill="white"/>
</svg>
