<svg width="200" height="88" viewBox="0 0 200 88" fill="none" xmlns="http://www.w3.org/2000/svg">
<g clip-path="url(#clip0_115_21622)">
<path d="M120.495 3.66414L129.53 20.642L115.632 14.1453L125.013 24.4144L106 27.9746L126.585 32.3959L106 69.525L134.215 39.7576L141.782 87.892L151.651 33.9639L181.447 50.7961L157.228 28.9105L199.062 25.242L156.394 22.2017C156.394 22.2017 167.093 0.103865 166.167 -0.000115094C165.241 -0.104095 145.64 14.4032 145.64 14.4032L139.175 0.307665L135.958 12.9683L120.495 3.66414Z" fill="#E52421"/>
</g>
<path d="M24.1022 40.4743C28.7422 40.4423 32.5822 40.3623 35.6222 40.2343C35.4142 41.0503 35.2862 41.8343 35.2382 42.5863C35.1902 43.3383 35.1662 44.2503 35.1662 45.3223H18.2462C18.3742 42.2183 18.4382 39.3143 18.4382 36.6103C18.4382 33.9063 18.3742 31.0023 18.2462 27.8983H24.1022V40.4743ZM47.3856 45.5623C43.7216 45.5623 41.0256 44.7703 39.2976 43.1863C37.5696 41.5863 36.7056 39.3463 36.7056 36.4663C36.7056 33.6183 37.5616 31.3943 39.2736 29.7943C41.0016 28.1943 43.7056 27.3943 47.3856 27.3943C51.0816 27.3943 53.7856 28.1943 55.4976 29.7943C57.2256 31.3943 58.0896 33.6183 58.0896 36.4663C58.0896 39.3623 57.2336 41.6023 55.5216 43.1863C53.8096 44.7703 51.0976 45.5623 47.3856 45.5623ZM47.3856 40.6663C49.1616 40.6663 50.4416 40.3303 51.2256 39.6583C52.0096 38.9703 52.4016 37.9063 52.4016 36.4663C52.4016 35.0583 52.0096 34.0103 51.2256 33.3223C50.4416 32.6343 49.1616 32.2903 47.3856 32.2903C45.6256 32.2903 44.3536 32.6343 43.5696 33.3223C42.7856 34.0103 42.3936 35.0583 42.3936 36.4663C42.3936 37.8903 42.7856 38.9463 43.5696 39.6343C44.3536 40.3223 45.6256 40.6663 47.3856 40.6663ZM87.9783 27.8983L89.8503 45.3223H83.6343L83.2503 32.8903L80.8503 45.3223H74.5623L72.1143 32.9863L71.7543 45.3223H65.5383L67.4103 27.8983H75.5703L77.6583 39.2503L79.4823 27.8983H87.9783ZM107.274 45.3223C106.97 44.4103 106.562 43.2663 106.05 41.8903H98.3944L97.1944 45.3223H91.1704L97.8904 27.8983H106.722L113.49 45.3223H107.274ZM104.682 38.1463C104.074 36.4663 103.45 34.7863 102.81 33.1063L102.234 31.5463C101.674 33.0023 100.85 35.2023 99.7624 38.1463H104.682ZM103.626 26.9623H100.578L101.154 23.2423H105.594L103.626 26.9623ZM115.137 43.2583C115.681 42.4423 116.129 41.6823 116.481 40.9783C116.849 40.2743 117.201 39.4583 117.537 38.5303C118.673 39.1863 119.993 39.6983 121.497 40.0663C123.001 40.4343 124.401 40.6183 125.697 40.6183C127.025 40.6183 127.961 40.5063 128.505 40.2823C129.049 40.0423 129.321 39.7863 129.321 39.5143C129.321 38.5383 127.833 38.0503 124.857 38.0503C121.593 38.0503 119.225 37.7143 117.753 37.0423C116.281 36.3543 115.545 35.2503 115.545 33.7303C115.545 31.5703 116.441 29.9783 118.233 28.9543C120.025 27.9303 122.353 27.4183 125.217 27.4183C126.881 27.4183 128.585 27.6343 130.329 28.0663C132.089 28.4823 133.673 29.0583 135.081 29.7943C134.617 30.8503 134.129 32.1383 133.617 33.6583C133.521 33.9783 133.441 34.2183 133.377 34.3783C132.561 33.7223 131.329 33.1783 129.681 32.7463C128.033 32.2983 126.577 32.0743 125.313 32.0743C123.793 32.0743 122.769 32.1783 122.241 32.3863C121.713 32.5783 121.449 32.8663 121.449 33.2503C121.449 33.6343 121.809 33.9463 122.529 34.1863C123.265 34.4103 124.321 34.5223 125.697 34.5223C129.089 34.5223 131.553 34.9143 133.089 35.6983C134.625 36.4663 135.393 37.6503 135.393 39.2503C135.393 41.4903 134.577 43.1063 132.945 44.0983C131.313 45.0743 128.841 45.5623 125.529 45.5623C123.753 45.5623 121.945 45.3703 120.105 44.9863C118.265 44.5863 116.609 44.0103 115.137 43.2583Z" fill="white"/>
<mask id="path-3-outside-1_115_21622" maskUnits="userSpaceOnUse" x="-1" y="51.5693" width="157" height="22" fill="black">
<rect fill="white" x="-1" y="51.5693" width="157" height="22"/>
<path d="M12.185 54.1693C15.369 54.1693 17.585 54.7373 18.833 55.8733C20.081 56.9933 20.705 58.5773 20.705 60.6253C20.705 62.0333 20.457 63.2333 19.961 64.2253C19.465 65.2013 18.593 65.9693 17.345 66.5293C16.097 67.0733 14.377 67.3453 12.185 67.3453H7.19302V71.5693H1.28902C1.41702 68.4653 1.48102 65.5613 1.48102 62.8573C1.48102 60.1533 1.41702 57.2493 1.28902 54.1453H7.19302V54.1693H12.185ZM10.505 62.7133C11.833 62.7133 12.825 62.6653 13.481 62.5693C14.153 62.4573 14.617 62.2653 14.873 61.9933C15.145 61.7213 15.281 61.3213 15.281 60.7933C15.281 60.2653 15.153 59.8733 14.897 59.6173C14.657 59.3453 14.201 59.1613 13.529 59.0653C12.873 58.9693 11.865 58.9213 10.505 58.9213H7.19302V62.7133H10.505ZM33.6627 71.8093C29.9987 71.8093 27.3027 71.0173 25.5747 69.4333C23.8467 67.8333 22.9827 65.5933 22.9827 62.7133C22.9827 59.8653 23.8387 57.6413 25.5507 56.0413C27.2787 54.4413 29.9827 53.6413 33.6627 53.6413C37.3587 53.6413 40.0627 54.4413 41.7747 56.0413C43.5027 57.6413 44.3667 59.8653 44.3667 62.7133C44.3667 65.6093 43.5107 67.8493 41.7987 69.4333C40.0867 71.0173 37.3747 71.8093 33.6627 71.8093ZM33.6627 66.9133C35.4387 66.9133 36.7187 66.5773 37.5027 65.9053C38.2867 65.2173 38.6787 64.1533 38.6787 62.7133C38.6787 61.3053 38.2867 60.2573 37.5027 59.5693C36.7187 58.8813 35.4387 58.5373 33.6627 58.5373C31.9027 58.5373 30.6307 58.8813 29.8467 59.5693C29.0627 60.2573 28.6707 61.3053 28.6707 62.7133C28.6707 64.1373 29.0627 65.1933 29.8467 65.8813C30.6307 66.5693 31.9027 66.9133 33.6627 66.9133ZM57.5412 54.1693C60.7252 54.1693 62.9412 54.7373 64.1892 55.8733C65.4372 56.9933 66.0612 58.5773 66.0612 60.6253C66.0612 62.0333 65.8132 63.2333 65.3172 64.2253C64.8212 65.2013 63.9492 65.9693 62.7012 66.5293C61.4532 67.0733 59.7332 67.3453 57.5412 67.3453H52.5492V71.5693H46.6452C46.7732 68.4653 46.8372 65.5613 46.8372 62.8573C46.8372 60.1533 46.7732 57.2493 46.6452 54.1453H52.5492V54.1693H57.5412ZM55.8612 62.7133C57.1892 62.7133 58.1812 62.6653 58.8372 62.5693C59.5092 62.4573 59.9732 62.2653 60.2292 61.9933C60.5012 61.7213 60.6372 61.3213 60.6372 60.7933C60.6372 60.2653 60.5092 59.8733 60.2532 59.6173C60.0132 59.3453 59.5572 59.1613 58.8852 59.0653C58.2292 58.9693 57.2212 58.9213 55.8612 58.9213H52.5492V62.7133H55.8612ZM82.5469 54.1213H88.4989V63.6733C88.4669 66.0253 87.6589 67.9693 86.0749 69.5053C84.5069 71.0413 81.8589 71.8093 78.1309 71.8093C74.3549 71.8093 71.7709 71.0813 70.3789 69.6253C68.9869 68.1533 68.3069 66.2253 68.3389 63.8413V54.1213H74.2909V63.4573C74.2909 64.1613 74.3389 64.7373 74.4349 65.1853C74.5469 65.6173 74.8829 66.0253 75.4429 66.4093C76.0189 66.7933 76.9389 66.9853 78.2029 66.9853C79.5789 66.9853 80.5869 66.7933 81.2269 66.4093C81.8669 66.0093 82.2429 65.5693 82.3549 65.0893C82.4829 64.6093 82.5469 63.9933 82.5469 63.2413V54.1213ZM96.6386 66.7213C101.279 66.6893 105.119 66.6093 108.159 66.4813C107.951 67.2973 107.823 68.0813 107.775 68.8333C107.727 69.5853 107.703 70.4973 107.703 71.5693H90.7826C90.9106 68.4653 90.9746 65.5613 90.9746 62.8573C90.9746 60.1533 90.9106 57.2493 90.7826 54.1453H96.6386V66.7213ZM125.581 71.5693C125.277 70.6573 124.869 69.5133 124.357 68.1373H116.701L115.501 71.5693H109.477L116.197 54.1453H125.029L131.797 71.5693H125.581ZM122.989 64.3933C122.381 62.7133 121.757 61.0333 121.117 59.3533L120.541 57.7933C119.981 59.2493 119.157 61.4493 118.069 64.3933H122.989ZM152.715 59.9533C152.715 61.3453 152.371 62.5213 151.683 63.4813C151.011 64.4413 149.851 65.1373 148.203 65.5693C148.395 65.8253 148.531 66.0253 148.611 66.1693L152.499 71.5693H145.971C145.267 70.2573 144.155 68.4013 142.635 66.0013H139.107V71.5693H133.443C133.571 68.4653 133.635 65.5613 133.635 62.8573C133.635 60.1533 133.571 57.2493 133.443 54.1453H139.107V54.1693H144.027C147.259 54.1693 149.515 54.6893 150.795 55.7293C152.075 56.7693 152.715 58.1773 152.715 59.9533ZM139.107 58.7773V61.5133H142.347C143.707 61.5133 144.731 61.4733 145.419 61.3933C146.123 61.2973 146.611 61.1533 146.883 60.9613C147.155 60.7693 147.291 60.4893 147.291 60.1213C147.291 59.7693 147.163 59.4973 146.907 59.3053C146.651 59.1133 146.171 58.9773 145.467 58.8973C144.763 58.8173 143.723 58.7773 142.347 58.7773H139.107Z"/>
</mask>
<path d="M18.833 55.8733L17.8486 56.9548L17.8563 56.9617L18.833 55.8733ZM19.961 64.2253L21.2647 64.8879L21.269 64.8793L19.961 64.2253ZM17.345 66.5293L17.9294 67.8699L17.9365 67.8667L17.9437 67.8635L17.345 66.5293ZM7.19302 67.3453V65.883H5.73067V67.3453H7.19302ZM7.19302 71.5693V73.0317H8.65537V71.5693H7.19302ZM1.28902 71.5693L-0.172092 71.5091L-0.23488 73.0317H1.28902V71.5693ZM1.28902 54.1453V52.683H-0.23488L-0.172092 54.2056L1.28902 54.1453ZM7.19302 54.1453H8.65537V52.683H7.19302V54.1453ZM7.19302 54.1693H5.73067V55.6317H7.19302V54.1693ZM13.481 62.5693L13.6928 64.0163L13.7071 64.0142L13.7214 64.0118L13.481 62.5693ZM14.873 61.9933L13.839 60.9593L13.8233 60.975L13.8081 60.9911L14.873 61.9933ZM14.897 59.6173L13.8005 60.5849L13.8307 60.6191L13.863 60.6514L14.897 59.6173ZM13.529 59.0653L13.3173 60.5123L13.3222 60.513L13.529 59.0653ZM7.19302 58.9213V57.459H5.73067V58.9213H7.19302ZM7.19302 62.7133H5.73067V64.1757H7.19302V62.7133ZM12.185 55.6317C15.2895 55.6317 17.0245 56.2045 17.8486 56.9548L19.8174 54.7919C18.1456 53.2701 15.4486 52.707 12.185 52.707V55.6317ZM17.8563 56.9617C18.7282 57.7441 19.2427 58.8931 19.2427 60.6253H22.1674C22.1674 58.2616 21.4339 56.2425 19.8097 54.785L17.8563 56.9617ZM19.2427 60.6253C19.2427 61.8658 19.0239 62.8296 18.6531 63.5714L21.269 64.8793C21.8901 63.637 22.1674 62.2009 22.1674 60.6253H19.2427ZM18.6574 63.5628C18.3473 64.1728 17.7674 64.737 16.7463 65.1951L17.9437 67.8635C19.4186 67.2017 20.5827 66.2298 21.2647 64.8879L18.6574 63.5628ZM16.7607 65.1888C15.7755 65.6182 14.2842 65.883 12.185 65.883V68.8077C14.4698 68.8077 16.4185 68.5284 17.9294 67.8699L16.7607 65.1888ZM12.185 65.883H7.19302V68.8077H12.185V65.883ZM5.73067 67.3453V71.5693H8.65537V67.3453H5.73067ZM7.19302 70.107H1.28902V73.0317H7.19302V70.107ZM2.75013 71.6296C2.87884 68.5084 2.94337 65.5841 2.94337 62.8573H0.0186662C0.0186662 65.5386 -0.044801 68.4223 -0.172092 71.5091L2.75013 71.6296ZM2.94337 62.8573C2.94337 60.1306 2.87884 57.2063 2.75013 54.0851L-0.172092 54.2056C-0.044801 57.2924 0.0186662 60.1761 0.0186662 62.8573H2.94337ZM1.28902 55.6077H7.19302V52.683H1.28902V55.6077ZM5.73067 54.1453V54.1693H8.65537V54.1453H5.73067ZM7.19302 55.6317H12.185V52.707H7.19302V55.6317ZM10.505 64.1757C11.8484 64.1757 12.9275 64.1283 13.6928 64.0163L13.2693 61.1224C12.7225 61.2024 11.8176 61.251 10.505 61.251V64.1757ZM13.7214 64.0118C14.4813 63.8851 15.3446 63.6259 15.9379 62.9956L13.8081 60.9911C13.8621 60.9338 13.8769 60.9475 13.7739 60.9901C13.6733 61.0317 13.5032 61.0831 13.2406 61.1269L13.7214 64.0118ZM15.9071 63.0274C16.5426 62.3919 16.7434 61.5614 16.7434 60.7933H13.8187C13.8187 60.9355 13.7999 61.0026 13.7945 61.0186C13.7922 61.0254 13.7934 61.0198 13.8015 61.0064C13.8099 60.9926 13.8224 60.9758 13.839 60.9593L15.9071 63.0274ZM16.7434 60.7933C16.7434 60.0551 16.5655 59.2178 15.9311 58.5833L13.863 60.6514C13.8371 60.6255 13.8188 60.6003 13.807 60.5803C13.7955 60.561 13.793 60.5515 13.7949 60.5573C13.7998 60.5722 13.8187 60.6425 13.8187 60.7933H16.7434ZM15.9935 58.6498C15.3939 57.9702 14.4889 57.7253 13.7358 57.6177L13.3222 60.513C13.5822 60.5501 13.7417 60.5967 13.8278 60.6314C13.9163 60.6671 13.8746 60.6689 13.8005 60.5849L15.9935 58.6498ZM13.7408 57.6184C12.9745 57.5063 11.8784 57.459 10.505 57.459V60.3837C11.8516 60.3837 12.7715 60.4324 13.3173 60.5123L13.7408 57.6184ZM10.505 57.459H7.19302V60.3837H10.505V57.459ZM5.73067 58.9213V62.7133H8.65537V58.9213H5.73067ZM7.19302 64.1757H10.505V61.251H7.19302V64.1757ZM25.5747 69.4333L24.5812 70.5064L24.5866 70.5113L25.5747 69.4333ZM25.5507 56.0413L24.5572 54.9683L24.5522 54.9729L25.5507 56.0413ZM41.7747 56.0413L40.7762 57.1097L40.7812 57.1144L41.7747 56.0413ZM41.7987 69.4333L42.7919 70.5067H42.7919L41.7987 69.4333ZM37.5027 65.9053L38.4544 67.0156L38.4609 67.0101L38.4673 67.0045L37.5027 65.9053ZM37.5027 59.5693L36.5382 60.6685L37.5027 59.5693ZM29.8467 59.5693L30.8113 60.6685L30.8113 60.6685L29.8467 59.5693ZM29.8467 65.8813L30.8113 64.7822L29.8467 65.8813ZM33.6627 70.347C30.1669 70.347 27.9043 69.585 26.5629 68.3554L24.5866 70.5113C26.7012 72.4497 29.8305 73.2717 33.6627 73.2717V70.347ZM26.5683 68.3603C25.2041 67.0972 24.4451 65.2838 24.4451 62.7133H21.5204C21.5204 65.9029 22.4894 68.5695 24.5812 70.5064L26.5683 68.3603ZM24.4451 62.7133C24.4451 60.1763 25.1954 58.375 26.5492 57.1097L24.5522 54.9729C22.482 56.9077 21.5204 59.5543 21.5204 62.7133H24.4451ZM26.5443 57.1144C27.8847 55.8732 30.1519 55.1037 33.6627 55.1037V52.179C29.8135 52.179 26.6728 53.0094 24.5572 54.9683L26.5443 57.1144ZM33.6627 55.1037C37.1931 55.1037 39.4548 55.8748 40.7762 57.1097L42.7732 54.9729C40.6706 53.0079 37.5243 52.179 33.6627 52.179V55.1037ZM40.7812 57.1144C42.1488 58.3806 42.9044 60.1805 42.9044 62.7133H45.8291C45.8291 59.5502 44.8567 56.902 42.7683 54.9683L40.7812 57.1144ZM42.9044 62.7133C42.9044 65.3073 42.1489 67.1171 40.8056 68.36L42.7919 70.5067C44.8726 68.5816 45.8291 65.9113 45.8291 62.7133H42.9044ZM40.8056 68.3599C39.4851 69.5817 37.2142 70.347 33.6627 70.347V73.2717C37.5353 73.2717 40.6883 72.453 42.7919 70.5067L40.8056 68.3599ZM33.6627 68.3757C35.5585 68.3757 37.2719 68.0293 38.4544 67.0156L36.551 64.795C36.1656 65.1254 35.319 65.451 33.6627 65.451V68.3757ZM38.4673 67.0045C39.6746 65.945 40.1411 64.4074 40.1411 62.7133H37.2164C37.2164 63.8993 36.8989 64.4897 36.5382 64.8062L38.4673 67.0045ZM40.1411 62.7133C40.1411 61.0391 39.6679 59.5238 38.4673 58.4702L36.5382 60.6685C36.9056 60.9909 37.2164 61.5716 37.2164 62.7133H40.1411ZM38.4673 58.4702C37.2837 57.4315 35.5643 57.075 33.6627 57.075V59.9997C35.3131 59.9997 36.1538 60.3311 36.5382 60.6685L38.4673 58.4702ZM33.6627 57.075C31.773 57.075 30.0639 57.4331 28.8822 58.4702L30.8113 60.6685C31.1975 60.3295 32.0325 59.9997 33.6627 59.9997V57.075ZM28.8822 58.4702C27.6816 59.5238 27.2084 61.0391 27.2084 62.7133H30.1331C30.1331 61.5716 30.4439 60.9909 30.8113 60.6685L28.8822 58.4702ZM27.2084 62.7133C27.2084 64.3975 27.6782 65.9239 28.8822 66.9805L30.8113 64.7822C30.4473 64.4627 30.1331 63.8772 30.1331 62.7133H27.2084ZM28.8822 66.9805C30.0639 68.0175 31.773 68.3757 33.6627 68.3757V65.451C32.0325 65.451 31.1975 65.1211 30.8113 64.7822L28.8822 66.9805ZM64.1892 55.8733L63.2048 56.9548L63.2125 56.9617L64.1892 55.8733ZM65.3172 64.2253L66.6209 64.8879L66.6252 64.8793L65.3172 64.2253ZM62.7012 66.5293L63.2855 67.8699L63.2927 67.8667L63.2999 67.8635L62.7012 66.5293ZM52.5492 67.3453V65.883H51.0868V67.3453H52.5492ZM52.5492 71.5693V73.0317H54.0115V71.5693H52.5492ZM46.6452 71.5693L45.1841 71.5091L45.1213 73.0317H46.6452V71.5693ZM46.6452 54.1453V52.683H45.1213L45.1841 54.2056L46.6452 54.1453ZM52.5492 54.1453H54.0115V52.683H52.5492V54.1453ZM52.5492 54.1693H51.0868V55.6317H52.5492V54.1693ZM58.8372 62.5693L59.0489 64.0163L59.0633 64.0142L59.0776 64.0118L58.8372 62.5693ZM60.2292 61.9933L59.1952 60.9593L59.1795 60.975L59.1643 60.9911L60.2292 61.9933ZM60.2532 59.6173L59.1567 60.5849L59.1869 60.6191L59.2192 60.6514L60.2532 59.6173ZM58.8852 59.0653L58.6734 60.5123L58.6784 60.513L58.8852 59.0653ZM52.5492 58.9213V57.459H51.0868V58.9213H52.5492ZM52.5492 62.7133H51.0868V64.1757H52.5492V62.7133ZM57.5412 55.6317C60.6456 55.6317 62.3806 56.2045 63.2048 56.9548L65.1736 54.7919C63.5017 53.2701 60.8048 52.707 57.5412 52.707V55.6317ZM63.2125 56.9617C64.0843 57.7441 64.5988 58.8931 64.5988 60.6253H67.5235C67.5235 58.2616 66.79 56.2425 65.1659 54.785L63.2125 56.9617ZM64.5988 60.6253C64.5988 61.8658 64.3801 62.8296 64.0092 63.5714L66.6252 64.8793C67.2463 63.637 67.5235 62.2009 67.5235 60.6253H64.5988ZM64.0135 63.5628C63.7035 64.1728 63.1236 64.737 62.1025 65.1951L63.2999 67.8635C64.7748 67.2017 65.9389 66.2298 66.6209 64.8879L64.0135 63.5628ZM62.1169 65.1888C61.1317 65.6182 59.6404 65.883 57.5412 65.883V68.8077C59.826 68.8077 61.7747 68.5284 63.2855 67.8699L62.1169 65.1888ZM57.5412 65.883H52.5492V68.8077H57.5412V65.883ZM51.0868 67.3453V71.5693H54.0115V67.3453H51.0868ZM52.5492 70.107H46.6452V73.0317H52.5492V70.107ZM48.1063 71.6296C48.235 68.5084 48.2995 65.5841 48.2995 62.8573H45.3748C45.3748 65.5386 45.3114 68.4223 45.1841 71.5091L48.1063 71.6296ZM48.2995 62.8573C48.2995 60.1306 48.235 57.2063 48.1063 54.0851L45.1841 54.2056C45.3114 57.2924 45.3748 60.1761 45.3748 62.8573H48.2995ZM46.6452 55.6077H52.5492V52.683H46.6452V55.6077ZM51.0868 54.1453V54.1693H54.0115V54.1453H51.0868ZM52.5492 55.6317H57.5412V52.707H52.5492V55.6317ZM55.8612 64.1757C57.2046 64.1757 58.2837 64.1283 59.0489 64.0163L58.6254 61.1224C58.0787 61.2024 57.1738 61.251 55.8612 61.251V64.1757ZM59.0776 64.0118C59.8375 63.8851 60.7008 63.6259 61.2941 62.9956L59.1643 60.9911C59.2182 60.9338 59.2331 60.9475 59.1301 60.9901C59.0294 61.0317 58.8594 61.0831 58.5968 61.1269L59.0776 64.0118ZM61.2632 63.0274C61.8988 62.3919 62.0995 61.5614 62.0995 60.7933H59.1748C59.1748 60.9355 59.1561 61.0026 59.1507 61.0186C59.1484 61.0254 59.1496 61.0198 59.1577 61.0064C59.1661 60.9926 59.1786 60.9758 59.1952 60.9593L61.2632 63.0274ZM62.0995 60.7933C62.0995 60.0551 61.9217 59.2178 61.2872 58.5833L59.2192 60.6514C59.1933 60.6255 59.1749 60.6003 59.1631 60.5803C59.1517 60.561 59.1492 60.5515 59.1511 60.5573C59.156 60.5722 59.1748 60.6425 59.1748 60.7933H62.0995ZM61.3497 58.6498C60.75 57.9702 59.8451 57.7253 59.092 57.6177L58.6784 60.513C58.9384 60.5501 59.0979 60.5967 59.184 60.6314C59.2724 60.6671 59.2308 60.6689 59.1567 60.5849L61.3497 58.6498ZM59.0969 57.6184C58.3307 57.5063 57.2346 57.459 55.8612 57.459V60.3837C57.2078 60.3837 58.1277 60.4324 58.6734 60.5123L59.0969 57.6184ZM55.8612 57.459H52.5492V60.3837H55.8612V57.459ZM51.0868 58.9213V62.7133H54.0115V58.9213H51.0868ZM52.5492 64.1757H55.8612V61.251H52.5492V64.1757ZM82.5469 54.1213V52.659H81.0846V54.1213H82.5469ZM88.4989 54.1213H89.9613V52.659H88.4989V54.1213ZM88.4989 63.6733L89.9611 63.6932L89.9613 63.6833V63.6733H88.4989ZM86.0749 69.5053L85.0569 68.4555L85.0516 68.4607L86.0749 69.5053ZM70.3789 69.6253L69.3164 70.6301L69.3219 70.6359L70.3789 69.6253ZM68.3389 63.8413L69.8011 63.861L69.8013 63.8511V63.8413H68.3389ZM68.3389 54.1213V52.659H66.8766V54.1213H68.3389ZM74.2909 54.1213H75.7533V52.659H74.2909V54.1213ZM74.4349 65.1853L73.005 65.4917L73.0115 65.5222L73.0194 65.5523L74.4349 65.1853ZM75.4429 66.4093L74.6159 67.6154L74.6238 67.6208L74.6317 67.6261L75.4429 66.4093ZM81.2269 66.4093L81.9793 67.6633L81.9907 67.6565L82.002 67.6494L81.2269 66.4093ZM82.3549 65.0893L80.9419 64.7125L80.936 64.7347L80.9308 64.757L82.3549 65.0893ZM82.5469 55.5837H88.4989V52.659H82.5469V55.5837ZM87.0366 54.1213V63.6733H89.9613V54.1213H87.0366ZM87.0367 63.6534C87.0096 65.6452 86.342 67.2093 85.0569 68.4555L87.0929 70.5552C88.9758 68.7293 89.9242 66.4055 89.9611 63.6932L87.0367 63.6534ZM85.0516 68.4607C83.8946 69.5941 81.7261 70.347 78.1309 70.347V73.2717C81.9917 73.2717 85.1192 72.4886 87.0982 70.55L85.0516 68.4607ZM78.1309 70.347C74.4393 70.347 72.3917 69.6145 71.4359 68.6148L69.3219 70.6359C71.1501 72.5482 74.2705 73.2717 78.1309 73.2717V70.347ZM71.4414 68.6206C70.3565 67.4734 69.7733 65.9366 69.8011 63.861L66.8767 63.8217C66.8405 66.514 67.6173 68.8333 69.3164 70.6301L71.4414 68.6206ZM69.8013 63.8413V54.1213H66.8766V63.8413H69.8013ZM68.3389 55.5837H74.2909V52.659H68.3389V55.5837ZM72.8286 54.1213V63.4573H75.7533V54.1213H72.8286ZM72.8286 63.4573C72.8286 64.2158 72.8792 64.9046 73.005 65.4917L75.8648 64.8789C75.7986 64.57 75.7533 64.1069 75.7533 63.4573H72.8286ZM73.0194 65.5523C73.256 66.4653 73.9111 67.1321 74.6159 67.6154L76.2699 65.2033C75.8548 64.9186 75.8378 64.7694 75.8505 64.8183L73.0194 65.5523ZM74.6317 67.6261C75.5756 68.2553 76.856 68.4477 78.2029 68.4477V65.523C77.0219 65.523 76.4622 65.3314 76.2541 65.1926L74.6317 67.6261ZM78.2029 68.4477C79.6537 68.4477 80.991 68.2563 81.9793 67.6633L80.4745 65.1554C80.1828 65.3304 79.5041 65.523 78.2029 65.523V68.4477ZM82.002 67.6494C82.7992 67.1511 83.5421 66.4368 83.779 65.4216L80.9308 64.757C80.9437 64.7018 80.9346 64.8676 80.4519 65.1693L82.002 67.6494ZM83.7679 65.4661C83.9408 64.8175 84.0093 64.0625 84.0093 63.2413H81.0846C81.0846 63.9242 81.025 64.4011 80.9419 64.7125L83.7679 65.4661ZM84.0093 63.2413V54.1213H81.0846V63.2413H84.0093ZM96.6386 66.7213H95.1763V68.1938L96.6487 68.1837L96.6386 66.7213ZM108.159 66.4813L109.576 66.8425L110.061 64.9376L108.097 65.0203L108.159 66.4813ZM107.775 68.8333L106.315 68.7402V68.7402L107.775 68.8333ZM107.703 71.5693V73.0317H109.165V71.5693H107.703ZM90.7826 71.5693L89.3215 71.5091L89.2587 73.0317H90.7826V71.5693ZM90.7826 54.1453V52.683H89.2587L89.3215 54.2056L90.7826 54.1453ZM96.6386 54.1453H98.101V52.683H96.6386V54.1453ZM96.6487 68.1837C101.298 68.1516 105.157 68.0714 108.22 67.9424L108.097 65.0203C105.081 65.1473 101.259 65.2271 96.6285 65.259L96.6487 68.1837ZM106.742 66.1201C106.514 67.0139 106.37 67.8879 106.315 68.7402L109.234 68.9265C109.276 68.2748 109.387 67.5808 109.576 66.8425L106.742 66.1201ZM106.315 68.7402C106.265 69.5331 106.24 70.4781 106.24 71.5693H109.165C109.165 70.5166 109.189 69.6376 109.234 68.9265L106.315 68.7402ZM107.703 70.107H90.7826V73.0317H107.703V70.107ZM92.2437 71.6296C92.3724 68.5084 92.437 65.5841 92.437 62.8573H89.5123C89.5123 65.5386 89.4488 68.4223 89.3215 71.5091L92.2437 71.6296ZM92.437 62.8573C92.437 60.1306 92.3724 57.2063 92.2437 54.0851L89.3215 54.2056C89.4488 57.2924 89.5123 60.1761 89.5123 62.8573H92.437ZM90.7826 55.6077H96.6386V52.683H90.7826V55.6077ZM95.1763 54.1453V66.7213H98.101V54.1453H95.1763ZM125.581 71.5693L124.194 72.0318L124.527 73.0317H125.581V71.5693ZM124.357 68.1373L125.728 67.6274L125.373 66.675H124.357V68.1373ZM116.701 68.1373V66.675H115.663L115.321 67.6547L116.701 68.1373ZM115.501 71.5693V73.0317H116.539L116.882 72.052L115.501 71.5693ZM109.477 71.5693L108.113 71.0431L107.346 73.0317H109.477V71.5693ZM116.197 54.1453V52.683H115.194L114.833 53.6191L116.197 54.1453ZM125.029 54.1453L126.392 53.6159L126.03 52.683H125.029V54.1453ZM131.797 71.5693V73.0317H133.934L133.16 71.0399L131.797 71.5693ZM122.989 64.3933V65.8557H125.074L124.364 63.8957L122.989 64.3933ZM121.117 59.3533L119.745 59.8599L119.748 59.8669L119.751 59.8739L121.117 59.3533ZM120.541 57.7933L121.913 57.2868L120.569 53.6471L119.176 57.2684L120.541 57.7933ZM118.069 64.3933L116.698 63.8864L115.97 65.8557H118.069V64.3933ZM126.969 71.1069C126.657 70.173 126.243 69.0119 125.728 67.6274L122.987 68.6473C123.496 70.0148 123.897 71.1417 124.194 72.0318L126.969 71.1069ZM124.357 66.675H116.701V69.5997H124.357V66.675ZM115.321 67.6547L114.121 71.0867L116.882 72.052L118.082 68.62L115.321 67.6547ZM115.501 70.107H109.477V73.0317H115.501V70.107ZM110.842 72.0955L117.562 54.6715L114.833 53.6191L108.113 71.0431L110.842 72.0955ZM116.197 55.6077H125.029V52.683H116.197V55.6077ZM123.666 54.6748L130.434 72.0988L133.16 71.0399L126.392 53.6159L123.666 54.6748ZM131.797 70.107H125.581V73.0317H131.797V70.107ZM124.364 63.8957C123.754 62.208 123.127 60.5203 122.484 58.8327L119.751 59.8739C120.388 61.5463 121.009 63.2187 121.614 64.891L124.364 63.8957ZM122.489 58.8468L121.913 57.2868L119.169 58.2999L119.745 59.8599L122.489 58.8468ZM119.176 57.2684C118.613 58.7337 117.786 60.9411 116.698 63.8864L119.441 64.9003C120.528 61.9576 121.35 59.7649 121.906 58.3183L119.176 57.2684ZM118.069 65.8557H122.989V62.931H118.069V65.8557ZM151.683 63.4813L150.495 62.6295L150.49 62.6361L150.485 62.6427L151.683 63.4813ZM148.203 65.5693L147.833 64.1548L145.728 64.7064L147.034 66.4467L148.203 65.5693ZM148.611 66.1693L147.333 66.8795L147.375 66.9543L147.425 67.0238L148.611 66.1693ZM152.499 71.5693V73.0317H155.354L153.686 70.7149L152.499 71.5693ZM145.971 71.5693L144.683 72.2608L145.097 73.0317H145.971V71.5693ZM142.635 66.0013L143.871 65.2189L143.44 64.539H142.635V66.0013ZM139.107 66.0013V64.539H137.645V66.0013H139.107ZM139.107 71.5693V73.0317H140.57V71.5693H139.107ZM133.443 71.5693L131.982 71.5091L131.92 73.0317H133.443V71.5693ZM133.443 54.1453V52.683H131.92L131.982 54.2056L133.443 54.1453ZM139.107 54.1453H140.57V52.683H139.107V54.1453ZM139.107 54.1693H137.645V55.6317H139.107V54.1693ZM150.795 55.7293L149.873 56.8643V56.8643L150.795 55.7293ZM139.107 58.7773V57.315H137.645V58.7773H139.107ZM139.107 61.5133H137.645V62.9757H139.107V61.5133ZM145.419 61.3933L145.588 62.8459L145.603 62.8442L145.617 62.8423L145.419 61.3933ZM146.883 60.9613L146.04 59.7666V59.7666L146.883 60.9613ZM146.907 59.3053L147.785 58.1355V58.1355L146.907 59.3053ZM145.467 58.8973L145.302 60.3503H145.302L145.467 58.8973ZM151.253 59.9533C151.253 61.0959 150.975 61.9599 150.495 62.6295L152.872 64.3332C153.768 63.0828 154.178 61.5948 154.178 59.9533H151.253ZM150.485 62.6427C150.085 63.2142 149.294 63.7717 147.833 64.1548L148.574 66.9839C150.409 66.503 151.937 65.6685 152.882 64.3199L150.485 62.6427ZM147.034 66.4467C147.215 66.6892 147.303 66.825 147.333 66.8795L149.89 65.4592C149.76 65.2256 149.576 64.9615 149.373 64.6919L147.034 66.4467ZM147.425 67.0238L151.313 72.4238L153.686 70.7149L149.798 65.3149L147.425 67.0238ZM152.499 70.107H145.971V73.0317H152.499V70.107ZM147.26 70.8779C146.531 69.5186 145.396 67.6271 143.871 65.2189L141.4 66.7838C142.915 69.1755 144.004 70.9961 144.683 72.2608L147.26 70.8779ZM142.635 64.539H139.107V67.4637H142.635V64.539ZM137.645 66.0013V71.5693H140.57V66.0013H137.645ZM139.107 70.107H133.443V73.0317H139.107V70.107ZM134.905 71.6296C135.033 68.5084 135.098 65.5841 135.098 62.8573H132.173C132.173 65.5386 132.11 68.4223 131.982 71.5091L134.905 71.6296ZM135.098 62.8573C135.098 60.1306 135.033 57.2063 134.905 54.0851L131.982 54.2056C132.11 57.2924 132.173 60.1761 132.173 62.8573H135.098ZM133.443 55.6077H139.107V52.683H133.443V55.6077ZM137.645 54.1453V54.1693H140.57V54.1453H137.645ZM139.107 55.6317H144.027V52.707H139.107V55.6317ZM144.027 55.6317C147.199 55.6317 149.008 56.1612 149.873 56.8643L151.718 54.5944C150.023 53.2175 147.32 52.707 144.027 52.707V55.6317ZM149.873 56.8643C150.783 57.6031 151.253 58.579 151.253 59.9533H154.178C154.178 57.7757 153.368 55.9356 151.718 54.5944L149.873 56.8643ZM137.645 58.7773V61.5133H140.57V58.7773H137.645ZM139.107 62.9757H142.347V60.051H139.107V62.9757ZM142.347 62.9757C143.721 62.9757 144.814 62.936 145.588 62.8459L145.251 59.9408C144.649 60.0107 143.694 60.051 142.347 60.051V62.9757ZM145.617 62.8423C146.347 62.7428 147.145 62.5669 147.727 62.156L146.04 59.7666C146.085 59.7351 146.062 59.7628 145.9 59.8108C145.748 59.8555 145.527 59.9028 145.222 59.9444L145.617 62.8423ZM147.727 62.156C148.432 61.658 148.754 60.9062 148.754 60.1213H145.829C145.829 60.124 145.829 60.0606 145.874 59.9684C145.921 59.8709 145.989 59.8028 146.04 59.7666L147.727 62.156ZM148.754 60.1213C148.754 59.3622 148.45 58.634 147.785 58.1355L146.03 60.4752C145.98 60.4375 145.917 60.37 145.872 60.276C145.83 60.1867 145.829 60.1241 145.829 60.1213H148.754ZM147.785 58.1355C147.187 57.687 146.352 57.526 145.633 57.4443L145.302 60.3503C145.605 60.3848 145.818 60.4269 145.957 60.4663C146.11 60.5097 146.103 60.53 146.03 60.4752L147.785 58.1355ZM145.633 57.4443C144.844 57.3547 143.738 57.315 142.347 57.315V60.2397C143.709 60.2397 144.683 60.2799 145.302 60.3503L145.633 57.4443ZM142.347 57.315H139.107V60.2397H142.347V57.315Z" fill="white" mask="url(#path-3-outside-1_115_21622)"/>
<defs>
<clipPath id="clip0_115_21622">
<rect width="93.0623" height="87.8921" fill="white" transform="translate(106 6.10352e-05)"/>
</clipPath>
</defs>
</svg>
