<svg width="245" height="40" viewBox="0 0 245 40" fill="none" xmlns="http://www.w3.org/2000/svg">
<g clip-path="url(#clip0_115_13984)">
<path d="M49.8554 38.8769C49.7208 39.041 49.4816 39.0929 49.2124 39.0929C49.2722 38.8164 49.6311 38.6177 49.8554 38.8769Z" fill="#FF0000"/>
<path d="M40.0906 9.14047C39.8962 9.28734 39.2831 9.91801 39.343 9.35646C39.6869 9.29598 39.8364 9.09728 40.0906 9.14047Z" fill="#FF0000"/>
<path d="M39.0441 5.35646C38.9843 5.62427 38.5207 5.39101 38.2964 5.45149C38.2964 5.10592 38.9095 5.19231 39.0441 5.35646Z" fill="#FF0000"/>
<path d="M36.0533 10.35C35.9038 10.5314 35.4851 10.6696 35.3057 10.445C35.3505 10.1858 35.829 10.4104 36.0533 10.35Z" fill="#FF0000"/>
<path d="M34.6776 5.10593C34.4234 5.4083 33.9897 5.51197 33.3916 5.42558C33.601 5.06273 34.2141 5.17504 34.6776 5.10593Z" fill="#FF0000"/>
<path d="M30.969 30.8769C30.311 30.9028 28.9802 31.3607 28.5166 30.8078C29.3091 31.1534 30.2213 30.5918 30.969 30.8769Z" fill="#FF0000"/>
<path d="M29.2046 19.594C28.3822 20.2851 26.9317 19.5076 25.8849 19.9655C25.7354 19.3867 27.4102 19.8877 27.7093 19.4299C27.9635 19.4731 28.1429 19.5854 28.3373 19.6804C28.6214 19.6372 28.8906 19.2571 29.1897 19.5854" fill="#FF0000"/>
<path d="M19.2154 17.8834C19.2453 18.1944 19.1556 18.3845 18.8864 18.3413C18.8117 18.2376 18.7818 18.0735 18.7967 17.8661C18.9313 17.8661 19.0808 17.8662 19.2154 17.8748" fill="#FF0000"/>
<path d="M15.0732 21.892C14.4152 22.4277 12.9049 22.4536 12.0825 22.0389C11.9628 22.108 11.9628 22.3067 11.7535 22.2635C11.26 22.3326 10.1535 22.108 11.2301 22.1339C12.561 21.7625 13.6077 22.1339 15.0732 21.892Z" fill="#FF0000"/>
<path d="M14.5797 15.9741C14.4302 16.1556 14.161 16.2074 13.832 16.1901C13.9068 15.905 14.4601 15.8445 14.5797 15.9741Z" fill="#FF0000"/>
<path d="M13.563 31.4212C13.4434 31.689 12.8901 31.4471 12.606 31.5076C12.8153 31.3521 13.3237 31.1793 13.563 31.4212Z" fill="#FF0000"/>
<path d="M13.7873 17.9525C13.5331 18.2549 12.935 18.1685 12.606 18.3931C12.3069 17.9266 13.3836 18.013 13.7873 17.9525Z" fill="#FF0000"/>
<path d="M13.2938 16.2852C13.0845 16.648 12.4714 16.5357 12.0078 16.6048C12.277 16.3197 12.8751 16.4061 13.2938 16.2852Z" fill="#FF0000"/>
<path d="M12.5312 34.2289C12.4863 34.6263 12.0676 34.5832 11.7686 34.6782C11.8284 34.3067 12.262 34.3672 12.5312 34.2289Z" fill="#FF0000"/>
<path d="M12.0676 31.378C11.7236 31.7063 10.5273 31.6112 9.9292 31.5508C10.6769 31.2743 11.2451 31.3002 12.0676 31.378Z" fill="#FF0000"/>
<path d="M11.7835 16.5962C11.2302 17.1404 10.4377 16.7085 9.97412 16.6566C10.4825 16.337 11.2153 16.9158 11.7835 16.5962Z" fill="#FF0000"/>
<path d="M10.378 22.108C10.1687 22.3067 9.80979 22.3413 9.51072 22.4363C9.4509 21.918 10.0191 22.1339 10.378 22.108Z" fill="#FF0000"/>
<path d="M9.4505 20.8985C9.19629 21.1923 8.97198 21.054 8.59814 20.9936C8.68787 20.7257 9.19629 20.9676 9.4505 20.8985Z" fill="#FF0000"/>
<path d="M8.52347 19.4558C8.40384 19.7668 7.6113 19.8273 7.77579 19.1966C8.00009 19.1448 7.97019 19.3694 7.98514 19.5594C8.23935 19.6113 8.2244 19.3521 8.52347 19.4558Z" fill="#FF0000"/>
<path d="M6.26562 28.4838C6.789 28 7.70117 28.7344 6.26562 28.4838V28.4838Z" fill="#FF0000"/>
<path d="M5.09918 32.8207C4.66553 33.0626 4.23187 32.9935 3.7085 32.8985C4.03748 32.743 4.87488 32.7171 5.09918 32.8207Z" fill="#FF0000"/>
<path d="M4.77045 33.5205C4.91998 33.8834 4.06763 33.8661 4.23212 33.5033C4.41156 33.5033 4.591 33.5119 4.77045 33.5205Z" fill="#FF0000"/>
<path d="M3.75354 39.7494C3.604 39.9913 3.26007 40.0432 3.00586 39.9654C3.08063 39.6803 3.63391 39.6198 3.75354 39.7494Z" fill="#FF0000"/>
<path d="M0.792156 39.1879C-0.404133 39.1706 -0.090107 39.7322 0.792156 39.1879V39.1879Z" fill="#FF0000"/>
<path d="M24.7783 39.4298C24.5989 39.5853 24.3596 39.6631 24.24 39.8877C23.911 39.4125 23.3129 39.8358 22.8643 39.6112C23.4175 39.0929 24.0007 39.7581 24.7933 39.4298" fill="#FF0000"/>
<path d="M12.8752 29.27C12.621 29.3132 12.6509 29.0454 12.3519 29.1318C12.322 28.9417 12.4565 28.9331 12.4715 28.7776C11.9332 28.6825 11.649 28.864 11.1855 28.864C11.2453 28.7689 11.3051 28.6739 11.3051 28.5097C10.707 29.149 10.0042 28.1383 8.74805 28.432C9.94434 27.7581 12.6061 28.2592 13.6678 28.1037C13.5183 28.5702 12.5911 28.1383 12.4865 28.6566C12.4565 29.0281 13.0696 28.7257 12.8902 29.2614" fill="#FF0000"/>
<path d="M11.7537 18.134C11.634 18.1512 11.6938 18.2463 11.7537 18.2549C11.7238 18.5314 11.2901 18.3067 11.2153 18.2376C11.3499 17.9093 12.7556 18.0908 11.7537 18.134Z" fill="#FF0000"/>
<path d="M3.82819 19.4298C3.82819 19.2743 3.82819 19.1102 3.82819 18.9547C3.14032 18.9806 2.04871 19.0843 1.6001 18.6523C2.40759 18.324 4.12726 19.1361 4.6955 18.3931C4.83008 18.5227 5.08429 18.5227 5.21887 18.6437C7.10303 17.9007 9.13672 18.6955 11.0956 18.229C10.2134 19.4817 8.22455 17.7625 7.23761 19.0584C7.07312 18.9892 7.23761 18.9374 7.34228 18.946C6.47498 18.9633 4.9198 18.6782 3.81323 19.4298" fill="#FF0000"/>
<path d="M4.53099 34.4622C4.3665 34.6695 4.06743 34.7214 3.87303 34.9201C3.78331 34.8942 4.30669 34.1426 4.53099 34.4622Z" fill="#FF0000"/>
<path d="M31.0437 14.3325C30.1614 14.3843 28.9053 14.9113 28.2623 14.488C28.0829 14.488 28.4119 15.1619 28.1427 15.3087C27.7689 15.015 27.3203 14.799 26.6623 14.7904C26.6174 13.8141 27.9184 14.393 27.9782 13.529C28.4866 13.6068 28.7259 13.6586 28.9502 13.2007C29.982 13.529 30.2063 12.9243 30.9689 13.2612C30.7596 13.8228 31.1035 13.6932 31.0437 14.3238M31.268 14.0906C31.283 13.9524 31.2531 13.8832 31.1633 13.8487C31.3876 13.2785 31.8961 14.1079 31.268 14.0906ZM220.222 39.0667C220.7 39.0667 221.224 38.6434 221.717 38.6348C222.884 38.6348 223.945 39.0927 225.127 38.8508C226.173 38.6434 227.16 38.0128 228.252 37.8832C229.059 37.7795 229.329 37.6067 229.867 37.4598C231.452 37.0279 232.738 37.2525 233.426 36.0344C234.533 35.2309 234.114 36.8724 235.086 36.1208C235.235 35.9998 235.564 36.0603 235.624 36.0171C238.091 34.1337 239.138 32.9242 242.039 31.5765C242.293 30.8853 242.458 29.8745 242.951 29.002C243.176 28.6132 243.669 28.3627 243.834 27.9653C244.417 26.4966 243.908 24.6219 245 23.5074C245.06 23.1359 244.865 23.0409 244.806 22.7903C244.836 19.853 244.402 17.3821 244.671 15.11C243.908 13.7623 244.088 12.2072 243.49 10.9372C243.131 10.1511 242.413 9.39945 241.949 8.64783C241.411 7.7839 240.858 7.11868 240.409 6.23747C240.409 5.34763 239.736 5.18348 239.602 4.4405C238.779 3.89623 238.136 6.177 237.299 5.64136C237.224 5.34763 237.015 5.1662 237 4.80335C235.235 3.29148 234.518 3.44698 232.095 2.85951C231.871 2.80768 231.407 2.71264 231.138 2.71264C229.344 2.73856 228.237 3.30876 227.295 2.12517C226.966 2.03014 226.981 2.31524 226.652 2.22021C226.443 1.65865 225.501 0.59602 224.663 0.621938C224.379 0.630577 223.886 1.39083 223.257 1.52906C222.33 1.72777 219.773 -0.172876 218.936 -0.0173688C218.547 0.0517455 218.143 0.734249 217.74 0.889756C216.693 1.2958 214.569 1.01071 213.687 0.768806C212.999 0.578742 212.73 0.0171884 212.207 0.129499C211.728 0.23317 207.541 1.02798 207.586 1.93511C206.225 3.93078 204.401 1.24397 202.307 2.12517C200.767 1.40811 200.992 1.44267 199.526 1.31308C199.227 1.28716 198.883 1.04526 198.569 1.04526C198.061 1.0539 197.388 1.44267 196.745 1.5809C195.638 1.8228 194.666 1.77096 193.754 2.08198C192.333 0.907035 191.302 2.2634 190.12 2.21157C189.672 2.19429 189.238 1.81416 188.745 1.81416C188.326 1.81416 187.922 2.15973 187.459 2.13381C186.995 2.10789 186.516 1.73641 186.083 1.73641C185.754 1.73641 185.5 1.96967 185.23 1.94375C184.872 1.90919 184.647 1.63273 184.273 1.67593C183.885 1.72777 183.481 2.17701 183.092 2.22884C181.642 2.41891 180.071 1.92647 178.711 2.80768C176.228 2.07334 174.075 3.24828 171.144 2.46211C170.411 2.70401 169.873 2.86815 169.11 2.63489C168.946 2.72128 168.946 3.00638 168.677 2.98046C167.152 2.63489 165.551 3.61977 163.981 3.19644C163.922 3.33467 163.862 3.46426 163.757 3.54202C161.589 2.98046 158.852 2.90271 157.148 3.58521C155.832 2.99774 154.291 3.67161 152.661 3.68888C151.899 3.68888 151.151 3.37787 150.433 3.50746C149.028 3.758 147.188 3.45562 145.843 3.61113C145.439 3.65433 144.407 4.09493 144.018 4.14677C143.3 4.25044 138.77 2.83359 138.007 3.00638C135.076 3.6716 131.711 3.21372 129.154 3.21372C128.362 3.21372 127.689 3.59385 126.792 3.73208C125.326 3.9567 123.801 3.32603 122.321 3.48154C121.947 3.5161 121.588 3.758 121.244 3.80119C120.362 3.93078 119.509 3.69752 118.582 3.72344C116.294 3.77528 114.006 4.43186 111.853 3.87895C109.102 4.65648 105.109 4.40594 101.924 4.52689C101.206 5.17484 100.533 4.61329 99.7855 4.69968C97.5125 4.95886 94.5816 5.68456 92.204 5.18348C82.1552 6.32386 71.553 6.10788 61.6089 7.40377C60.8313 6.91134 59.6201 7.23099 58.9471 7.55928C58.7976 7.25691 58.349 7.27419 57.9901 7.17915C56.749 7.96533 55.1788 7.32602 53.6087 7.52472C53.205 8.29362 52.2629 7.71479 51.6647 8.29362C51.4105 7.8703 52.0087 7.93077 51.575 7.69751C50.5582 9.08844 47.1188 8.44049 45.5786 8.82062C45.6833 8.82062 45.7132 9.02796 45.5786 9.05388C45.2048 8.70831 47.2833 10.5139 48.5394 10.1683C51.0815 9.46856 43.7393 8.65647 41.3467 9.15755C41.0477 8.95885 40.2402 8.37137 39.971 8.88109C40.4047 8.96748 40.958 8.92429 40.9131 9.50312C40.1953 9.31306 39.2532 9.57223 38.7747 10.0301C37.8925 10.082 37.4289 9.77958 36.6364 10.2029C36.442 10.1943 36.8308 10.799 36.4121 10.7817C35.1709 10.4794 34.5428 10.9804 33.4213 10.6953C33.0923 11.2396 31.7914 11.4038 31.3876 11.11C31.0287 11.3519 31.7914 11.5679 31.4774 11.7061C30.4755 11.8789 29.5334 12.1035 28.5913 11.7407C28.367 11.9999 28.2025 12.3454 27.8287 12.4232C27.5745 12.4664 27.9034 11.8876 27.5147 12.0603C27.1558 12.3714 27.7988 12.6046 27.709 13.0107C27.2006 13.2007 27.3053 13.4945 27.0511 13.8228C26.3483 13.4945 25.8698 14.1597 25.2267 14.3584C24.5688 14.5657 23.8361 14.3584 23.1931 14.5312C22.6398 14.6781 22.4155 15.0927 21.7874 15.0755C21.279 15.0755 20.8603 14.6435 20.307 14.6781C20.0079 14.7731 20.5014 15.1187 20.0827 15.1446C18.1238 15.2828 16.1649 15.4297 14.7293 16.164C16.9424 15.2396 18.5574 16.2245 20.5014 15.3951C20.8005 15.9221 21.3687 15.0668 21.6678 15.7839C21.8024 15.4815 21.3538 15.2655 21.7874 15.3174C21.937 15.3606 21.9818 15.4901 22.2061 15.4469C21.922 16.0776 22.3407 16.0776 22.5052 16.5182C24.165 16.4837 25.451 16.1899 26.8866 16.1726C27.1558 16.0258 26.7072 15.8098 27.0062 15.7061C27.5595 15.6025 27.9633 15.6975 28.6063 15.5161C28.8007 15.9826 29.2343 16.2158 28.9951 16.8292C27.066 16.786 24.4492 17.7104 22.1463 17.8055C21.4584 17.8314 20.7257 17.3562 20.322 18.1078C21.3538 17.8832 22.1912 18.704 23.0734 18.7817C24.2398 18.8767 25.466 18.1338 26.6025 18.2979C26.9165 18.3411 27.0511 18.5571 27.3352 18.5571C27.5595 18.5571 27.9483 18.2029 28.2025 18.2288C28.4717 18.2547 28.5016 18.5053 28.7259 18.4793C29.2044 18.4275 29.5782 18.0387 30.1166 18.0474C31.0138 18.0733 31.8961 18.5139 32.883 18.367C33.0624 18.5744 32.9877 19.1014 32.7484 19.1878C31.582 19.1618 31.3876 19.1878 30.1913 19.231C30.3259 19.2828 30.4007 19.3865 30.4007 19.5938C30.0269 19.5592 29.9072 19.4124 29.653 19.6888C30.5353 19.6629 30.4605 20.5787 30.1614 21.002C27.9633 20.8379 25.2567 21.2612 23.4473 20.9156C23.2529 21.1662 23.1183 21.5031 22.7893 21.6068C20.7556 21.9005 18.4677 21.6068 16.2695 21.8832C18.7668 22.583 21.3687 22.1683 24.2697 21.8832C24.3744 21.9955 24.2996 22.3238 24.5837 22.2461C25.8249 21.9178 27.2604 22.0042 28.2175 21.8832C28.6362 22.3929 29.0549 22.9199 29.4586 23.4556C32.4942 23.0236 34.7223 25.1143 37.6233 25.1143C37.6083 25.4772 37.8326 25.5808 37.9224 25.8314C37.6831 26.1251 37.5336 26.5052 37.2644 26.7558C36.7859 26.7817 36.2924 26.9718 35.8737 26.7126C33.4213 27.7666 29.9371 27.0149 26.8866 27.6283C26.5128 28.2158 26.8118 28.665 27.066 29.1661C28.5315 29.5117 29.8773 28.6823 31.4325 29.4167C31.9858 30.8076 31.4026 31.7838 30.2063 31.8616C28.2175 31.9912 24.7781 31.8616 23.4921 31.6629C17.6453 32.4836 11.8582 32.1467 5.86182 32.7946C9.18152 33.0624 12.262 32.3195 15.2527 32.8378C15.2527 32.5786 15.3574 32.4663 15.5817 32.4923C18.5126 32.6391 21.7575 32.6132 24.3295 32.164C25.4062 33.0192 27.4847 32.0171 28.5764 32.881C28.3072 34.2201 27.41 34.8335 26.2885 35.1791C27.4399 35.1013 28.5165 35.5419 29.4736 35.6283C30.2661 35.6974 31.6418 35.2914 32.0306 35.5851C32.1204 35.6542 31.9409 35.9307 32.1204 35.9393C31.7914 35.922 32.7036 35.8616 32.7634 35.8443C33.197 35.6888 33.1073 35.5938 33.6157 35.637C34.2737 35.6888 34.2587 35.7147 34.6774 36.0257C36.9504 36.2417 39.1336 35.827 41.3916 36.1035C41.6309 36.1294 42.1094 36.1035 42.1393 36.1294C42.3486 36.2158 42.1692 36.449 42.4533 36.4922C42.6178 36.5182 42.543 36.2331 42.7823 36.2676C43.6646 36.3799 44.6664 36.4922 45.5487 36.4663C47.7469 36.3972 50.3638 36.7169 52.1582 36.665C52.562 36.7514 52.0386 37.1575 52.5769 37.1488C55.6723 37.4339 58.9472 37.6672 62.2669 37.7881C62.5211 37.8313 62.3117 38.3497 62.6856 38.2719C63.1491 38.3583 63.0295 37.7881 63.4482 37.8227C63.7024 37.9782 63.9417 38.151 64.0762 38.4274C67.8745 38.868 71.7923 38.3842 75.7102 38.1855C79.3588 37.9955 83.0225 38.0128 86.4917 37.9177C89.2282 37.84 91.8451 37.3389 94.2825 37.6758C97.5574 37.2784 100.399 37.3043 103.464 37.2352C105.677 37.192 108.115 37.4598 109.969 37.192C110.283 37.1402 110.672 36.8724 111.046 36.8637C111.614 36.8637 112.182 37.2611 112.735 37.2698C114.261 37.2784 115.816 36.7946 117.326 36.8119C119.031 36.8378 120.661 36.9156 122.336 36.9588C123.278 36.9847 124.19 36.5959 125.117 36.57C125.73 36.5527 126.388 36.8724 127.031 36.8637C128.825 36.8465 130.665 36.3281 132.369 36.4318C134.642 36.57 136.99 37.0884 139.293 36.5182C141.85 36.8292 144.945 36.8465 147.398 36.6391C149.372 37.5808 151.45 36.6132 153.693 36.8292C153.933 36.8551 154.082 37.0365 154.321 37.0884C157.716 37.7881 161.484 36.5268 164.236 37.1488C165.267 36.5268 166.15 37.2093 167.107 37.3562C168.138 37.503 169.11 37.1056 170.097 37.0884C170.426 37.0884 170.725 37.3216 171.054 37.3562C172.056 37.4426 173.043 37.0538 174.15 36.976C175.81 36.8637 177.574 37.8832 179.473 37.2525C180.939 37.6931 183.122 38.2028 184.797 37.6499C187.638 38.5398 188.685 36.8896 191.616 37.2871C192.603 37.4253 194.861 38.0473 195.847 37.4858C196.879 38.1251 197.941 37.9523 199.197 38.03C200.438 38.0991 201.724 38.4706 203.025 38.6175C204.879 38.8248 208.962 36.2071 210.352 37.503C210.981 40.1899 212.207 36.2417 213.672 36.7773C214.45 37.3216 214.345 38.0732 214.689 39.0495C215.392 39.4555 217.126 37.7709 217.799 37.5549C218.592 37.8227 219.16 39.0322 220.222 39.0495" fill="#FF0000"/>
</g>
<defs>
<clipPath id="clip0_115_13984">
<rect width="245" height="39.9999" fill="white"/>
</clipPath>
</defs>
</svg>
