<svg width="14" height="14" viewBox="0 0 14 14" fill="none" xmlns="http://www.w3.org/2000/svg">
<path d="M6.72961 0.233398C5.39862 0.233398 4.09752 0.628083 2.99084 1.36754C1.88416 2.107 1.02161 3.15802 0.512264 4.3877C0.00291585 5.61737 -0.130353 6.97048 0.129311 8.27589C0.388974 9.58131 1.02991 10.7804 1.97106 11.7216C2.91221 12.6627 4.11132 13.3036 5.41673 13.5633C6.72215 13.823 8.07525 13.6897 9.30492 13.1804C10.5346 12.671 11.5856 11.8085 12.3251 10.7018C13.0645 9.5951 13.4592 8.294 13.4592 6.96301C13.4592 5.17821 12.7502 3.4665 11.4882 2.20446C10.2261 0.942409 8.51442 0.233398 6.72961 0.233398ZM9.64578 9.89039C9.5959 9.94522 9.53565 9.98961 9.46851 10.021C9.40138 10.0524 9.32868 10.0702 9.25463 10.0733C9.18058 10.0764 9.10664 10.0649 9.03709 10.0392C8.96754 10.0136 8.90376 9.97446 8.84944 9.92404L6.04544 7.378C5.99241 7.32315 5.95114 7.25805 5.92414 7.1867C5.89714 7.11534 5.88498 7.03923 5.88841 6.96301V3.8786C5.88841 3.72987 5.9475 3.58723 6.05267 3.48206C6.15784 3.37689 6.30048 3.3178 6.44921 3.3178C6.59795 3.3178 6.74059 3.37689 6.84576 3.48206C6.95093 3.58723 7.01001 3.72987 7.01001 3.8786V6.71626L9.60652 9.09966C9.71635 9.19945 9.78215 9.33871 9.78951 9.48692C9.79687 9.63513 9.74518 9.78021 9.64578 9.89039Z" fill="white"/>
</svg>
