<svg width="184" height="87" viewBox="0 0 184 87" fill="none" xmlns="http://www.w3.org/2000/svg">
<path d="M177.496 7.37523L177.764 7.35595C178.302 7.34511 178.775 7.42438 179.189 7.60132C179.659 7.80259 180.11 8.15436 180.514 8.76126C181.352 10.0207 181.978 12.3652 181.977 16.5185L181.96 65.0186C181.959 67.8098 181.378 69.5698 180.608 70.6285C179.86 71.6584 178.882 72.0995 177.863 72.1677L19.5508 78.4553L16.2985 78.5845L16.3661 78.6236L7.97303 78.9646L7.97246 78.9646C7.46378 78.9856 6.96008 79.0221 6.48333 79.0566C6.43597 79.06 6.38887 79.0634 6.34206 79.0668C5.81706 79.1046 5.32793 79.1379 4.86434 79.1486C3.91976 79.1705 3.20116 79.0928 2.65662 78.8502C2.1673 78.6322 1.74407 78.2482 1.44125 77.4504C1.12125 76.6073 0.941242 75.3077 1.038 73.3174L1.03882 73.3006L1.03904 73.2836L1.66143 25.8597L1.66151 25.8597L1.66152 25.8475C1.66213 24.0784 2.15328 22.5551 2.89174 21.475C3.63497 20.3878 4.57742 19.8112 5.48628 19.7443C5.48659 19.7442 5.48691 19.7442 5.48723 19.7442L177.496 7.37523Z" fill="#F3EBE2" stroke="#2473A6" stroke-width="1.91141"/>
<path d="M49.1025 43.8468C47.1006 43.9473 45.6197 43.5958 44.6597 42.792C43.6997 41.9883 43.2084 40.7972 43.1858 39.2187C43.1631 37.6313 43.619 36.3527 44.5535 35.3828C45.4881 34.4129 46.9563 33.8777 48.9581 33.7771C51.7572 33.6365 53.6444 34.5046 54.6198 36.3813C53.8265 36.6963 52.8979 37.1556 51.834 37.7593C51.57 37.2756 51.1573 36.928 50.5958 36.7166C50.0432 36.5048 49.479 36.4133 48.9033 36.4422C48.0529 36.4849 47.4228 36.7429 47.013 37.2161C46.603 37.6804 46.4028 38.2407 46.4122 38.8969C46.4223 39.6063 46.6521 40.1761 47.1015 40.6061C47.5596 41.0268 48.2492 41.214 49.1705 41.1677C49.9057 41.1308 50.4885 40.9817 50.9191 40.7205C51.3496 40.4504 51.6629 40.0441 51.859 39.5018C52.5909 39.8555 53.5273 40.2478 54.6681 40.6786C54.2406 41.7738 53.5117 42.5603 52.4814 43.0381C51.4512 43.5158 50.3249 43.7854 49.1025 43.8468ZM64.6497 42.9326C64.4741 42.4356 64.2392 41.8129 63.9448 41.0645L59.7063 41.2774L59.0693 43.213L55.7343 43.3805L59.3162 33.5363L64.2056 33.2907L68.0909 42.7598L64.6497 42.9326ZM63.1577 39.0274C62.8078 38.1132 62.449 37.1994 62.0813 36.286L61.75 35.4374C61.4516 36.26 61.0129 37.5023 60.4339 39.1642L63.1577 39.0274ZM79.854 35.726C79.8651 36.4975 79.684 37.1589 79.3107 37.7101C78.9463 38.2609 78.3097 38.6789 77.4008 38.9642C77.5091 39.1007 77.586 39.2078 77.6314 39.2854L79.8267 42.1702L76.2128 42.3518C75.8126 41.6442 75.1822 40.6464 74.3217 39.3585L72.3685 39.4566L72.4128 42.5426L69.2771 42.7002C69.3233 40.9762 69.3357 39.3649 69.3142 37.8662C69.2927 36.3675 69.2342 34.7597 69.1387 33.0429L72.2743 32.8854L72.2745 32.8987L74.9983 32.7618C76.7876 32.672 78.0406 32.8974 78.7575 33.4382C79.4744 33.9791 79.8399 34.7417 79.854 35.726ZM72.3111 35.4527L72.3329 36.9691L74.1266 36.879C74.8795 36.8412 75.4461 36.7905 75.8263 36.727C76.2153 36.6543 76.4843 36.5609 76.6334 36.4469C76.7824 36.3329 76.8555 36.1739 76.8526 35.97C76.8498 35.7749 76.7768 35.6277 76.6335 35.5284C76.4903 35.4291 76.2234 35.3671 75.8331 35.3423C75.4427 35.3175 74.8666 35.3243 74.1048 35.3626L72.3111 35.4527ZM92.1371 34.683C90.7458 34.7085 89.3946 34.7498 88.0835 34.8067L88.1831 41.7504L84.8614 41.9173L84.7619 34.9736C83.4422 35.0488 82.0962 35.143 80.7239 35.2563L80.6838 32.4629L92.0971 31.8896L92.1371 34.683ZM101.102 41.1014C100.926 40.6044 100.691 39.9817 100.397 39.2333L96.1583 39.4462L95.5212 41.3818L92.1863 41.5493L95.7681 31.7051L100.658 31.4595L104.543 40.9286L101.102 41.1014ZM99.6096 37.1962C99.2597 36.282 98.9009 35.3682 98.5332 34.4549L98.202 33.6062C97.9035 34.4288 97.4648 35.6711 96.8859 37.333L99.6096 37.1962ZM112.977 30.6942C114.643 30.6105 115.961 30.7484 116.932 31.1078C117.904 31.4584 118.585 31.9833 118.976 32.6824C119.376 33.3723 119.583 34.236 119.598 35.2736C119.612 36.2579 119.403 37.1292 118.971 37.8875C118.538 38.6458 117.882 39.2512 117.002 39.7036C116.122 40.1472 115.036 40.4015 113.742 40.4664C112.954 40.506 112.152 40.5463 111.338 40.5872C110.523 40.6282 109.699 40.6651 108.866 40.6981C108.912 38.9475 108.924 37.3185 108.902 35.8109C108.881 34.2856 108.822 32.6956 108.728 31.0408C109.78 30.8992 111.197 30.7836 112.977 30.6942ZM114.077 37.8006C114.9 37.7592 115.447 37.5321 115.715 37.1193C115.984 36.7064 116.114 36.1497 116.104 35.4491C116.094 34.7751 115.94 34.2371 115.642 33.835C115.352 33.4324 114.809 33.2512 114.012 33.2912C113.153 33.3344 112.511 33.3933 112.086 33.4678L112.15 37.8974L114.077 37.8006ZM124.304 37.4998C127.669 37.313 130.109 37.1416 131.622 36.9857C131.566 37.3524 131.531 37.7313 131.519 38.1224C131.516 38.5042 131.518 38.9877 131.527 39.573L121.203 40.0916C121.249 38.3677 121.261 36.7564 121.24 35.2577C121.218 33.759 121.16 32.1512 121.064 30.4344L131.388 29.9157L131.423 32.3234L124.235 32.6845L124.253 33.9615C124.678 33.949 125.307 33.9218 126.14 33.88C127.548 33.8093 129.005 33.7095 130.51 33.5806L130.543 35.8686C129.036 35.891 127.579 35.9376 126.17 36.0083C125.338 36.0502 124.709 36.0862 124.284 36.1164L124.304 37.4998ZM33.7786 62.6277C31.7768 62.7283 30.2959 62.3767 29.3359 61.573C28.3759 60.7692 27.8846 59.5781 27.862 57.9996C27.8392 56.4123 28.2951 55.1336 29.2297 54.1637C30.1642 53.1938 31.6324 52.6586 33.6343 52.5581C36.4333 52.4174 38.3206 53.2855 39.2959 55.1623C38.5027 55.4772 37.5741 55.9365 36.5102 56.5402C36.2462 56.0565 35.8334 55.7089 35.272 55.4975C34.7194 55.2857 34.1552 55.1942 33.5794 55.2231C32.7291 55.2659 32.099 55.5238 31.6892 55.997C31.2792 56.4613 31.0789 57.0216 31.0883 57.6778C31.0985 58.3873 31.3283 58.957 31.7776 59.387C32.2357 59.8077 32.9254 59.9949 33.8466 59.9486C34.5818 59.9117 35.1647 59.7626 35.5953 59.5014C36.0258 59.2313 36.3391 58.8251 36.5352 58.2827C37.2671 58.6365 38.2034 59.0287 39.3442 59.4595C38.9167 60.5548 38.1878 61.3413 37.1576 61.819C36.1273 62.2967 35.001 62.5663 33.7786 62.6277ZM46.4542 61.9909C44.4258 62.0928 42.9269 61.7288 41.9577 60.899C40.9884 60.0602 40.4922 58.8427 40.4694 57.2465C40.4467 55.668 40.9029 54.4115 41.838 53.4771C42.7819 52.5422 44.2725 52.0236 46.3098 51.9213C48.356 51.8185 49.8593 52.1867 50.8198 53.0259C51.7891 53.8646 52.2851 55.0733 52.3078 56.6518C52.3308 58.2569 51.8747 59.5222 50.9395 60.4478C50.0043 61.3733 48.5092 61.8877 46.4542 61.9909ZM46.4153 59.2773C47.3985 59.2279 48.1044 59.0061 48.5331 58.6118C48.9617 58.2087 49.1703 57.6081 49.1588 56.81C49.1476 56.0296 48.9223 55.4596 48.4828 55.1001C48.0433 54.7406 47.3319 54.5855 46.3487 54.6349C45.3744 54.6838 44.6729 54.9099 44.2444 55.313C43.8158 55.7161 43.6071 56.3079 43.6183 57.0883C43.6296 57.8775 43.855 58.4519 44.2945 58.8115C44.734 59.171 45.4409 59.3263 46.4153 59.2773ZM59.7624 61.3224C57.7605 61.4229 56.2796 61.0714 55.3196 60.2677C54.3596 59.4639 53.8683 58.2728 53.8457 56.6943C53.823 55.1069 54.2789 53.8283 55.2134 52.8584C56.148 51.8885 57.6162 51.3533 59.618 51.2527C62.4171 51.1121 64.3043 51.9802 65.2797 53.8569C64.4864 54.1719 63.5578 54.6312 62.4939 55.2349C62.2299 54.7512 61.8172 54.4036 61.2557 54.1922C60.7031 53.9804 60.1389 53.8889 59.5632 53.9178C58.7128 53.9605 58.0827 54.2185 57.6729 54.6917C57.2629 55.156 57.0627 55.7163 57.0721 56.3725C57.0823 57.0819 57.312 57.6517 57.7614 58.0817C58.2195 58.5024 58.9092 58.6896 59.8304 58.6433C60.5656 58.6064 61.1485 58.4573 61.579 58.1961C62.0095 57.926 62.3228 57.5197 62.5189 56.9774C63.2508 57.3311 64.1872 57.7234 65.328 58.1542C64.9005 59.2494 64.1716 60.036 63.1413 60.5137C62.1111 60.9914 60.9848 61.261 59.7624 61.3224ZM78.2405 53.3922C76.8492 53.4177 75.498 53.459 74.187 53.516L74.2865 60.4596L70.9648 60.6265L70.8653 53.6828C69.5456 53.758 68.1996 53.8522 66.8273 53.9656L66.7873 51.1721L78.2005 50.5988L78.2405 53.3922ZM82.9859 57.5866C86.3516 57.3998 88.7912 57.2284 90.3047 57.0725C90.2479 57.4392 90.2135 57.8181 90.2014 58.2092C90.198 58.5909 90.2005 59.0745 90.2089 59.6598L79.8851 60.1784C79.9313 58.4544 79.9437 56.8431 79.9222 55.3444C79.9007 53.8457 79.8422 52.2379 79.7467 50.5211L90.0704 50.0025L90.1049 52.4101L82.9169 52.7712L82.9352 54.0482C83.3605 54.0358 83.9894 54.0086 84.8221 53.9668C86.2305 53.896 87.6872 53.7962 89.1922 53.6674L89.225 55.9553C87.7184 55.9777 86.261 56.0243 84.8526 56.0951C84.0199 56.1369 83.3911 56.1729 82.9661 56.2032L82.9859 57.5866ZM95.0878 56.7257C97.6563 56.5789 99.7816 56.4278 101.464 56.2723C101.355 56.7304 101.29 57.1685 101.27 57.5866C101.249 58.0047 101.243 58.5109 101.252 59.105L91.8844 59.5756C91.9306 57.8516 91.943 56.2403 91.9215 54.7416C91.9 53.2429 91.8415 51.6351 91.746 49.9183L94.9879 49.7554L95.0878 56.7257ZM106.141 56.4234C109.507 56.2365 111.946 56.0652 113.46 55.9093C113.403 56.276 113.369 56.6549 113.357 57.0459C113.353 57.4277 113.356 57.9113 113.364 58.4965L103.04 59.0152C103.086 57.2912 103.099 55.6799 103.077 54.1812C103.056 52.6825 102.997 51.0747 102.902 49.3579L113.226 48.8393L113.26 51.2469L106.072 51.608L106.09 52.885C106.516 52.8725 107.145 52.8454 107.977 52.8035C109.386 52.7328 110.842 52.633 112.347 52.5041L112.38 54.7921C110.874 54.8145 109.416 54.8611 108.008 54.9319C107.175 54.9737 106.546 55.0097 106.121 55.04L106.141 56.4234ZM125.616 51.4382C125.628 52.2097 125.446 52.8711 125.073 53.4223C124.709 53.9731 124.072 54.3911 123.163 54.6764C123.272 54.8129 123.348 54.92 123.394 54.9976L125.589 57.8824L121.975 58.0639C121.575 57.3564 120.945 56.3586 120.084 55.0707L118.131 55.1688L118.175 58.2548L115.04 58.4124C115.086 56.6884 115.098 55.0771 115.077 53.5784C115.055 52.0797 114.997 50.4719 114.901 48.7551L118.037 48.5976L118.037 48.6109L120.761 48.474C122.55 48.3841 123.803 48.6096 124.52 49.1504C125.237 49.6913 125.602 50.4539 125.616 51.4382ZM118.074 51.1649L118.095 52.6813L119.889 52.5912C120.642 52.5534 121.208 52.5027 121.589 52.4392C121.978 52.3664 122.247 52.2731 122.396 52.1591C122.545 52.0451 122.618 51.8861 122.615 51.6822C122.612 51.4871 122.539 51.3399 122.396 51.2406C122.253 51.1413 121.986 51.0793 121.595 51.0545C121.205 51.0297 120.629 51.0365 119.867 51.0747L118.074 51.1649ZM134.865 50.4012C133.811 50.4009 133.031 50.409 132.526 50.4255L132.591 54.9748C133.105 54.9402 133.884 54.87 134.928 54.7642L134.966 57.4113L127.246 57.7991L127.208 55.152C128.228 55.1541 129.003 55.1462 129.535 55.1283L129.47 50.579C128.938 50.6146 128.164 50.6846 127.146 50.789L127.108 48.1419L134.828 47.7541L134.865 50.4012ZM131.723 47.3243L130.036 47.4091L130.325 45.3312L132.783 45.2077L131.723 47.3243ZM144.892 56.9127C144.716 56.4157 144.481 55.793 144.187 55.0446L139.948 55.2575L139.311 57.193L135.976 57.3606L139.558 47.5164L144.448 47.2708L148.333 56.7398L144.892 56.9127ZM143.4 53.0075C143.05 52.0933 142.691 51.1795 142.323 50.2661L141.992 49.4175C141.694 50.2401 141.255 51.4823 140.676 53.1443L143.4 53.0075Z" fill="#2473A6"/>
</svg>
