<svg width="269" height="69" viewBox="0 0 269 69" fill="none" xmlns="http://www.w3.org/2000/svg">
<path d="M260.321 1.74658L260.735 1.72686C262.651 1.69375 264.218 2.0925 265.333 3.13047C266.524 4.2393 267.404 6.2713 267.392 9.96031L267.249 54.0291C267.241 56.4408 266.441 57.9594 265.328 58.9105C264.187 59.8857 262.599 60.3655 260.859 60.4413C260.857 60.4414 260.854 60.4415 260.852 60.4416L28.9516 66.8718L28.9459 66.9074L11.993 67.387L11.9926 67.387C11.2165 67.4093 10.4973 67.4442 9.80349 67.4778C8.99284 67.5172 8.21687 67.5548 7.42524 67.5686C6.00924 67.5934 4.81011 67.5288 3.85215 67.2668C2.91916 67.0116 2.28118 66.5888 1.87619 65.9252C1.45546 65.2358 1.20009 64.1468 1.34226 62.3924L1.34446 62.3652L1.34511 62.338L2.37248 19.2443L2.37271 19.2345L2.37275 19.2246C2.38215 16.3273 5.00919 13.9266 8.34662 13.7647L260.321 1.74658Z" fill="#F3EBE2" stroke="#2473A6" stroke-width="1.91141"/>
</svg>
