<svg width="10" height="15" viewBox="0 0 10 15" fill="none" xmlns="http://www.w3.org/2000/svg">
<path d="M4.76681 0.616699C2.13525 0.616699 0 2.55478 0 4.94288C0 8.78837 4.76681 14.0759 4.76681 14.0759C4.76681 14.0759 9.53362 8.78837 9.53362 4.94288C9.53362 2.55478 7.39837 0.616699 4.76681 0.616699ZM4.76681 7.34631C4.38969 7.34631 4.02106 7.23355 3.7075 7.02228C3.39394 6.81103 3.14956 6.51069 3.00522 6.15936C2.86091 5.80803 2.82311 5.42142 2.89672 5.04843C2.97029 4.67547 3.15191 4.33289 3.41854 4.06397C3.68523 3.7951 4.02495 3.61195 4.3948 3.53779C4.76468 3.46357 5.14807 3.50165 5.49647 3.64717C5.84487 3.79272 6.14269 4.03916 6.35217 4.35535C6.56171 4.67155 6.67353 5.04328 6.67353 5.42357C6.67297 5.93335 6.47194 6.42208 6.11445 6.78254C5.757 7.14302 5.27235 7.34574 4.76681 7.34631Z" fill="white"/>
</svg>
