<svg width="28" height="28" viewBox="0 0 28 28" fill="none" xmlns="http://www.w3.org/2000/svg">
<path d="M16.9809 27.7861C16.9852 27.7459 16.9873 27.705 16.9873 27.6636V17.8461H20.3433C20.8814 17.8461 21.3657 17.4918 21.4444 16.9595C21.5745 16.0789 21.5192 15.2783 21.4351 14.7089C21.3578 14.1862 20.892 13.8421 20.3637 13.8421H16.9873C16.9873 10.8166 17.4908 10.3764 20.3288 10.3213C20.8733 10.3107 21.3621 9.9512 21.4411 9.41232C21.574 8.50652 21.521 7.7151 21.4377 7.15835C21.3607 6.64407 20.8995 6.30883 20.3795 6.31337C15.3637 6.35712 12.507 6.95017 12.507 13.8421H9.90841C9.4034 13.8421 8.95504 14.1586 8.87864 14.6578C8.79636 15.1957 8.74661 15.9753 8.88397 16.9235C8.96334 17.4713 9.45605 17.8461 10.0096 17.8461H12.507V27.8156C8.62319 27.7901 5.8433 27.6368 4.03321 27.4897C2.04113 27.3279 0.504085 25.7908 0.342233 23.7988C0.181181 21.8165 0.0126953 18.6712 0.0126953 14.1867C0.0126953 9.7023 0.181181 6.55694 0.342233 4.57471C0.504085 2.58263 2.04113 1.04559 4.03321 0.883737C6.01544 0.722679 9.1608 0.554199 13.6452 0.554199C18.1297 0.554199 21.275 0.722685 23.2573 0.883737C25.2493 1.04559 26.7864 2.58263 26.9482 4.57471C27.1093 6.55694 27.2778 9.7023 27.2778 14.1867C27.2778 18.6712 27.1093 21.8165 26.9482 23.7988C26.7864 25.7909 25.2493 27.3279 23.2573 27.4897C21.809 27.6074 19.7397 27.7291 16.9809 27.7861Z" fill="#F3EBE2"/>
</svg>
