<svg width="319" height="123" viewBox="0 0 319 123" fill="none" xmlns="http://www.w3.org/2000/svg">
<path d="M304.808 4.64217L304.127 0.0712031L64.5382 24.7487C61.4074 25.0762 58.6169 26.3578 56.6602 28.2232C54.6865 30.0744 53.5125 32.5521 53.5125 35.1864V93.9396H59.0083L62.2412 90.2088L61.6796 89.8671L59.0424 88.258L0 111.625V122.206L100.865 113.704L89.1078 106.556L85.8751 110.287L86.3514 114.872L307.02 99.0232H307.088C310.252 98.7242 313.06 97.4284 315.051 95.5772C317.042 93.7261 318.25 91.2341 318.25 88.5713V10.5089C318.25 7.58979 316.803 4.92697 314.54 3.04733C312.277 1.16768 309.13 0 305.693 0C305.182 0 304.672 0.0284978 304.144 0.0854568L304.825 4.6564L305.505 9.22737H305.71C306.118 9.22737 306.492 9.35552 306.798 9.5976C307.088 9.85392 307.258 10.1387 307.258 10.5232V88.5855C307.258 88.9272 307.122 89.212 306.867 89.4541C306.611 89.6962 306.288 89.8386 305.88 89.8813L306.492 94.4523L306.016 89.8671L70.7147 106.77L71.0549 106.983L4.96847 112.551L5.51286 117.136H11.0089V114.559H5.51286L7.86095 118.731L60.795 97.7844L58.4469 93.6264L55.214 97.3572L55.7754 97.6989L64.5211 103.025V35.2149C64.5211 34.8732 64.6572 34.5884 64.9125 34.3463C65.1677 34.1042 65.4911 33.9618 65.8824 33.9191L305.471 9.24161L304.808 4.67066V4.64217Z" fill="#F3EBE2"/>
<path d="M304.807 4.64249L65.2182 29.32C61.6791 29.6902 59.0247 32.1964 59.0247 35.1867V93.9399L58.4633 93.5982L5.5293 114.545V117.122L85.9765 110.344L85.8916 110.287L306.492 94.4383C310.065 94.0966 312.753 91.5761 312.753 88.5716V10.5093C312.753 6.96356 309.044 4.2153 304.824 4.64249" fill="#2473A6"/>
<path d="M86.048 58.4849C90.873 58.0757 94.367 57.7277 96.5301 57.4407C96.4826 57.9686 96.4683 58.513 96.4873 59.0739C96.5181 59.6212 96.5667 60.314 96.6334 61.1523L81.8284 62.3292C81.7342 59.8568 81.6017 57.5472 81.4311 55.4005C81.2604 53.2537 81.0263 50.9522 80.7288 48.496L95.5338 47.3191L95.8079 50.7679L85.4997 51.5873L85.6451 53.4165C86.2559 53.3807 87.1582 53.3154 88.3523 53.2205C90.372 53.0599 92.4586 52.8557 94.612 52.6078L94.8725 55.8851C92.707 55.9806 90.6144 56.1086 88.5946 56.2691C87.4006 56.364 86.4992 56.4421 85.8905 56.5032L86.048 58.4849ZM107.324 53.1697L113.451 59.8155L107.944 60.2532L104.904 56.7368L102.438 60.691L96.9309 61.1287L101.931 53.5983L96.0219 47.2803L101.528 46.8426L104.373 50.0679L106.654 46.4352L112.161 45.9975L107.324 53.1697ZM121.398 59.3755C118.528 59.6037 116.364 59.1621 114.908 58.0507C113.452 56.9393 112.634 55.253 112.454 52.9919C112.274 50.7182 112.81 48.8667 114.064 47.4376C115.319 46.0085 117.381 45.1798 120.252 44.9516C124.266 44.6325 127.062 45.7972 128.64 48.4457C127.528 48.9303 126.235 49.6275 124.761 50.5373C124.336 49.8552 123.71 49.3745 122.882 49.0951C122.067 48.8148 121.247 48.7074 120.421 48.773C119.202 48.87 118.32 49.2661 117.774 49.9614C117.227 50.644 116.992 51.4553 117.066 52.3952C117.147 53.4115 117.531 54.2182 118.217 54.8156C118.916 55.3992 119.925 55.6385 121.246 55.5335C122.301 55.4497 123.126 55.2116 123.721 54.8191C124.315 54.414 124.728 53.8187 124.959 53.0333C126.045 53.5095 127.429 54.0322 129.111 54.6016C128.598 56.1891 127.622 57.3468 126.185 58.0747C124.747 58.8025 123.151 59.2362 121.398 59.3755ZM135.794 54.1662C139.476 53.848 142.519 53.5422 144.925 53.2487C144.811 53.9096 144.759 54.5402 144.768 55.1402C144.778 55.7403 144.816 56.4658 144.884 57.3169L131.451 58.3847C131.356 55.9123 131.224 53.6027 131.053 51.456C130.883 49.3092 130.649 47.0077 130.351 44.5515L135 44.1819L135.794 54.1662ZM156.471 42.4561L161.196 42.0804L161.799 49.6639C161.922 51.5332 161.403 53.1276 160.243 54.447C159.095 55.7654 157.041 56.5423 154.081 56.7775C151.083 57.0158 148.986 56.6009 147.789 55.5329C146.591 54.4521 145.929 52.9643 145.804 51.0696L145.191 43.3527L149.916 42.9771L150.505 50.3891C150.55 50.948 150.624 51.4023 150.729 51.7519C150.845 52.0878 151.137 52.3905 151.606 52.66C152.088 52.9285 152.83 53.0229 153.834 52.9432C154.926 52.8563 155.714 52.6403 156.198 52.295C156.681 51.9371 156.952 51.564 157.011 51.1759C157.082 50.7867 157.094 50.2936 157.046 49.6966L156.471 42.4561ZM164.166 54.1351C164.547 53.453 164.854 52.8213 165.089 52.2402C165.337 51.6581 165.565 50.988 165.773 50.23C166.717 50.6792 167.797 51.0023 169.014 51.1996C170.231 51.3968 171.354 51.4546 172.383 51.3728C173.438 51.289 174.174 51.141 174.591 50.9288C175.008 50.7039 175.208 50.4835 175.191 50.2676C175.129 49.4927 173.917 49.1992 171.554 49.387C168.963 49.593 167.062 49.4757 165.851 49.0351C164.639 48.5817 163.985 47.7517 163.889 46.545C163.753 44.8301 164.363 43.5096 165.721 42.5836C167.08 41.6575 168.895 41.1041 171.169 40.9234C172.49 40.8184 173.857 40.8823 175.269 41.1152C176.692 41.3344 177.986 41.6918 179.15 42.1872C178.849 43.0549 178.543 44.1082 178.232 45.3473C178.176 45.6074 178.128 45.803 178.087 45.9341C177.398 45.4648 176.385 45.1106 175.05 44.8716C173.713 44.62 172.543 44.534 171.539 44.6138C170.333 44.7097 169.526 44.8569 169.12 45.0554C168.713 45.2411 168.522 45.4864 168.546 45.7913C168.57 46.0962 168.876 46.3211 169.462 46.4662C170.061 46.5976 170.906 46.6199 171.999 46.5331C174.692 46.319 176.673 46.4747 177.942 47.0002C179.209 47.513 179.894 48.4045 179.995 49.6748C180.136 51.4532 179.59 52.7876 178.357 53.6782C177.123 54.556 175.191 55.0995 172.562 55.3085C171.152 55.4206 169.704 55.3822 168.219 55.1935C166.733 54.9921 165.382 54.6393 164.166 54.1351ZM192.648 43.4152C191.13 43.4592 190.009 43.5036 189.284 43.5484L189.801 50.0649C190.537 49.9936 191.652 49.8603 193.144 49.665L193.446 53.4567L182.375 54.3367L182.074 50.5449C183.541 50.505 184.656 50.4611 185.419 50.4133L184.901 43.8968C184.14 43.9701 183.032 44.1029 181.577 44.2952L181.276 40.5035L192.346 39.6235L192.648 43.4152ZM210.545 38.1769L209.519 41.1921C208.619 43.8586 207.913 45.9919 207.401 47.5921C206.889 49.1923 206.43 50.8139 206.024 52.4569L200.327 52.9097C199.681 51.376 198.979 49.8659 198.222 48.3793C197.476 46.8791 196.48 44.9641 195.234 42.6344C195.024 42.2421 194.475 41.2055 193.587 39.5249L198.884 39.1038C199.363 40.3057 200.054 41.8422 200.957 43.7134C201.753 45.3631 202.404 46.7942 202.909 48.0067C203.106 47.109 203.35 46.1502 203.639 45.1301C203.94 44.0963 204.121 43.4684 204.18 43.2464C204.762 41.2443 205.182 39.6898 205.439 38.5828L210.545 38.1769ZM220.496 51.4982C217.587 51.7294 215.397 51.2708 213.925 50.1223C212.452 48.9611 211.625 47.2372 211.443 44.9507C211.264 42.6897 211.803 40.87 213.061 39.4917C214.332 38.1123 216.428 37.3066 219.35 37.0743C222.284 36.8411 224.481 37.3056 225.941 38.4678C227.414 39.629 228.241 41.3401 228.42 43.6012C228.603 45.9004 228.065 47.7328 226.806 49.0984C225.546 50.464 223.443 51.2639 220.496 51.4982ZM220.187 47.6112C221.597 47.4991 222.592 47.1516 223.172 46.5686C223.751 45.9729 223.995 45.1034 223.905 43.9602C223.816 42.8423 223.438 42.0351 222.773 41.5383C222.107 41.0416 221.069 40.8493 219.659 40.9613C218.261 41.0724 217.273 41.4258 216.694 42.0215C216.115 42.6172 215.87 43.4739 215.959 44.5918C216.049 45.7223 216.427 46.5359 217.093 47.0327C217.758 47.5294 218.79 47.7223 220.187 47.6112ZM230.844 48.8349C231.224 48.1527 231.532 47.5211 231.767 46.94C232.015 46.3578 232.243 45.6878 232.451 44.9298C233.394 45.3789 234.475 45.7021 235.692 45.8994C236.909 46.0966 238.032 46.1543 239.061 46.0725C240.115 45.9887 240.852 45.8408 241.269 45.6286C241.686 45.4037 241.886 45.1833 241.869 44.9674C241.807 44.1925 240.595 43.899 238.232 44.0868C235.641 44.2928 233.74 44.1755 232.529 43.7348C231.317 43.2815 230.663 42.4515 230.567 41.2447C230.43 39.5299 231.041 38.2094 232.399 37.2834C233.757 36.3573 235.573 35.8039 237.847 35.6231C239.168 35.5181 240.535 35.5821 241.946 35.815C243.37 36.0342 244.664 36.3915 245.828 36.887C245.526 37.7546 245.22 38.808 244.91 40.0471C244.854 40.3072 244.805 40.5028 244.765 40.6338C244.075 40.1645 243.063 39.8104 241.727 39.5714C240.391 39.3197 239.221 39.2338 238.217 39.3136C237.01 39.4095 236.204 39.5567 235.798 39.7551C235.391 39.9409 235.199 40.1862 235.224 40.4911C235.248 40.7959 235.553 41.0209 236.14 41.166C236.739 41.2974 237.584 41.3197 238.676 41.2328C241.369 41.0188 243.35 41.1745 244.619 41.7C245.887 42.2128 246.572 43.1043 246.673 44.3746C246.814 46.1529 246.268 47.4874 245.035 48.378C243.801 49.2558 241.869 49.7993 239.24 50.0083C237.83 50.1204 236.382 50.082 234.897 49.8933C233.411 49.6918 232.06 49.339 230.844 48.8349ZM257.564 44.851C262.389 44.4419 265.883 44.0939 268.046 43.8069C267.998 44.3348 267.984 44.8792 268.003 45.4401C268.034 45.9874 268.082 46.6802 268.149 47.5185L253.344 48.6954C253.25 46.223 253.117 43.9134 252.947 41.7667C252.776 39.6199 252.542 37.3184 252.245 34.8622L267.049 33.6853L267.324 37.1341L257.015 37.9535L257.161 39.7827C257.772 39.7469 258.674 39.6816 259.868 39.5867C261.888 39.4261 263.974 39.2219 266.128 38.974L266.388 42.2513C264.223 42.3468 262.13 42.4748 260.11 42.6353C258.916 42.7302 258.015 42.8083 257.406 42.8694L257.564 44.851ZM285.232 32.2592C285.314 34.413 285.452 36.7157 285.647 39.1673C285.843 41.6316 286.071 43.9336 286.33 46.0733L279.509 46.6155L274.071 36.5786L275.241 46.9548L270.344 47.3441C270.25 44.8717 270.117 42.5621 269.946 40.4154C269.777 38.2813 269.543 35.9862 269.246 33.5299L276.258 32.9725L281.737 43.2938L280.564 32.6302L285.232 32.2592ZM96.9596 75.9217C97.0475 77.0268 96.8486 77.9822 96.3629 78.7878C95.89 79.5923 95.013 80.2181 93.7319 80.6651C93.9005 80.8562 94.0211 81.0064 94.0937 81.1157L97.5212 85.1575L92.3385 85.5694C91.6968 84.5722 90.6968 83.1689 89.3386 81.3594L86.5377 81.5821L86.8891 86.0026L82.3923 86.3601C82.2981 83.8877 82.1656 81.5781 81.995 79.4313C81.8243 77.2846 81.5902 74.9831 81.2927 72.5269L85.7895 72.1694L85.791 72.1885L89.697 71.878C92.263 71.674 94.0869 71.9445 95.1687 72.6894C96.2506 73.4343 96.8475 74.5117 96.9596 75.9217ZM86.0818 75.8468L86.2544 78.019L88.8267 77.8145C89.9065 77.7287 90.7169 77.6323 91.2581 77.5254C91.8109 77.4047 92.1893 77.2596 92.3931 77.09C92.5969 76.9204 92.6872 76.6895 92.664 76.3974C92.6418 76.1179 92.523 75.9101 92.3076 75.7738C92.0923 75.6375 91.7026 75.5598 91.1387 75.5407C90.5747 75.5217 89.7465 75.5555 88.6541 75.6424L86.0818 75.8468ZM103.909 81.1408C108.734 80.7317 112.228 80.3836 114.391 80.0966C114.344 80.6245 114.33 81.1689 114.349 81.7298C114.379 82.2771 114.428 82.9699 114.495 83.8082L99.6898 84.9851C99.5955 82.5127 99.463 80.2031 99.2924 78.0564C99.1218 75.9096 98.8877 73.6081 98.5902 71.1519L113.395 69.975L113.669 73.4238L103.361 74.2432L103.506 76.0724C104.117 76.0366 105.02 75.9713 106.214 75.8764C108.233 75.7158 110.32 75.5116 112.473 75.2637L112.734 78.541C110.568 78.6365 108.476 78.7645 106.456 78.925C105.262 79.0199 104.361 79.098 103.752 79.1591L103.909 81.1408ZM116.559 81.9951C116.94 81.313 117.247 80.6813 117.482 80.1002C117.73 79.518 117.958 78.848 118.166 78.09C119.11 78.5392 120.19 78.8623 121.407 79.0596C122.624 79.2568 123.747 79.3146 124.776 79.2328C125.831 79.149 126.567 79.001 126.985 78.7888C127.401 78.5639 127.601 78.3435 127.584 78.1276C127.522 77.3527 126.31 77.0592 123.947 77.247C121.356 77.453 119.455 77.3357 118.244 76.8951C117.032 76.4417 116.378 75.6117 116.282 74.4049C116.146 72.6901 116.756 71.3696 118.115 70.4436C119.473 69.5175 121.289 68.9641 123.562 68.7834C124.883 68.6784 126.25 68.7423 127.662 68.9752C129.085 69.1944 130.379 69.5517 131.543 70.0472C131.242 70.9149 130.936 71.9682 130.625 73.2073C130.569 73.4674 130.521 73.663 130.48 73.7941C129.791 73.3247 128.778 72.9706 127.443 72.7316C126.106 72.48 124.936 72.394 123.932 72.4738C122.726 72.5697 121.919 72.7169 121.513 72.9153C121.106 73.1011 120.915 73.3464 120.939 73.6513C120.963 73.9561 121.269 74.1811 121.855 74.3262C122.454 74.4576 123.299 74.4799 124.392 74.3931C127.085 74.179 129.066 74.3347 130.335 74.8602C131.602 75.373 132.287 76.2645 132.388 77.5348C132.529 79.3132 131.983 80.6476 130.75 81.5382C129.516 82.416 127.584 82.9595 124.955 83.1685C123.545 83.2806 122.098 83.2422 120.612 83.0535C119.126 82.852 117.775 82.4993 116.559 81.9951ZM149.591 71.1244C147.592 71.2194 145.652 71.3353 143.771 71.472L144.561 81.4182L139.798 81.7969L139.007 71.8507C137.116 72.0138 135.188 72.2054 133.224 72.4255L132.906 68.4241L149.273 67.1231L149.591 71.1244ZM162.879 79.9621C162.581 79.2573 162.184 78.3748 161.691 77.3146L155.613 77.7978L154.877 80.5983L150.094 80.9784L154.33 66.7211L161.342 66.1638L167.814 79.5698L162.879 79.9621ZM160.369 74.4286C159.78 73.1331 159.179 71.8388 158.565 70.5454L158.009 69.3432C157.656 70.5345 157.141 72.3331 156.463 74.7391L160.369 74.4286ZM178.537 64.7777L183.263 64.4021L183.866 71.9856C183.989 73.8549 183.47 75.4492 182.309 76.7687C181.161 78.0871 179.107 78.8639 176.148 79.0992C173.15 79.3375 171.052 78.9226 169.855 77.8545C168.657 76.7737 167.996 75.2859 167.871 73.3912L167.257 65.6743L171.983 65.2987L172.572 72.7107C172.616 73.2696 172.691 73.7239 172.795 74.0735C172.912 74.4094 173.204 74.7121 173.673 74.9817C174.154 75.2502 174.897 75.3445 175.9 75.2648C176.993 75.1779 177.781 74.9619 178.265 74.6166C178.748 74.2587 179.019 73.8856 179.077 73.4975C179.148 73.1083 179.16 72.6152 179.113 72.0182L178.537 64.7777ZM200.93 67.6571C201.018 68.7622 200.819 69.7175 200.334 70.5231C199.861 71.3277 198.984 71.9535 197.703 72.4004C197.871 72.5916 197.992 72.7418 198.064 72.851L201.492 76.8928L196.309 77.3048C195.668 76.3076 194.668 74.9043 193.309 73.0948L190.508 73.3174L190.86 77.738L186.363 78.0954C186.269 75.623 186.136 73.3134 185.966 71.1667C185.795 69.0199 185.561 66.7185 185.263 64.2622L189.76 63.9048L189.762 63.9238L193.668 63.6133C196.234 63.4094 198.058 63.6798 199.139 64.4247C200.221 65.1696 200.818 66.2471 200.93 67.6571ZM190.053 67.5822L190.225 69.7543L192.797 69.5499C193.877 69.464 194.688 69.3677 195.229 69.2607C195.782 69.1401 196.16 68.995 196.364 68.8254C196.568 68.6558 196.658 68.4249 196.635 68.1327C196.613 67.8533 196.494 67.6454 196.278 67.5091C196.063 67.3729 195.673 67.2952 195.109 67.2761C194.545 67.257 193.717 67.2909 192.625 67.3777L190.053 67.5822ZM214.549 75.8549C214.25 75.1501 213.854 74.2676 213.36 73.2075L207.282 73.6906L206.546 76.4911L201.763 76.8712L205.999 62.614L213.011 62.0566L219.484 75.4627L214.549 75.8549ZM212.038 70.3214C211.449 69.026 210.848 67.7316 210.234 66.4382L209.678 65.236C209.325 66.4273 208.81 68.2259 208.132 70.6319L212.038 70.3214ZM235.493 60.2887C235.574 62.4425 235.713 64.7452 235.908 67.1968C236.103 69.6611 236.331 71.9631 236.591 74.1028L229.769 74.645L224.331 64.6081L225.501 74.9843L220.604 75.3736C220.51 72.9012 220.378 70.5916 220.207 68.4448C220.037 66.3108 219.804 64.0157 219.506 61.5594L226.518 61.002L231.998 71.3233L230.824 60.6597L235.493 60.2887ZM254.176 62.811C252.177 62.906 250.237 63.0218 248.356 63.1586L249.146 73.1048L244.383 73.4834L243.592 63.5372C241.7 63.7004 239.773 63.892 237.809 64.112L237.491 60.1107L253.858 58.8096L254.176 62.811ZM261.187 68.6388C266.012 68.2297 269.506 67.8816 271.669 67.5946C271.621 68.1225 271.607 68.6669 271.626 69.2278C271.657 69.7751 271.705 70.4679 271.772 71.3062L256.967 72.4831C256.873 70.0107 256.74 67.7011 256.57 65.5544C256.399 63.4076 256.165 61.1061 255.867 58.6499L270.672 57.473L270.947 60.9218L260.638 61.7412L260.784 63.5704C261.394 63.5346 262.297 63.4693 263.491 63.3744C265.511 63.2138 267.597 63.0096 269.751 62.7618L270.011 66.039C267.846 66.1345 265.753 66.2625 263.733 66.423C262.539 66.5179 261.638 66.596 261.029 66.6572L261.187 68.6388ZM273.837 69.4931C274.217 68.811 274.525 68.1793 274.76 67.5982C275.007 67.0161 275.235 66.346 275.444 65.588C276.387 66.0372 277.467 66.3603 278.684 66.5576C279.902 66.7548 281.025 66.8126 282.054 66.7308C283.108 66.647 283.844 66.499 284.262 66.2868C284.679 66.0619 284.878 65.8415 284.861 65.6256C284.8 64.8507 283.587 64.5572 281.225 64.745C278.633 64.951 276.732 64.8337 275.521 64.3931C274.309 63.9397 273.655 63.1097 273.559 61.903C273.423 60.1881 274.034 58.8676 275.392 57.9416C276.75 57.0155 278.566 56.4621 280.84 56.2814C282.161 56.1764 283.527 56.2403 284.939 56.4732C286.362 56.6924 287.656 57.0498 288.821 57.5452C288.519 58.4129 288.213 59.4662 287.902 60.7053C287.846 60.9654 287.798 61.161 287.757 61.2921C287.068 60.8228 286.055 60.4686 284.72 60.2296C283.383 59.978 282.213 59.892 281.21 59.9718C280.003 60.0677 279.196 60.2149 278.79 60.4134C278.383 60.5991 278.192 60.8444 278.216 61.1493C278.24 61.4541 278.546 61.6791 279.133 61.8242C279.731 61.9556 280.577 61.9779 281.669 61.8911C284.362 61.677 286.343 61.8327 287.612 62.3582C288.88 62.871 289.564 63.7625 289.665 65.0328C289.807 66.8112 289.261 68.1456 288.028 69.0362C286.794 69.914 284.862 70.4575 282.232 70.6665C280.822 70.7786 279.375 70.7402 277.89 70.5515C276.404 70.3501 275.053 69.9973 273.837 69.4931Z" fill="#F3EBE2"/>
</svg>
