<svg width="28" height="28" viewBox="0 0 28 28" fill="none" xmlns="http://www.w3.org/2000/svg">
<path fill-rule="evenodd" clip-rule="evenodd" d="M5.29451 0.554199C3.97993 0.554199 2.7192 1.07641 1.78965 2.00596C0.860104 2.9355 0.337891 4.19624 0.337891 5.51082V22.859C0.337891 24.1736 0.860104 25.4343 1.78965 26.3638C2.7192 27.2934 3.97993 27.8156 5.29451 27.8156H22.6427C23.9572 27.8156 25.218 27.2934 26.1475 26.3638C27.0771 25.4343 27.5993 24.1736 27.5993 22.859V5.51082C27.5993 4.19624 27.0771 2.9355 26.1475 2.00596C25.218 1.07641 23.9572 0.554199 22.6427 0.554199H5.29451ZM14.3899 4.89124H17.3478C17.3478 6.87389 19.0231 9.11675 21.5733 9.11675V12.0734C19.8174 11.9519 18.3168 11.6645 17.3478 10.8057V18.4092C17.3478 20.5219 15.6774 23.4786 11.8571 23.4786C7.19041 23.4786 6.36514 19.253 6.36514 17.9866C6.36514 16.7202 7.10863 12.4947 12.2784 12.4947V15.4525C10.9265 15.1663 9.32176 16.2964 9.32176 17.9866C9.32176 20.0994 10.5894 20.5219 11.8571 20.5219C13.1235 20.5219 14.3911 19.2543 14.3911 17.9866L14.3899 4.89124Z" fill="#F3EBE2"/>
</svg>
