<svg width="13" height="12" viewBox="0 0 13 12" fill="none" xmlns="http://www.w3.org/2000/svg">
<path d="M8.4498 7.33945L8.14331 7.64419C8.14331 7.64419 7.41476 8.36862 5.42616 6.39124C3.43756 4.41396 4.1661 3.68958 4.1661 3.68958L4.35908 3.49763C4.8346 3.02484 4.87941 2.2658 4.46456 1.71164L3.61596 0.578121C3.10253 -0.107735 2.11034 -0.198328 1.52183 0.386841L0.46557 1.43713C0.173759 1.72729 -0.0217946 2.10341 0.00194787 2.52063C0.0626174 3.58812 0.545553 5.88487 3.24056 8.56453C6.09841 11.4062 8.77998 11.5191 9.87656 11.4169C10.2234 11.3846 10.525 11.2079 10.7681 10.9662L11.7241 10.0157C12.3694 9.37405 12.1875 8.27401 11.3618 7.82522L10.0761 7.12628C9.53397 6.83158 8.87351 6.91811 8.4498 7.33945Z" fill="white"/>
</svg>
