<svg width="30" height="24" viewBox="0 0 30 24" fill="none" xmlns="http://www.w3.org/2000/svg">
<path d="M8.13286 0H21.8671C22.206 2.296 24.2185 4 26.5909 4C27.0439 4 27.4945 3.93695 27.9293 3.81275C27.678 6.19181 25.6279 8 23.1818 8H6.81818C4.37212 8 2.322 6.19181 2.07071 3.81276C2.50549 3.93695 2.95613 4 3.40909 4C5.78161 4 7.79393 2.296 8.13286 0ZM29.9708 10.8152C29.3757 11.1455 28.6876 11.334 27.9545 11.334C26.4404 11.334 25.1183 10.5296 24.4109 9.334H5.58907C4.88174 10.5296 3.55966 11.334 2.04545 11.334C1.31232 11.334 0.624246 11.1455 0.0291546 10.8152C0.00988642 10.9855 0 11.1587 0 11.334C0 13.1956 1.11481 14.8025 2.72727 15.5516V24H10.9091V21.3333C10.9091 19.1241 12.7407 17.3333 15 17.3333C17.2594 17.3333 19.0909 19.1241 19.0909 21.3333V24H27.2727V15.5516C28.8852 14.8025 30 13.1956 30 11.334C30 11.1587 29.99 10.9855 29.9708 10.8152Z" fill="#2473A6"/>
</svg>
