<svg width="28" height="28" viewBox="0 0 28 28" fill="none" xmlns="http://www.w3.org/2000/svg">
<path fill-rule="evenodd" clip-rule="evenodd" d="M6.51653 0.554199C3.29027 0.554199 0.674805 3.16966 0.674805 6.39593V21.9739C0.674805 25.2001 3.29027 27.8156 6.51653 27.8156H22.0947C25.3207 27.8156 27.9362 25.2001 27.9362 21.9739V6.39593C27.9362 3.16966 25.3207 0.554199 22.0947 0.554199H6.51653ZM23.7761 6.40447C23.7761 7.33378 23.0228 8.08705 22.0935 8.08705C21.1642 8.08705 20.4107 7.33378 20.4107 6.40447C20.4107 5.47496 21.1642 4.7217 22.0935 4.7217C23.0228 4.7217 23.7761 5.47496 23.7761 6.40447ZM14.3059 9.51807C11.7284 9.51807 9.63908 11.6074 9.63908 14.1847C9.63908 16.762 11.7284 18.8515 14.3059 18.8515C16.8834 18.8515 18.9725 16.762 18.9725 14.1847C18.9725 11.6074 16.8832 9.51807 14.3059 9.51807ZM7.39557 14.1847C7.39557 10.3683 10.4893 7.27437 14.3059 7.27437C18.1225 7.27437 21.216 10.3683 21.216 14.1847C21.216 18.0011 18.1223 21.095 14.3059 21.095C10.4895 21.095 7.39557 18.0011 7.39557 14.1847Z" fill="#F3EBE2"/>
</svg>
