<svg width="15" height="20" viewBox="0 0 15 20" fill="none" xmlns="http://www.w3.org/2000/svg">
<path d="M7.08333 0C3.17291 0 0 2.87993 0 6.42857C0 12.1429 7.08333 20 7.08333 20C7.08333 20 14.1667 12.1429 14.1667 6.42857C14.1667 2.87993 10.9938 0 7.08333 0ZM7.08333 10C6.52295 10 5.97517 9.83244 5.50923 9.5185C5.04329 9.20459 4.68014 8.75829 4.46566 8.23622C4.25122 7.71416 4.19506 7.13967 4.30443 6.58542C4.41376 6.03121 4.68364 5.52215 5.07985 5.12253C5.47613 4.723 5.98095 4.45085 6.53054 4.34065C7.08017 4.23036 7.64987 4.28695 8.16759 4.50319C8.68531 4.71947 9.12785 5.08567 9.43913 5.55553C9.75051 6.02538 9.91667 6.57776 9.91667 7.14286C9.91582 7.90038 9.6171 8.62662 9.08589 9.16224C8.55473 9.69792 7.83455 9.99915 7.08333 10Z" fill="#2473A6"/>
</svg>
