<svg width="28" height="28" viewBox="0 0 28 28" fill="none" xmlns="http://www.w3.org/2000/svg">
<path fill-rule="evenodd" clip-rule="evenodd" d="M4.95662 0.554199C3.64204 0.554199 2.38131 1.07641 1.45176 2.00596C0.522214 2.9355 0 4.19624 0 5.51082V22.859C0 24.1736 0.522214 25.4343 1.45176 26.3638C2.38131 27.2934 3.64204 27.8156 4.95662 27.8156H22.3048C23.6194 27.8156 24.8801 27.2934 25.8096 26.3638C26.7392 25.4343 27.2614 24.1736 27.2614 22.859V5.51082C27.2614 4.19624 26.7392 2.9355 25.8096 2.00596C24.8801 1.07641 23.6194 0.554199 22.3048 0.554199H4.95662ZM13.5365 3.98294C11.1375 3.98294 8.92191 4.86893 7.3234 6.73386C5.73728 8.5864 4.85377 11.2853 4.85377 14.7549C4.85377 18.3038 6.08425 20.7648 7.95165 22.3199C9.78188 23.8441 12.0941 24.3869 14.1065 24.3869C18.1734 24.3869 21.4869 21.8838 21.6468 18.2853C21.7273 16.4786 20.9281 14.9767 19.6009 13.9643C19.237 13.6883 18.8449 13.4515 18.4312 13.258C18.427 13.1807 18.422 13.1035 18.4163 13.0263C18.2738 11.1366 17.4659 9.94699 16.4461 9.26917C15.7069 8.79072 14.8458 8.5348 13.9653 8.53187C12.5477 8.53187 11.3098 9.12047 10.311 10.2667C10.2175 10.3741 10.1461 10.4989 10.1008 10.6339C10.0556 10.7689 10.0373 10.9115 10.0472 11.0535C10.057 11.1955 10.0947 11.3343 10.1582 11.4617C10.2216 11.5892 10.3095 11.7029 10.417 11.7964C10.5244 11.8899 10.6491 11.9613 10.7841 12.0066C10.9191 12.0519 11.0617 12.0701 11.2038 12.0603C11.3458 12.0504 11.4845 12.0127 11.612 11.9493C11.7395 11.8858 11.8532 11.7979 11.9467 11.6905C12.5663 10.9792 13.223 10.7004 13.9665 10.7004C14.2304 10.7004 14.7744 10.7624 15.2466 11.0759C15.5898 11.3039 15.9876 11.7227 16.1697 12.5839C15.6546 12.5055 15.1343 12.4666 14.6133 12.4674C12.767 12.4674 11.4696 12.9371 10.6642 13.7995C9.86119 14.6583 9.74471 15.6967 9.7856 16.398C9.81247 16.8565 9.9356 17.3043 10.147 17.712C10.3583 18.1198 10.6532 18.4785 11.0124 18.7648C11.7868 19.3893 12.8463 19.6917 14.1065 19.5988C15.4746 19.4984 16.6679 18.802 17.4522 17.6112C17.8215 17.0511 18.0904 16.3968 18.2552 15.6657L18.285 15.688C19.0929 16.3051 19.5278 17.1465 19.4807 18.1886C19.3878 20.289 17.3866 22.2183 14.1065 22.2183C12.4448 22.2183 10.6741 21.7648 9.33827 20.6533C8.03963 19.5715 7.02229 17.7599 7.02229 14.7549C7.02229 11.636 7.81659 9.49222 8.97024 8.14526C10.1103 6.81565 11.6939 6.15146 13.5365 6.15146C15.4907 6.15146 17.0396 6.61986 18.1487 7.4154C19.2416 8.19854 19.9826 9.35219 20.2565 10.8925C20.3069 11.1756 20.4678 11.4271 20.7036 11.5916C20.9395 11.7561 21.2311 11.8202 21.5142 11.7698C21.7973 11.7193 22.0488 11.5585 22.2133 11.3226C22.3779 11.0867 22.442 10.7952 22.3915 10.512C22.0235 8.45009 20.9913 6.78591 19.4126 5.65332C17.8488 4.53188 15.824 3.98294 13.5365 3.98294ZM14.6133 14.6359C15.1883 14.6359 15.7236 14.6917 16.2119 14.7946C16.1102 15.486 15.9021 16.0238 15.6418 16.4179C15.2218 17.0548 14.6344 17.3856 13.9467 17.4364C13.1214 17.4972 12.6369 17.2902 12.3717 17.0771C12.2486 16.9802 12.1474 16.8583 12.0747 16.7195C12.0021 16.5807 11.9598 16.428 11.9504 16.2716C11.9281 15.8949 12.0037 15.5418 12.249 15.2803C12.4919 15.0201 13.0991 14.6359 14.6133 14.6359Z" fill="#F3EBE2"/>
</svg>
