<svg width="21" height="20" viewBox="0 0 21 20" fill="none" xmlns="http://www.w3.org/2000/svg">
<path fill-rule="evenodd" clip-rule="evenodd" d="M20.647 10C20.647 15.5228 16.1698 20 10.647 20C5.1241 20 0.646973 15.5228 0.646973 10C0.646973 4.47713 5.1241 0 10.647 0C16.1698 0 20.647 4.47713 20.647 10ZM13.647 7C13.647 8.65689 12.3039 10 10.647 10C8.99008 10 7.64697 8.65689 7.64697 7C7.64697 5.34311 8.99008 4 10.647 4C12.3039 4 13.647 5.34311 13.647 7ZM10.647 18.5C12.431 18.5 14.0867 17.9504 15.4539 17.0112C16.0578 16.5964 16.3158 15.8062 15.9647 15.1632C15.2369 13.8303 13.7372 13 10.6469 13C7.55667 13 6.05692 13.8302 5.32912 15.1632C4.97801 15.8062 5.23609 16.5963 5.83991 17.0111C7.20718 17.9503 8.86287 18.5 10.647 18.5Z" fill="#F3EBE2"/>
</svg>
