<svg width="31" height="30" viewBox="0 0 31 30" fill="none" xmlns="http://www.w3.org/2000/svg">
<path fill-rule="evenodd" clip-rule="evenodd" d="M7.07164 0C3.52127 0 0.643066 2.87821 0.643066 6.42857V23.5714C0.643066 27.1218 3.52127 30 7.07164 30H24.2147C27.7649 30 30.6431 27.1218 30.6431 23.5714V6.42857C30.6431 2.87821 27.7649 0 24.2147 0H7.07164ZM26.065 6.43797C26.065 7.46064 25.2361 8.28958 24.2134 8.28958C23.1907 8.28958 22.3616 7.46064 22.3616 6.43797C22.3616 5.41509 23.1907 4.58615 24.2134 4.58615C25.2361 4.58615 26.065 5.41509 26.065 6.43797ZM15.6435 9.86436C12.8071 9.86436 10.5079 12.1636 10.5079 14.9998C10.5079 17.836 12.8071 20.1354 15.6435 20.1354C18.4799 20.1354 20.7789 17.836 20.7789 14.9998C20.7789 12.1636 18.4797 9.86436 15.6435 9.86436ZM8.03898 14.9998C8.03898 10.8 11.4435 7.39526 15.6435 7.39526C19.8435 7.39526 23.2478 10.8 23.2478 14.9998C23.2478 19.1996 19.8433 22.6043 15.6435 22.6043C11.4437 22.6043 8.03898 19.1996 8.03898 14.9998Z" fill="#F3EBE2"/>
</svg>
