<svg width="106" height="112" viewBox="0 0 106 112" fill="none" xmlns="http://www.w3.org/2000/svg">
<g clip-path="url(#clip0_115_22443)">
<path d="M34.7608 98.7773H32.0857C32.0857 98.0167 32.1123 97.7296 32.2559 97.586C32.3995 97.4158 32.692 97.3945 33.2823 97.3945H34.7289C34.9682 97.3945 35.9947 97.4211 36.2127 97.32C36.367 97.2349 36.3457 96.7669 36.3457 96.6446C36.3457 96.017 35.4416 95.799 34.947 95.7033C33.6706 95.4373 31.8836 95.3629 31.8623 93.6185C31.8251 92.2091 32.8249 91.3369 35.0001 91.3369H37.6859C37.6859 92.6133 37.6114 92.6984 36.5159 92.6984H34.947C34.7555 92.6984 33.7769 92.6771 33.5961 92.7835C33.4259 92.8792 33.4738 93.4323 33.4738 93.5547C33.4738 93.7833 33.644 93.9908 34.1013 94.1344C35.5213 94.5811 37.9465 94.4375 37.9465 96.5223C37.9465 97.6285 37.1753 98.7773 34.7661 98.7773" fill="white"/>
<path d="M49.615 97.5381C49.615 97.8146 49.615 98.0221 49.6044 98.1763C49.5459 98.5752 49.3279 98.7081 48.929 98.756C48.7375 98.7666 48.4929 98.7666 48.1578 98.7666H46.2911C43.9404 98.7666 42.9512 97.8146 42.9512 95.4267V91.3369C43.2543 91.3369 44.0946 91.2997 44.3712 91.4805C44.552 91.6135 44.5999 91.8794 44.5999 92.3953V95.3629C44.5999 96.7882 44.9136 97.3626 46.2858 97.3626H47.9717V91.3316C48.2855 91.3316 49.1045 91.2837 49.397 91.5018C49.5884 91.6454 49.6363 91.9007 49.6363 92.4644V97.5275H49.615V97.5381Z" fill="white"/>
<path d="M57.5606 98.7773H54.8855C54.8855 98.0167 54.9121 97.7296 55.0557 97.586C55.1993 97.4158 55.4918 97.3945 56.0821 97.3945H57.5287C57.768 97.3945 58.7945 97.4211 59.0125 97.32C59.1668 97.2349 59.1455 96.7669 59.1455 96.6446C59.1455 96.017 58.2414 95.799 57.7468 95.7033C56.4704 95.4373 54.6834 95.3629 54.6621 93.6185C54.6249 92.2091 55.6248 91.3369 57.8 91.3369H60.4857C60.4857 92.6133 60.4113 92.6984 59.3157 92.6984H57.7468C57.5553 92.6984 56.5767 92.6771 56.3959 92.7835C56.2257 92.8792 56.2736 93.4323 56.2736 93.5547C56.2736 93.7833 56.4438 93.9908 56.9012 94.1344C58.3211 94.5811 60.7463 94.4375 60.7463 96.5223C60.7463 97.6285 59.9751 98.7773 57.5659 98.7773" fill="white"/>
<path d="M71.4998 98.7509C70.75 98.6764 70.7978 98.235 70.7978 97.5915V95.6503H67.527V98.7615C65.9954 98.7615 65.873 98.7137 65.873 97.5915V91.3584C67.3941 91.3584 67.5111 91.3956 67.5111 92.5178V94.326H70.7766V91.3584C72.3082 91.3584 72.4412 91.3956 72.4412 92.5178V98.7615C71.92 98.7615 71.67 98.7615 71.4892 98.7509" fill="white"/>
<path d="M77.9814 97.6235V91.3638C79.5025 91.3638 79.6301 91.401 79.6301 92.4594V98.7669C78.1144 98.7669 77.9814 98.719 77.9814 97.6235Z" fill="white"/>
<path d="M42.7643 107.866H45.5511V108.6C45.4766 109.18 45.0565 109.153 44.5034 109.153H41.791C41.791 107.983 41.8282 107.861 42.7696 107.861" fill="white"/>
<path d="M54.0015 108.372H52.4486V110.169H53.9803C55.379 110.169 55.4162 110.196 55.4162 109.238C55.4162 108.489 54.7993 108.372 54.0069 108.372M55.2354 106.26C55.2354 105.792 55.0918 105.415 53.9324 105.415H52.4486V107.079H54.0015C55.2088 107.079 55.2194 107.116 55.2194 106.26H55.2301H55.2354ZM53.9324 111.493H52.1986C51.018 111.493 50.8105 111.493 50.8105 110.323V105.26C50.8105 104.016 51.0871 104.08 52.1986 104.08H53.9005C56.0012 104.08 56.8415 104.909 56.8415 106.106C56.8415 106.771 56.5756 107.382 55.9002 107.563C56.682 107.818 57.0809 108.505 57.0809 109.249C57.0809 110.44 56.2831 111.493 53.9324 111.493Z" fill="white"/>
<path d="M65.1914 105.462L63.9629 108.871H66.4359L65.1967 105.462H65.1914ZM68.0952 111.466C67.3826 111.419 67.2975 111.179 67.0794 110.621L66.8773 110.105H63.5002L63.3194 110.621C62.995 111.477 62.979 111.477 61.2559 111.477L63.8246 104.967C64.149 104.101 64.2235 104.053 65.1861 104.053H66.1487L69.127 111.477C68.5367 111.477 68.2707 111.477 68.0899 111.466" fill="white"/>
<path d="M79.1412 111.483C78.285 111.472 78.0457 111.339 77.4872 110.664L75.812 108.59C75.5088 108.217 75.546 107.505 76.2481 107.505H76.7054C77.5032 107.505 77.8967 107.531 78.0935 107.382C78.2743 107.26 78.2371 106.622 78.2371 106.441C78.2371 105.984 78.0935 105.404 76.6842 105.404H75.4503V111.483C75.1259 111.483 74.3069 111.541 74.0303 111.329C73.8495 111.185 73.8123 110.892 73.8123 110.318V105.255C73.8123 104.665 73.7272 104.17 74.5143 104.096C74.6951 104.085 74.9344 104.085 75.2642 104.085H76.6257C79.5295 104.085 79.8911 105.457 79.8911 106.446C79.8911 108.148 78.8806 108.749 77.7319 108.749L80.407 111.488H79.1412V111.483Z" fill="white"/>
<path d="M2.70171 11.477C2.70171 16.2954 6.62664 20.2203 11.4451 20.2203H24.6824V14.1202H11.4451C9.98783 14.1202 8.80184 12.9342 8.80184 11.477V6.10013H18.4918V7.90304H24.6824V0H0V6.10013H2.70171V11.477Z" fill="white"/>
<path d="M46.46 10.1687H33.9566V6.10013H46.46V10.1687ZM27.8618 20.2203H33.9513V16.2635H46.4547V20.2203H52.5388V0H27.8564V20.2203H27.8618Z" fill="white"/>
<path d="M18.5982 61.1021H6.08949V57.0336H18.5929V61.1021H18.5982ZM0 71.1537H6.08949V67.1969H18.5929V71.1537H24.6771V50.9175H0V71.1537Z" fill="white"/>
<path d="M74.3233 61.1021H61.8199V57.0336H74.3233V61.1021ZM55.725 71.1537H61.8145V67.1969H74.3179V71.1537H80.4021V50.9175H55.7197V71.1537H55.725Z" fill="white"/>
<path d="M9.31772 45.663H15.4178V31.5588H24.6824V25.4746H0V31.5588H9.31772V45.663Z" fill="white"/>
<path d="M46.4455 39.5846H33.9687V31.5486H46.4455V39.5846ZM27.8633 45.6581H52.5457V25.4697H27.8633V45.6581Z" fill="white"/>
<path d="M44.9017 50.9126H27.8618V61.5439H33.9034V56.9968H44.8964C45.7473 56.9968 46.4387 57.6882 46.4387 58.5391V63.4745C46.4387 64.3254 45.7473 65.0168 44.8964 65.0168H27.8564V71.1435H44.8964C49.1085 71.1435 52.5388 67.7132 52.5388 63.5011V58.555C52.5388 54.3429 49.1085 50.9126 44.8964 50.9126" fill="white"/>
<path d="M55.7246 25.4751H61.8247V27.2036C63.6649 26.1186 65.8029 25.4804 68.0897 25.4804H80.407V45.6635H74.2537V31.5805H68.0897C64.6328 31.5805 61.8247 34.3939 61.8247 37.8455V45.6635H55.7246V25.4751Z" fill="white"/>
<path d="M55.7246 0.0107422H61.8247V1.74984C63.6649 0.659579 65.8029 0.0266972 68.0897 0.0266972H80.407V20.2204H74.2537V6.12682H68.0897C64.6328 6.12682 61.8247 8.94022 61.8247 12.3918V20.2257H55.7246V0.0107422Z" fill="white"/>
<path d="M93.0165 67.394C93.0165 65.9102 92.4421 64.5753 91.5327 63.5382L89.7191 65.8145L87.879 63.501C86.9483 64.5434 86.3633 65.8995 86.3633 67.394C86.3633 69.6809 87.6929 71.6433 89.6128 72.6326C89.6606 72.6538 89.7191 72.6538 89.7617 72.6326C91.6869 71.6487 93.0112 69.6862 93.0112 67.394" fill="#E52421"/>
<path d="M98.0475 75.93C99.4515 75.4619 100.542 74.4993 101.244 73.308L98.5102 72.3029L100.127 69.8245C98.8453 69.2661 97.3774 69.1384 95.9521 69.6118C93.7822 70.3298 92.3356 72.2071 92.0059 74.3451C92.0006 74.3983 92.0165 74.4515 92.0537 74.4887C93.5961 76.0044 95.8776 76.6479 98.0475 75.93Z" fill="#E52421"/>
<path d="M91.5221 83.387C92.405 84.5783 93.6654 85.3069 95.0163 85.5994L95.112 82.6903L97.9733 83.4508C98.0956 82.0574 97.7605 80.6214 96.8617 79.4195C95.4949 77.5847 93.2612 76.8029 91.1286 77.1592C91.0754 77.1698 91.0328 77.2017 91.0062 77.2496C90.0489 79.1908 90.1553 81.5575 91.5221 83.3923" fill="#E52421"/>
<path d="M82.3911 79.5359C81.5402 80.7485 81.2423 82.1738 81.3912 83.5459L84.1834 82.7216L84.3642 85.6733C85.7257 85.3542 86.9808 84.583 87.8424 83.3545C89.156 81.4824 89.1932 79.1104 88.1881 77.2012C88.1615 77.1533 88.1136 77.1214 88.0658 77.1161C85.9225 76.8182 83.71 77.6638 82.3964 79.5359" fill="#E52421"/>
<path d="M83.1788 69.6601C81.7588 69.2346 80.3122 69.3942 79.057 69.9739L80.7164 72.3671L77.9668 73.468C78.7007 74.6593 79.8282 75.6113 81.2642 76.0421C83.4553 76.7016 85.7156 75.9943 87.2154 74.436C87.2526 74.3988 87.2686 74.3402 87.2579 74.2924C86.8697 72.1651 85.3699 70.3302 83.1788 69.6708" fill="#E52421"/>
<path d="M89.6082 61.2513C82.2529 61.2513 76.2698 67.2344 76.2698 74.5896C76.2698 81.9449 82.2529 87.928 89.6082 87.928C96.9635 87.928 102.947 81.9449 102.947 74.5896C102.947 67.2344 96.9635 61.2513 89.6082 61.2513ZM89.6082 90.1139C81.0457 90.1139 74.084 83.1522 74.084 74.5896C74.084 66.0271 81.0457 59.0654 89.6082 59.0654C98.1707 59.0654 105.132 66.0271 105.132 74.5896C105.132 83.1522 98.1707 90.1139 89.6082 90.1139Z" fill="#E52421"/>
<path d="M83.0183 67.9262C82.6407 67.4794 82.6992 66.8146 83.1406 66.4423C83.582 66.0701 84.2521 66.1232 84.6244 66.5647C84.9967 67.0061 84.9435 67.6762 84.5021 68.0485C84.0553 68.4261 83.3905 68.3676 83.0183 67.9262Z" fill="#E52421"/>
<path d="M94.569 66.5381C94.92 66.0701 95.5795 65.9797 96.0475 66.3307C96.5155 66.6817 96.6059 67.3412 96.2549 67.8092C95.9039 68.2719 95.2444 68.3676 94.7764 68.0166C94.3084 67.6656 94.218 67.0061 94.569 66.5381Z" fill="#E52421"/>
<path d="M90.645 83.663C90.7461 84.2374 90.3631 84.7852 89.7888 84.8862C89.2144 84.9873 88.6666 84.6043 88.5709 84.03C88.4698 83.4556 88.8527 82.9078 89.4271 82.8121C90.0015 82.711 90.5493 83.0939 90.645 83.6683" fill="#E52421"/>
<path d="M81.2531 79.0307C80.7159 79.2541 80.099 79.0041 79.8756 78.467C79.6523 77.9298 79.9022 77.3129 80.4394 77.0895C80.9765 76.8661 81.5935 77.1161 81.8168 77.6532C82.0402 78.1904 81.7902 78.8073 81.2531 79.0307Z" fill="#E52421"/>
<path d="M98.4044 79.0307C97.8673 79.2541 97.2504 79.0041 97.027 78.467C96.8036 77.9298 97.0536 77.3129 97.5907 77.0895C98.1279 76.8661 98.7448 77.1161 98.9682 77.6532C99.1916 78.1904 98.9416 78.8073 98.4044 79.0307Z" fill="#E52421"/>
</g>
<defs>
<clipPath id="clip0_115_22443">
<rect width="105.127" height="111.494" fill="white"/>
</clipPath>
</defs>
</svg>
