<svg width="84" height="108" viewBox="0 0 84 108" fill="none" xmlns="http://www.w3.org/2000/svg">
<g clip-path="url(#clip0_115_13917)">
<path d="M70.2468 79.3094H4.90094C2.19697 79.3094 0 77.1326 0 74.4356V4.87381C0 2.18481 2.19697 0 4.90094 0H70.2548C72.9588 0 75.1558 2.18481 75.1558 4.87381V74.4356C75.1558 77.1246 72.9588 79.3094 70.2548 79.3094" fill="white"/>
<path d="M10.7598 22.5203C10.7598 25.9456 13.5603 28.7386 17.0127 28.7386H26.4766V24.401H17.0127C15.9665 24.401 15.1215 23.5607 15.1215 22.5203V18.6949H22.0504V19.9754H26.4766V14.3573H8.82031V18.6949H10.7517V22.5203H10.7598Z" fill="#131313"/>
<path d="M42.0484 21.584H33.1076V18.6869H42.0484V21.584ZM28.7539 28.7306H33.1076V25.9216H42.0484V28.7306H46.4021V14.3493H28.7539V28.7306Z" fill="#131313"/>
<path d="M22.1229 57.8054H13.1821V54.9083H22.1229V57.8054ZM8.82836 64.9521H13.1821V62.143H22.1229V64.9521H26.4766V50.5627H8.82031V64.9521H8.82836Z" fill="#131313"/>
<path d="M61.9742 57.8054H53.0334V54.9083H61.9742V57.8054ZM48.6797 64.9521H53.0334V62.143H61.9742V64.9521H66.3279V50.5627H48.6797V64.9521Z" fill="#131313"/>
<path d="M15.4837 46.8253H19.8454V36.7976H26.4685V32.468H8.82031V36.7976H15.4837V46.8253Z" fill="#131313"/>
<path d="M42.0321 42.5037H33.1074V36.7896H42.0321V42.5037ZM28.7456 46.8253H46.3938V32.468H28.7456V46.8253Z" fill="#131313"/>
<path d="M40.9295 50.5627H28.7456V58.1255H33.0671V54.8923H40.9295C41.5412 54.8923 42.0321 55.3805 42.0321 55.9887V59.494C42.0321 60.1023 41.5412 60.5904 40.9295 60.5904H28.7456V64.9521H40.9295C43.9393 64.9521 46.3938 62.5112 46.3938 59.518V55.9967C46.3938 53.0036 43.9393 50.5627 40.9295 50.5627Z" fill="#131313"/>
<path d="M48.6714 32.468H53.0331V33.6925C54.3529 32.9162 55.8739 32.468 57.5156 32.468H66.3196V46.8173H61.9176V36.7976H57.5156C55.045 36.7976 53.0331 38.7984 53.0331 41.2553V46.8173H48.6714V32.46V32.468Z" fill="#131313"/>
<path d="M48.6714 14.3653H53.0331V15.6058C54.3529 14.8295 55.8739 14.3813 57.5156 14.3813H66.3196V28.7467H61.9176V18.7189H57.5156C55.045 18.7189 53.0331 20.7197 53.0331 23.1766V28.7467H48.6714V14.3733V14.3653Z" fill="#131313"/>
<path d="M33.4375 98.9567H31.5221C31.5221 98.4125 31.5382 98.2124 31.6429 98.1083C31.7475 97.9883 31.9567 97.9723 32.3752 97.9723H33.4133C33.5823 97.9723 34.3146 97.9883 34.4756 97.9243C34.5883 97.8682 34.5722 97.5321 34.5722 97.4441C34.5722 96.9959 33.9284 96.8439 33.5743 96.7718C32.6568 96.5798 31.3853 96.5318 31.3692 95.2913C31.3451 94.2909 32.0613 93.6747 33.6065 93.6747H35.5298C35.5298 94.587 35.4815 94.6431 34.6929 94.6431H33.5743C33.4375 94.6431 32.7373 94.627 32.6086 94.6991C32.4878 94.7711 32.52 95.1632 32.52 95.2513C32.52 95.4113 32.6408 95.5634 32.9707 95.6594C33.9927 95.9795 35.7229 95.8755 35.7229 97.3561C35.7229 98.1484 35.1677 98.9567 33.4455 98.9567" fill="white"/>
<path d="M44.0603 98.0683C44.0603 98.2684 44.0603 98.4125 44.0522 98.5245C44.012 98.8046 43.851 98.9006 43.5694 98.9327C43.4326 98.9407 43.2555 98.9406 43.0141 98.9406H41.6782C39.9963 98.9406 39.2881 98.2604 39.2881 96.5638V93.6587C39.5054 93.6587 40.1089 93.6347 40.3021 93.7627C40.4308 93.8588 40.463 94.0428 40.463 94.411V96.5238C40.463 97.5321 40.6884 97.9483 41.6702 97.9483H42.8773V93.6587C43.1026 93.6587 43.6901 93.6267 43.8913 93.7787C44.0281 93.8828 44.0603 94.0588 44.0603 94.467V98.0683Z" fill="white"/>
<path d="M49.7417 98.9567H47.8263C47.8263 98.4125 47.8424 98.2124 47.9471 98.1083C48.0517 97.9883 48.2609 97.9723 48.6794 97.9723H49.7175C49.8865 97.9723 50.6188 97.9883 50.7798 97.9243C50.8924 97.8682 50.8764 97.5321 50.8764 97.4441C50.8764 96.9959 50.2326 96.8439 49.8785 96.7718C48.961 96.5798 47.6895 96.5318 47.6734 95.2913C47.6493 94.2909 48.3655 93.6747 49.9107 93.6747H51.834C51.834 94.587 51.7857 94.6431 50.9971 94.6431H49.8785C49.7417 94.6431 49.0415 94.627 48.9128 94.6991C48.792 94.7711 48.8242 95.1632 48.8242 95.2513C48.8242 95.4113 48.9449 95.5634 49.2749 95.6594C50.2969 95.9795 52.0271 95.8755 52.0271 97.3561C52.0271 98.1484 51.4719 98.9567 49.7497 98.9567" fill="white"/>
<path d="M59.7125 98.9407C59.1733 98.8926 59.2135 98.5725 59.2135 98.1164V96.7398H56.8798V98.9487C55.7853 98.9487 55.6968 98.9166 55.6968 98.1164V93.6827C56.7832 93.6827 56.8717 93.7067 56.8717 94.507V95.7955H59.2055V93.6907C60.3 93.6907 60.3965 93.7147 60.3965 94.515V98.9567C60.0263 98.9567 59.8412 98.9567 59.7125 98.9487" fill="white"/>
<path d="M64.3481 98.1324V93.6827C65.4346 93.6827 65.5311 93.7067 65.5311 94.459V98.9407C64.4447 98.9407 64.3481 98.9086 64.3481 98.1244" fill="white"/>
<path d="M39.1674 105.415H41.1552V105.935C41.0988 106.343 40.8011 106.327 40.4067 106.327H38.4673C38.4673 105.495 38.4914 105.407 39.1674 105.407" fill="white"/>
<path d="M47.1988 105.775H46.0883V107.056H47.1827C48.1806 107.056 48.2128 107.072 48.2128 106.391C48.2128 105.863 47.7702 105.775 47.2069 105.775M48.0841 104.271C48.0841 103.934 47.9794 103.67 47.1505 103.67H46.0883V104.855H47.1988C48.0599 104.855 48.068 104.879 48.068 104.271H48.076H48.0841ZM47.1505 107.992H45.9112C45.0662 107.992 44.9214 107.992 44.9214 107.16V103.558C44.9214 102.678 45.1226 102.718 45.9112 102.718H47.1264C48.6232 102.718 49.2268 103.31 49.2268 104.159C49.2268 104.631 49.0417 105.071 48.5508 105.199C49.1141 105.375 49.3958 105.863 49.3958 106.399C49.3958 107.248 48.8244 107.992 47.1425 107.992" fill="white"/>
<path d="M55.1977 103.71L54.3206 106.135H56.091L55.2058 103.71H55.1977ZM57.274 107.976C56.767 107.944 56.7026 107.768 56.5497 107.376L56.4049 107.008H53.9906L53.8619 107.376C53.6285 107.984 53.6204 107.984 52.3892 107.984L54.224 103.358C54.4574 102.742 54.5057 102.71 55.1977 102.71H55.8898L58.0224 107.992C57.604 107.992 57.4108 107.992 57.2821 107.984" fill="white"/>
<path d="M65.177 107.992C64.5654 107.984 64.3883 107.888 63.994 107.408L62.7949 105.935C62.5776 105.671 62.6018 105.167 63.1088 105.167H63.4387C64.0101 105.167 64.2918 105.183 64.4286 105.079C64.5573 104.991 64.5332 104.535 64.5332 104.407C64.5332 104.079 64.4286 103.67 63.4226 103.67H62.5454V107.992C62.3121 107.992 61.7246 108.032 61.5315 107.88C61.4027 107.776 61.3786 107.568 61.3786 107.16V103.558C61.3786 103.134 61.3222 102.79 61.8775 102.734C62.0063 102.726 62.1833 102.726 62.4086 102.726H63.3824C65.4587 102.726 65.7162 103.702 65.7162 104.407C65.7162 105.615 64.9919 106.047 64.171 106.047L66.0864 107.992H65.185H65.177Z" fill="white"/>
<path d="M75.3408 70.4341C75.3408 69.3777 74.9304 68.4333 74.2785 67.6891L72.9829 69.3057L71.6631 67.6571C70.9951 68.4013 70.5767 69.3617 70.5767 70.4261C70.5767 72.0507 71.5263 73.4512 72.9024 74.1475C72.9346 74.1635 72.9748 74.1635 73.007 74.1475C74.3831 73.4432 75.3327 72.0507 75.3327 70.4261" fill="#FF0000"/>
<path d="M78.9382 76.5003C79.9442 76.1722 80.7248 75.484 81.2237 74.6356L79.2682 73.9234L80.427 72.1627C79.5096 71.7626 78.4554 71.6745 77.4414 72.0107C75.8882 72.5229 74.8581 73.8594 74.6167 75.3799C74.6167 75.4199 74.6167 75.4599 74.6489 75.484C75.7514 76.5644 77.385 77.0205 78.9382 76.5083" fill="#FF0000"/>
<path d="M74.2706 81.8063C74.9063 82.6546 75.7996 83.1748 76.7653 83.3749L76.8377 81.3101L78.8818 81.8463C78.9703 80.8539 78.7289 79.8376 78.0931 78.9813C77.1194 77.6768 75.5179 77.1166 73.9889 77.3727C73.9487 77.3727 73.9165 77.4047 73.9004 77.4367C73.2163 78.8132 73.2888 80.5018 74.2706 81.8063Z" fill="#FF0000"/>
<path d="M67.7439 79.0693C67.1323 79.9336 66.9231 80.942 67.0277 81.9183L69.0235 81.3341L69.1523 83.4309C70.126 83.2068 71.0193 82.6546 71.6389 81.7823C72.5805 80.4538 72.6046 78.7652 71.8884 77.4047C71.8723 77.3727 71.8401 77.3486 71.7999 77.3406C70.2709 77.1326 68.6855 77.7328 67.7439 79.0613" fill="#FF0000"/>
<path d="M68.2992 72.0427C67.2853 71.7386 66.2471 71.8586 65.3539 72.2668L66.5368 73.9634L64.5732 74.7477C65.0963 75.596 65.9011 76.2682 66.9312 76.5804C68.5004 77.0445 70.118 76.5484 71.1883 75.4359C71.2124 75.4119 71.2285 75.3719 71.2205 75.3319C70.9388 73.8193 69.8685 72.5149 68.3073 72.0427" fill="#FF0000"/>
<path d="M72.9027 66.0645C67.6396 66.0645 63.3664 70.3221 63.3664 75.548C63.3664 80.7739 67.6477 85.0315 72.9027 85.0315C78.1577 85.0315 82.439 80.7739 82.439 75.548C82.439 70.3221 78.1577 66.0645 72.9027 66.0645ZM72.9027 86.5841C66.7785 86.5841 61.8052 81.6302 61.8052 75.548C61.8052 69.4657 66.7866 64.5119 72.9027 64.5119C79.0188 64.5119 84.0002 69.4657 84.0002 75.548C84.0002 81.6302 79.0188 86.5841 72.9027 86.5841Z" fill="#FF0000"/>
<path d="M68.1867 70.8102C67.9211 70.4981 67.9533 70.0179 68.2752 69.7538C68.589 69.4817 69.0719 69.5217 69.3375 69.8419C69.603 70.162 69.5708 70.6342 69.2489 70.8983C68.927 71.1624 68.4522 71.1303 68.1867 70.8102Z" fill="#FF0000"/>
<path d="M76.4515 69.8259C76.701 69.4977 77.1758 69.4257 77.5057 69.6818C77.8357 69.9299 77.9081 70.4021 77.6586 70.7302C77.4092 71.0583 76.9344 71.1303 76.6044 70.8742C76.2745 70.6262 76.202 70.154 76.4596 69.8259" fill="#FF0000"/>
<path d="M73.6428 81.9984C73.7152 82.4065 73.4416 82.7987 73.0311 82.8627C72.6207 82.9347 72.2344 82.6626 72.162 82.2545C72.0896 81.8463 72.3632 81.4542 72.7736 81.3821C73.184 81.3101 73.5703 81.5822 73.6428 81.9904" fill="#FF0000"/>
<path d="M66.9314 78.7091C66.5451 78.8692 66.1025 78.6931 65.9415 78.309C65.7806 77.9249 65.9657 77.4847 66.3439 77.3246C66.7302 77.1646 67.1728 77.3486 67.3338 77.7248C67.4947 78.1089 67.3096 78.5491 66.9314 78.7091Z" fill="#FF0000"/>
<path d="M79.1877 78.7091C78.8014 78.8692 78.3588 78.6931 78.1979 78.309C78.0369 77.9249 78.222 77.4847 78.6003 77.3246C78.9865 77.1646 79.4292 77.3486 79.5901 77.7248C79.7511 78.1089 79.566 78.5491 79.1877 78.7091Z" fill="#FF0000"/>
</g>
<defs>
<clipPath id="clip0_115_13917">
<rect width="84" height="108" fill="white"/>
</clipPath>
</defs>
</svg>
