<svg width="247" height="89" viewBox="0 0 247 89" fill="none" xmlns="http://www.w3.org/2000/svg">
<path d="M239.11 5.82968L239.462 5.80672C241.083 5.76695 242.54 6.18502 243.571 6.83239C244.693 7.53648 245.142 8.37889 245.129 9.09763L243.99 70.1745C243.978 70.7833 243.631 71.4742 242.791 72.0897C241.955 72.702 240.717 73.1599 239.236 73.2499L26.6755 81.7446L26.6676 81.786L11.1304 82.418L11.1298 82.418C8.48765 82.5268 6.10451 81.8458 4.43636 80.7572C2.75551 79.6603 1.95478 78.276 1.99001 76.9509C1.99002 76.9508 1.99002 76.9507 1.99002 76.9506L3.41249 23.9843L3.41254 23.9843L3.41276 23.9725C3.42405 23.367 3.76684 22.6803 4.59666 22.0663C5.425 21.4535 6.65322 20.9921 8.12622 20.8945L239.11 5.82968Z" fill="#2473A6" stroke="white" stroke-width="2.86711"/>
<path d="M59.2478 43.6267C59.3015 45.8813 59.4122 48.2925 59.58 50.8604C59.7485 53.4416 59.9528 55.8534 60.1928 58.0958L53.0481 58.5625L47.5066 47.9812L48.5776 58.8545L43.4485 59.1895C43.3864 56.6014 43.2819 54.1831 43.135 51.9345C42.989 49.6993 42.7785 47.2946 42.5035 44.7203L49.8478 44.2406L55.4288 55.12L54.3582 43.946L59.2478 43.6267ZM71.1593 57.58C68.1125 57.779 65.8275 57.2668 64.3046 56.0435C62.7807 54.8068 61.9406 52.9911 61.7842 50.5962C61.6295 48.2279 62.2205 46.332 63.5572 44.9085C64.9073 43.4842 67.1124 42.672 70.1725 42.4722C73.246 42.2714 75.538 42.7898 77.0485 44.0273C78.5723 45.264 79.4116 47.0664 79.5663 49.4347C79.7236 51.8429 79.1334 53.7521 77.7958 55.1623C76.4582 56.5725 74.2461 57.3784 71.1593 57.58ZM70.8934 53.5087C72.3702 53.4122 73.4164 53.0633 74.0318 52.4619C74.6464 51.8472 74.9146 50.9411 74.8364 49.7437C74.7599 48.5728 74.377 47.7226 73.6877 47.1931C72.9984 46.6636 71.9153 46.447 70.4384 46.5435C68.9749 46.6391 67.9358 46.9942 67.3213 47.6089C66.7067 48.2236 66.4376 49.1164 66.5141 50.2872C66.5914 51.4714 66.9748 52.3282 67.6641 52.8577C68.3534 53.3873 69.4298 53.6042 70.8934 53.5087ZM97.1383 41.1318L96.0206 44.2713C95.0394 47.0478 94.2693 49.2694 93.71 50.9361C93.1508 52.6027 92.6465 54.2925 92.1972 56.0054L86.2299 56.3952C85.5767 54.781 84.8648 53.1907 84.0944 51.6242C83.3365 50.0436 82.3228 48.0254 81.0534 45.5696C80.8393 45.156 80.2802 44.0634 79.3762 42.2919L84.9243 41.9295C85.4078 43.194 86.108 44.8118 87.0251 46.7829C87.8334 48.5206 88.4931 50.0275 89.004 51.3036C89.2234 50.3673 89.4922 49.3676 89.8102 48.3046C90.1407 47.2275 90.3385 46.5732 90.4036 46.3418C91.0423 44.2557 91.5043 42.6355 91.7897 41.4811L97.1383 41.1318ZM104.097 51.5604C109.151 51.2036 112.812 50.891 115.079 50.6226C115.022 51.1742 114.999 51.7436 115.01 52.3307C115.035 52.9037 115.075 53.6293 115.133 54.5074L99.6257 55.5202C99.5635 52.9321 99.459 50.5138 99.3121 48.2653C99.1653 46.0167 98.9543 43.6053 98.6793 41.0311L114.186 40.0183L114.422 43.6306L103.625 44.3358L103.75 46.2517C104.39 46.2233 105.335 46.1682 106.586 46.0866C108.701 45.9484 110.887 45.7655 113.144 45.5379L113.368 48.9706C111.101 49.0385 108.91 49.1416 106.794 49.2798C105.543 49.3614 104.599 49.4298 103.962 49.4848L104.097 51.5604ZM122.835 39.2329C125.336 39.0695 127.332 39.2465 128.822 39.7638C130.312 40.2678 131.378 41.04 132.02 42.0803C132.675 43.1064 133.053 44.3979 133.155 45.9546C133.252 47.4314 133.003 48.7437 132.41 49.8915C131.817 51.0392 130.875 51.9626 129.585 52.6615C128.293 53.3472 126.676 53.7534 124.734 53.8803C123.55 53.9576 122.346 54.0363 121.121 54.1162C119.897 54.1962 118.66 54.2703 117.408 54.3387C117.343 51.7107 117.237 49.2658 117.089 47.0039C116.94 44.7154 116.731 42.3307 116.462 39.8496C118.036 39.6131 120.161 39.4076 122.835 39.2329ZM125.033 49.8722C126.271 49.7914 127.076 49.4382 127.449 48.8125C127.823 48.1869 127.975 47.3485 127.906 46.2974C127.84 45.2862 127.567 44.4823 127.087 43.8856C126.621 43.2881 125.789 43.0285 124.591 43.1067C123.301 43.191 122.339 43.2939 121.705 43.4154L122.139 50.0613L125.033 49.8722ZM147.104 52.4191C146.802 51.6773 146.4 50.7481 145.9 49.6317L139.533 50.0475L138.722 52.9666L133.713 53.2938L138.354 38.4397L145.699 37.96L152.273 52.0815L147.104 52.4191ZM144.559 46.5926C143.962 45.2286 143.352 43.8655 142.729 42.5032L142.165 41.2373C141.778 42.4785 141.212 44.3527 140.468 46.8599L144.559 46.5926ZM158.851 36.8805C161.352 36.7171 163.348 36.8941 164.838 37.4114C166.327 37.9154 167.393 38.6876 168.036 39.7279C168.691 40.754 169.069 42.0455 169.171 43.6022C169.267 45.079 169.019 46.3913 168.426 47.5391C167.833 48.6868 166.891 49.6102 165.6 50.3091C164.309 50.9948 162.692 51.401 160.749 51.5279C159.565 51.6052 158.361 51.6839 157.137 51.7638C155.913 51.8438 154.675 51.9179 153.424 51.9863C153.359 49.3583 153.253 46.9134 153.105 44.6515C152.956 42.363 152.746 39.9783 152.477 37.4972C154.052 37.2607 156.176 37.0552 158.851 36.8805ZM161.049 47.5198C162.286 47.439 163.092 47.0858 163.465 46.4601C163.838 45.8345 163.991 44.9961 163.922 43.945C163.856 42.9338 163.583 42.1299 163.103 41.5332C162.636 40.9357 161.804 40.6761 160.607 40.7543C159.316 40.8386 158.354 40.9415 157.721 41.063L158.155 47.7089L161.049 47.5198ZM176.187 46.8518C181.241 46.4949 184.902 46.1823 187.169 45.914C187.112 46.4656 187.089 47.0349 187.1 47.6221C187.124 48.1951 187.165 48.9206 187.222 49.7988L171.715 50.8116C171.653 48.2235 171.549 45.8052 171.402 43.5566C171.255 41.3081 171.044 38.8967 170.769 36.3225L186.276 35.3096L186.512 38.9219L175.715 39.6272L175.84 41.5431C176.48 41.5147 177.425 41.4596 178.675 41.3779C180.791 41.2398 182.977 41.0569 185.234 40.8293L185.458 44.262C183.191 44.3299 180.999 44.433 178.884 44.5711C177.633 44.6528 176.689 44.7212 176.051 44.7762L176.187 46.8518ZM189.387 47.9337C189.795 47.2256 190.126 46.5693 190.381 45.9648C190.649 45.3594 190.897 44.6617 191.126 43.8717C192.106 44.3555 193.232 44.7096 194.502 44.9339C195.773 45.1583 196.947 45.2352 198.025 45.1648C199.129 45.0927 199.902 44.9487 200.342 44.7329C200.781 44.5038 200.993 44.2761 200.979 44.05C200.926 43.2384 199.662 42.9134 197.187 43.075C194.473 43.2523 192.485 43.1015 191.225 42.6227C189.963 42.1305 189.291 41.2524 189.209 39.9884C189.092 38.1923 189.75 36.8198 191.185 35.8709C192.619 34.9221 194.527 34.3699 196.909 34.2143C198.293 34.1239 199.721 34.211 201.195 34.4755C202.681 34.7258 204.03 35.1188 205.24 35.6543C204.912 36.5577 204.576 37.6552 204.233 38.947C204.17 39.2183 204.117 39.4222 204.072 39.5588C203.358 39.0576 202.304 38.6721 200.91 38.4024C199.516 38.1194 198.293 38.0122 197.242 38.0808C195.978 38.1634 195.132 38.3055 194.704 38.5071C194.275 38.6955 194.071 38.9493 194.092 39.2686C194.113 39.5879 194.429 39.8278 195.041 39.9883C195.665 40.1346 196.55 40.1704 197.694 40.0956C200.515 39.9114 202.585 40.1036 203.905 40.6721C205.224 41.2273 205.927 42.1701 206.014 43.5006C206.135 45.3633 205.544 46.7515 204.241 47.665C202.937 48.5653 200.908 49.1053 198.154 49.2852C196.677 49.3817 195.163 49.3202 193.612 49.1008C192.06 48.8681 190.652 48.4791 189.387 47.9337Z" fill="white"/>
</svg>
