<svg width="250" height="324" viewBox="0 0 250 324" fill="none" xmlns="http://www.w3.org/2000/svg">
<path d="M41.3001 7.09664L39.4661 6.76697L1.49325 213.055C1.39718 213.559 1.35352 214.053 1.35352 214.548C1.35352 216.777 2.26179 218.833 3.7552 220.326C5.23988 221.827 7.3359 222.772 9.65898 222.772H166.415C167.917 222.772 169.314 223.501 170.17 224.724L235.487 318.481C236.003 319.219 236.666 319.809 237.4 320.19C238.134 320.572 238.928 320.746 239.697 320.746C241.085 320.746 242.361 320.208 243.347 319.314C244.326 318.429 245.024 317.111 245.024 315.61C245.024 314.829 244.832 314.013 244.457 313.25L180.965 185.094C180.659 184.469 180.493 183.784 180.493 183.09C180.493 182.89 180.511 182.7 180.528 182.5L203.331 10.0203C203.383 9.65595 203.401 9.29157 203.401 8.93587C203.401 6.70624 202.493 4.65012 201.008 3.15792C199.532 1.66572 197.445 0.720075 195.148 0.711399L47.6668 0H47.6755H47.6231C43.6145 0 40.1822 2.8456 39.4661 6.7583L41.3001 7.08797L43.1341 7.41764C43.5271 5.26609 45.4223 3.69581 47.6231 3.69581H47.6406H47.6493L195.13 4.40721C196.414 4.40721 197.532 4.92774 198.353 5.75192C199.174 6.58478 199.672 7.70394 199.672 8.9272C199.672 9.12673 199.654 9.32627 199.628 9.53449L176.816 182.014C176.764 182.37 176.746 182.734 176.746 183.09C176.746 184.348 177.035 185.597 177.602 186.734L241.094 314.89C241.243 315.193 241.278 315.419 241.286 315.61C241.286 315.965 241.138 316.295 240.823 316.581C240.518 316.868 240.064 317.041 239.697 317.033C239.487 317.033 239.313 316.989 239.129 316.894C238.954 316.798 238.762 316.651 238.561 316.365L173.244 222.607C171.699 220.386 169.148 219.059 166.424 219.059H9.65025C8.35771 219.059 7.2311 218.547 6.41016 217.714C5.58922 216.881 5.08268 215.754 5.08268 214.539C5.08268 214.27 5.10888 213.992 5.16128 213.706L43.1341 7.42632L41.3001 7.09664Z" fill="#2473A6"/>
<path d="M49.4305 12.0851L0.96007 213.212C0.898936 213.541 0.864003 213.897 0.846536 214.287C0.540867 220.664 5.85951 225.913 12.2786 225.913H174.545C176.659 225.913 178.632 226.945 179.829 228.663L237.513 321.613C240.081 325.3 252.255 325.743 249.085 315.41L187.41 190.907C186.851 189.779 186.641 188.503 186.807 187.254L209.619 14.7745C210.125 10.9573 208.108 0.763428 195.698 0.763428L55.7884 6.84503C52.6706 6.82767 49.9894 9.03995 49.4305 12.0851Z" fill="#2473A6"/>
<path d="M41.2999 7.09661L3.32706 213.385C2.60219 217.307 5.64141 220.924 9.65004 220.924H166.406C168.519 220.924 170.493 221.957 171.69 223.674L237.007 317.432C239.365 320.815 244.587 317.761 242.753 314.074L179.261 185.918C178.703 184.79 178.493 183.515 178.659 182.266L201.479 9.78605C201.986 5.96878 199.008 2.5853 195.13 2.56795L47.6491 1.85655C44.5313 1.8392 41.8501 4.05147 41.2912 7.09661" fill="#F3EBE2"/>
<path d="M98.2668 170.617L99.3411 166.435H114.406L125.847 121.842H70.6518L59.2198 166.435H67.7261L52.6436 182.016H66.0668L80.0577 166.435H87.4724L83.6559 181.322H113.708L116.45 170.617H98.2668Z" fill="white"/>
<path d="M92.0494 63.6985L75.5869 89.8294H84.329L80.6086 104.326H94.0406L100.407 79.5141H96.189L106.101 63.6985H92.0494Z" fill="white"/>
<path d="M148.371 46.7897H137.603L138.354 43.84H125.629L124.878 46.7897H110.512L111.271 43.84H98.5469L97.7871 46.7897H87.0188L83.9971 58.5798H94.7654L94.0929 61.2172H106.817L107.49 58.5798H121.856L121.175 61.2172H133.9L134.581 58.5798H145.349L148.371 46.7897Z" fill="white"/>
<path d="M136.738 92.1544H116.284L119.306 80.3729L140.712 76.6424L143.961 64.0021L122.407 68.2705L123.603 63.6204H109.63L99.167 104.404H133.594L136.738 92.1544Z" fill="white"/>
<path d="M136.738 92.1544H116.285L119.306 80.3643L140.712 76.6424L143.952 64.0021L122.407 68.2705L123.603 63.6117H109.63L99.1671 104.404H133.594L136.738 92.1544ZM148.371 46.7897H137.603L138.363 43.84H125.638L124.878 46.7897H110.512L111.272 43.84H98.547L97.7872 46.7897H87.019L83.9972 58.5798H94.7655L94.0843 61.2172H106.809L107.481 58.5798H121.848L121.167 61.2172H133.891L134.564 58.5798H145.332L148.354 46.7897H148.371ZM92.0494 63.6984L75.5869 89.8294H84.3291L80.6086 104.326H94.0319L100.399 79.5141H96.1803L106.093 63.6984H92.0407H92.0494ZM125.734 87.2701L125.254 89.1266H140.319L144.293 94.3233L139.638 112.473H80.3903L76.4952 107.276L78.9231 97.8109L75.5869 97.7328L70.9932 91.6078L86.9229 66.0148H83.5693L79.9624 61.2085L84.495 43.5277H95.2633L96.0406 40.4999H115.481L117.673 43.5277H122.433L123.21 40.4999H142.494L144.686 43.5277H152.022L155.995 48.7243L147.122 83.314L125.734 87.2701Z" fill="#2473A6"/>
<path d="M79.9185 131.073H111.848L110.835 135.029H78.9055L79.9185 131.073ZM77.0714 142.161H109.001L108.005 146.039H76.0758L77.0714 142.161ZM74.2243 153.248H106.145L105.132 157.204H73.2025L74.2156 153.248H74.2243ZM98.2587 170.617L99.3329 166.426H114.398L125.839 121.834H70.6524L59.2116 166.426H67.718L52.6354 182.016H66.0586L80.0495 166.426H87.4642L83.6477 181.314H113.699L116.442 170.608H98.2587V170.617ZM124.171 172.169L119.752 189.382H82.984L79.4557 184.576L81.1237 178.06L70.6087 190.154H52.9672L47.6748 183.101L57.3427 172.785L55.072 169.758L68.2158 118.494H129.961L133.568 123.3L121.83 169.055L124.162 172.161L124.171 172.169Z" fill="#2473A6"/>
<path d="M158.173 34.1331C158.025 32.9792 157.448 31.9902 156.628 31.2788L155.431 33.2308L153.754 31.6085C153.125 32.5107 152.802 33.6212 152.951 34.7924C153.178 36.5709 154.409 37.9677 156.016 38.549L156.138 38.5316C157.553 37.5773 158.392 35.9116 158.165 34.1331" fill="#FF0000"/>
<path d="M162.959 40.2841C164.016 39.7809 164.776 38.9221 165.204 37.9244L162.959 37.4125L163.981 35.3217C162.924 35.018 161.754 35.0614 160.688 35.5646C159.055 36.3367 158.112 37.9417 158.06 39.6421L158.112 39.7462C159.474 40.7786 161.326 41.0476 162.95 40.2755" fill="#FF0000"/>
<path d="M158.593 46.7387C159.405 47.5803 160.462 48.0227 161.553 48.1181L161.335 45.8451L163.649 46.1575C163.606 45.0643 163.204 43.9799 162.383 43.1297C161.134 41.837 159.3 41.4466 157.667 41.9324L157.58 42.0105C157.021 43.6155 157.344 45.4461 158.593 46.7474" fill="#FF0000"/>
<path d="M151.047 44.6393C150.497 45.6717 150.41 46.8082 150.663 47.8579L152.768 46.9383L153.204 49.22C154.244 48.8383 155.143 48.1095 155.702 47.0684C156.549 45.4808 156.34 43.6329 155.361 42.2448L155.257 42.1928C153.545 42.1754 151.894 43.0516 151.056 44.6393" fill="#FF0000"/>
<path d="M150.68 36.8659C149.528 36.6751 148.41 36.944 147.484 37.5166L149.021 39.217L146.978 40.3449C147.667 41.2037 148.646 41.8284 149.816 42.0193C151.598 42.3142 153.301 41.5421 154.322 40.18L154.34 40.0672C153.825 38.4536 152.462 37.1696 150.68 36.8746" fill="#FF0000"/>
<path d="M154.89 29.6825C149.126 30.4113 145.03 35.66 145.755 41.3859C146.488 47.1118 151.772 51.1807 157.536 50.4606C163.3 49.7319 167.396 44.4831 166.671 38.7572C165.938 33.0313 160.654 28.9625 154.89 29.6825ZM157.754 52.161C151.038 53.0026 144.89 48.2744 144.043 41.6028C143.196 34.9313 147.956 28.8237 154.671 27.9821C161.379 27.1406 167.536 31.8688 168.383 38.5403C169.23 45.2119 164.47 51.3195 157.754 52.161Z" fill="#FF0000"/>
<path d="M150.384 35.5299C150.043 35.2176 150.025 34.697 150.331 34.3587C150.646 34.0203 151.17 34.003 151.51 34.3066C151.851 34.6189 151.868 35.1395 151.563 35.4778C151.248 35.8162 150.724 35.8335 150.384 35.5299Z" fill="#FF0000"/>
<path d="M159.3 33.309C159.527 32.9099 160.034 32.7711 160.436 33.0053C160.837 33.2309 160.977 33.7341 160.741 34.1331C160.514 34.5322 160.008 34.671 159.606 34.4368C159.204 34.2112 159.065 33.708 159.3 33.309Z" fill="#FF0000"/>
<path d="M157.929 47.0337C158.06 47.4675 157.815 47.936 157.379 48.0661C156.942 48.2049 156.47 47.9533 156.339 47.5195C156.2 47.0857 156.453 46.6173 156.89 46.4871C157.326 46.3483 157.798 46.5999 157.929 47.0337Z" fill="#FF0000"/>
<path d="M150.104 44.353C149.702 44.5785 149.195 44.4484 148.968 44.0493C148.741 43.6503 148.872 43.1471 149.274 42.9215C149.676 42.6959 150.182 42.8261 150.409 43.2251C150.636 43.6242 150.505 44.1274 150.104 44.353Z" fill="#FF0000"/>
<path d="M163.553 42.6612C163.151 42.8868 162.645 42.7566 162.418 42.3576C162.191 41.9585 162.322 41.4553 162.723 41.2297C163.125 41.0042 163.632 41.1343 163.859 41.5334C164.086 41.9325 163.955 42.4356 163.553 42.6612Z" fill="#FF0000"/>
</svg>
