<svg width="315" height="204" viewBox="0 0 315 204" fill="none" xmlns="http://www.w3.org/2000/svg">
<path d="M305.278 7.16685L305.718 7.12091C309.817 6.94293 313.27 10.268 313.193 14.4278L311.071 129.007C311.004 132.645 308.219 135.655 304.6 136.011L33.4456 154.256L28.9643 154.558L29.0777 154.632L13.6143 155.688L13.6132 155.688C7.07855 156.139 1.57755 150.878 1.73454 144.323C1.73455 144.323 1.73455 144.323 1.73455 144.323L4.1286 44.954L4.12876 44.9457C4.19583 41.3227 6.95686 38.3183 10.5527 37.9365C10.5532 37.9365 10.5538 37.9364 10.5543 37.9364L305.278 7.16685Z" fill="#2473A6" stroke="white" stroke-width="3"/>
<path d="M35.0223 110.203C31.2168 107.12 29.2017 102.508 28.9767 96.3456C28.76 90.2539 30.4254 85.3403 33.9655 81.5978C37.5127 77.8552 43.2047 75.6353 51.056 74.945C58.9356 74.247 64.7678 75.4538 68.5593 78.551C72.3509 81.6482 74.3513 86.2391 74.5679 92.3308C74.7845 98.4225 73.1359 103.471 69.6024 107.185C66.076 110.892 60.348 113.098 52.4399 113.796C44.6243 114.486 38.8209 113.293 35.0153 110.21L35.0223 110.203ZM60.1839 100.418C61.802 98.8202 62.5583 96.4753 62.4458 93.3974C62.3418 90.3907 61.4186 88.2186 59.698 86.895C57.9703 85.5716 55.2166 85.0793 51.4298 85.4113C47.6786 85.7426 44.9941 86.7177 43.3692 88.3368C41.7515 89.9558 40.9947 92.2722 41.0988 95.2789C41.2106 98.3212 42.1197 100.508 43.8475 101.831C45.5681 103.155 48.3076 103.654 52.066 103.323C55.8243 102.992 58.5588 102.023 60.1768 100.418L60.1839 100.418Z" fill="white"/>
<path d="M108.111 81.2324C104.043 81.3841 101.037 81.5309 99.0933 81.6657L99.7158 99.2141C101.694 99.0074 104.688 98.6184 108.707 98.0612L109.069 108.271L79.3365 110.895L78.9744 100.685C82.9073 100.543 85.892 100.404 87.9425 100.253L87.32 82.7047C85.2706 82.9198 82.2903 83.3014 78.3791 83.8566L78.0171 73.6468L107.749 71.0225L108.111 81.2324Z" fill="white"/>
<path d="M115.727 98.3698C116.44 96.7956 117.121 94.9868 117.768 92.9361C120.242 94.1249 123.095 94.9719 126.326 95.4769C129.558 95.982 132.562 96.1132 135.324 95.8639C138.085 95.6145 140.145 95.1925 141.282 94.5945C142.426 93.9964 142.986 93.4089 142.961 92.8247C142.888 90.7371 139.68 89.975 133.331 90.5314C126.37 91.1486 121.296 90.8621 118.109 89.6861C114.915 88.5102 113.264 86.2942 113.149 83.0453C112.987 78.4284 114.776 74.8529 118.516 72.3259C122.257 69.799 127.184 68.263 133.291 67.7253C136.836 67.4119 140.496 67.5456 144.263 68.1195C148.031 68.6933 151.441 69.6371 154.502 70.9508C153.596 73.2984 152.649 76.1387 151.676 79.4856C151.496 80.1876 151.341 80.7179 151.219 81.0695C149.429 79.8184 146.76 78.8826 143.212 78.2478C139.665 77.6201 136.546 77.4196 133.848 77.6607C130.609 77.9471 128.435 78.357 127.318 78.8833C126.208 79.4095 125.664 80.0823 125.693 80.9088C125.723 81.7353 126.524 82.3197 128.092 82.6764C129.66 83.0332 131.914 83.0853 134.846 82.8258C142.078 82.1894 147.361 82.5505 150.693 83.9235C154.026 85.2965 155.759 87.6893 155.877 91.1093C156.049 95.8971 154.431 99.4981 151.024 101.912C147.617 104.326 142.39 105.839 135.322 106.465C131.535 106.797 127.662 106.717 123.711 106.232C119.76 105.74 116.186 104.828 112.989 103.495C114.09 101.65 114.993 99.9372 115.706 98.363L115.727 98.3698Z" fill="white"/>
<path d="M201.999 62.7025C201.968 68.5064 202.066 74.7285 202.306 81.3616C202.547 87.9947 202.887 94.1983 203.326 99.958L191.303 101.023L190.803 87.0655L171.968 88.7306L172.469 102.688L160.447 103.753C160.484 97.0934 160.4 90.871 160.189 85.0929C159.978 79.3148 159.624 73.1186 159.113 66.5046L171.135 65.4398L171.636 79.3972L190.471 77.732L189.97 63.7746L201.992 62.7098L201.999 62.7025Z" fill="white"/>
<path d="M236.186 69.9292C232.118 70.0809 229.112 70.2277 227.168 70.3625L227.791 87.9109C229.769 87.7042 232.764 87.3152 236.782 86.7581L237.144 96.9679L207.412 99.5921L207.05 89.3823C210.982 89.2402 213.967 89.1009 216.018 88.9499L215.395 71.4015C213.346 71.6166 210.365 71.9982 206.454 72.5535L206.092 62.3436L235.824 59.7194L236.186 69.9292Z" fill="white"/>
<path d="M270.011 66.9391C265.943 67.0907 262.937 67.2375 260.993 67.3723L261.616 84.9207C263.594 84.714 266.588 84.325 270.606 83.7679L270.968 93.9777L241.236 96.602L240.874 86.3921C244.807 86.25 247.792 86.1107 249.842 85.9597L249.22 68.4113C247.171 68.6265 244.19 69.0081 240.279 69.5633L239.917 59.3534L269.649 56.7292L270.011 66.9391Z" fill="white"/>
<path d="M292.464 39.2425C292.464 37.9522 291.965 36.7913 291.174 35.8895L289.597 37.8689L287.997 35.8571C287.187 36.7636 286.679 37.9429 286.679 39.2425C286.679 41.2312 287.835 42.9378 289.505 43.798C289.546 43.8165 289.597 43.8165 289.634 43.798C291.308 42.9424 292.46 41.2312 292.46 39.2425" fill="#FF0000"/>
<path d="M296.84 46.6654C298.061 46.2584 299.009 45.4213 299.619 44.3854L297.242 43.5113L298.648 41.3561C297.533 40.8705 296.257 40.7595 295.018 41.1711C293.131 41.7955 291.873 43.428 291.586 45.2872C291.577 45.3335 291.595 45.3797 291.628 45.4121C292.969 46.7302 294.953 47.2898 296.84 46.6654Z" fill="#FF0000"/>
<path d="M291.165 53.1495C291.933 54.1855 293.029 54.8191 294.203 55.0734L294.287 52.5436L296.775 53.205C296.881 51.9933 296.59 50.7446 295.808 49.6994C294.62 48.1038 292.677 47.4239 290.823 47.7338C290.776 47.743 290.739 47.7708 290.716 47.8124C289.884 49.5005 289.976 51.5585 291.165 53.1541" fill="#FF0000"/>
<path d="M283.224 49.8011C282.484 50.8555 282.225 52.095 282.355 53.2882L284.783 52.5714L284.94 55.1382C286.124 54.8607 287.215 54.1901 287.965 53.1217C289.107 51.4938 289.144 49.4311 288.265 47.7708C288.242 47.7291 288.201 47.7014 288.159 47.6968C286.295 47.4378 284.371 48.1731 283.229 49.8011" fill="#FF0000"/>
<path d="M283.908 41.2128C282.674 40.8428 281.416 40.9815 280.324 41.481L281.767 43.5622L279.376 44.5195C280.014 45.5555 280.995 46.3834 282.243 46.758C284.149 47.3315 286.114 46.7164 287.419 45.3613C287.451 45.3289 287.465 45.278 287.456 45.2364C287.118 43.3865 285.814 41.7909 283.908 41.2174" fill="#FF0000"/>
<path d="M289.5 33.9008C283.104 33.9008 277.901 39.1038 277.901 45.5C277.901 51.8962 283.104 57.0991 289.5 57.0991C295.896 57.0991 301.099 51.8962 301.099 45.5C301.099 39.1038 295.896 33.9008 289.5 33.9008ZM289.5 59C282.054 58.9953 276 52.9414 276 45.5C276 38.0586 282.054 32 289.5 32C296.946 32 303 38.0539 303 45.5C303 52.946 296.946 59 289.5 59Z" fill="#FF0000"/>
<path d="M283.77 39.7051C283.442 39.3166 283.492 38.7385 283.876 38.4147C284.265 38.0864 284.843 38.1372 285.167 38.5211C285.495 38.9096 285.444 39.4877 285.06 39.8114C284.672 40.1398 284.094 40.0889 283.77 39.7051Z" fill="#FF0000"/>
<path d="M293.815 38.498C294.12 38.091 294.694 38.0123 295.101 38.3176C295.508 38.6228 295.586 39.1963 295.281 39.6033C294.976 40.0103 294.402 40.0889 293.995 39.7837C293.588 39.4784 293.51 38.9049 293.815 38.498Z" fill="#FF0000"/>
<path d="M290.402 53.39C290.49 53.8895 290.157 54.3659 289.657 54.4537C289.158 54.5416 288.681 54.2086 288.598 53.7091C288.51 53.2096 288.843 52.7333 289.343 52.6454C289.842 52.5575 290.318 52.8905 290.406 53.39" fill="#FF0000"/>
<path d="M282.239 49.3617C281.772 49.556 281.235 49.3386 281.041 48.8715C280.847 48.4044 281.064 47.8679 281.531 47.6737C281.999 47.4794 282.535 47.6968 282.729 48.1639C282.924 48.631 282.706 49.1675 282.239 49.3617Z" fill="#FF0000"/>
<path d="M297.15 49.3617C296.683 49.556 296.146 49.3386 295.952 48.8715C295.758 48.4044 295.975 47.8679 296.442 47.6737C296.909 47.4794 297.446 47.6968 297.64 48.1639C297.834 48.631 297.617 49.1675 297.15 49.3617Z" fill="#FF0000"/>
<path d="M114.831 148.422L96.2007 178.196H106.096L101.888 194.722H117.085L124.289 166.446H119.52L130.739 148.422H114.831Z" fill="#F3EBE2"/>
<path d="M178.588 129.161H166.394L167.25 125.802H152.846L151.991 129.161H135.733L136.589 125.802H122.185L121.33 129.161H109.137L105.715 142.591H117.909L117.141 145.594H131.55L132.312 142.591H148.57L147.802 145.594H162.205L162.973 142.591H175.166L178.588 129.161Z" fill="#F3EBE2"/>
<path d="M165.414 180.85H142.264L145.692 167.42L169.922 163.175L173.587 148.771L149.201 153.635L150.555 148.334H134.735L122.891 194.81H161.856L165.414 180.85Z" fill="#F3EBE2"/>
<path d="M165.414 180.85H142.264L145.685 167.42L169.916 163.175L173.587 148.771L149.2 153.635L150.555 148.334H134.741L122.897 194.81H161.862L165.421 180.85H165.414ZM178.582 129.161H166.388L167.244 125.802H152.84L151.985 129.161H135.727L136.583 125.802H122.179L121.324 129.161H109.131L105.709 142.591H117.903L117.135 145.594H131.538L132.3 142.591H148.557L147.789 145.594H162.193L162.954 142.591H175.148L178.569 129.161H178.582ZM114.831 148.422L96.2007 178.203H106.096L101.888 194.722H117.085L124.289 166.446H119.513L130.733 148.422H114.831ZM152.959 175.281L152.416 177.403H169.466L173.968 183.322L168.698 204H101.645L97.2309 198.081L99.9779 187.299L96.2007 187.212L91 180.232L109.037 151.075H105.235L101.152 145.6L106.29 125.453H118.483L119.363 122.006H141.365L143.844 125.453H149.232L150.112 122.006H171.939L174.417 125.453H182.721L187.216 131.371L177.177 170.779L152.965 175.287L152.959 175.281Z" fill="#2473A6"/>
<path d="M289.963 192.949L293.116 180.581H277.919L274.767 192.949H289.963Z" fill="#F3EBE2"/>
<path d="M301.781 146.911L306.62 127.912H291.068L286.229 146.911L281.409 175.543H292.01L301.781 146.911Z" fill="#F3EBE2"/>
<path d="M233.005 181.374L234.216 176.604H251.273L264.215 125.796H201.751L188.802 176.604H198.435L181.36 194.36H196.562L212.395 176.604H220.787L216.466 193.567H250.48L253.589 181.374H233.005Z" fill="#F3EBE2"/>
<path d="M212.233 136.31H248.37L247.221 140.817H211.084L212.233 136.31ZM209.012 148.946H245.148L244.024 153.367H207.888L209.012 148.946ZM205.79 161.583H241.926L240.778 166.09H204.641L205.79 161.583ZM232.992 181.374L234.21 176.604H251.26L264.203 125.796H201.751L188.808 176.604H198.442L181.366 194.367H196.562L212.395 176.604H220.793L216.472 193.567H250.486L253.595 181.374H233.011H232.992ZM262.317 183.141L257.316 202.758H215.698L211.702 197.282L213.594 189.859L201.688 203.644H181.741L175.747 195.603L186.692 183.853L184.126 180.406L199.01 122H268.898L272.981 127.475L259.695 179.607L262.33 183.141H262.317Z" fill="#2473A6"/>
<path d="M301.781 146.911L306.62 127.912H291.068L286.229 146.911L281.409 175.537H292.01L301.775 146.911H301.781ZM289.963 192.943L293.115 180.575H277.919L274.766 192.943H289.963ZM311.365 124.198L314.986 129.061L309.198 151.768C308.231 155.57 307.138 157.774 305.902 161.577L299.765 179.426L301.475 181.724L296.431 201.515H273.724L270.015 196.652L275.06 176.86H277.445L280.81 156.719C281.515 152.917 281.547 150.713 282.514 146.911L288.302 124.204H311.365V124.198Z" fill="#2473A6"/>
</svg>
