<svg width="217" height="53" viewBox="0 0 217 53" fill="none" xmlns="http://www.w3.org/2000/svg">
<g clip-path="url(#clip0_115_22405)">
<path d="M214.283 14.1094C214.602 13.1612 214.912 12.3258 215.212 11.6123C216.647 8.08266 215.052 4.10241 211.572 2.52533C209.358 1.53026 206.89 0.816822 204.235 0.39439C201.543 -0.0280423 198.822 -0.112529 196.477 0.122156C192.64 0.478876 189.263 1.46455 186.429 3.05102C185.322 2.37513 184.047 1.99963 182.771 1.99963C182.555 1.99963 182.33 2.00902 182.123 2.03718L160.255 4.05547C156.531 4.41219 153.726 7.61329 153.876 11.3495C153.988 14.3534 154.063 17.179 154.082 19.7793C153.472 19.8544 152.834 19.9295 152.178 20.0046V12.5229C152.178 10.5422 151.343 8.6459 149.889 7.32228C148.425 5.98927 146.436 5.31338 144.494 5.51051L137.608 6.13947C137.177 6.1864 136.764 6.2615 136.351 6.38354C136.013 6.34599 135.713 6.3366 135.094 6.37415L113.226 8.40183C112.85 8.43938 112.466 8.50509 112.081 8.60835C111.715 8.56141 111.331 8.5708 110.974 8.60835L86.798 10.8425C85.2782 10.9834 83.8334 11.6499 82.7076 12.6825C80.4748 11.8376 77.9981 11.4058 75.3432 11.4058C74.5457 11.4058 73.6639 11.4433 72.6507 11.5372C67.0218 12.0629 62.5562 13.9122 59.3477 17.0664C56.4957 14.973 52.8276 13.9122 48.4089 13.9122C47.4989 13.9122 46.5326 13.9592 45.4631 14.053C39.7967 14.5881 35.3217 16.3811 32.1601 19.3663C29.2331 17.4137 25.565 16.3905 21.4746 16.3905C20.6772 16.3905 19.8047 16.428 18.7821 16.5219C12.7498 17.0758 8.06847 19.1598 4.85062 22.7082C1.64215 26.2566 0.00976562 30.725 0.00976562 35.9913C0.00976562 42.9943 3.02122 46.9934 5.54485 49.1149C8.47187 51.5744 12.3746 52.8135 17.1498 52.8135C18.0879 52.8135 19.073 52.7666 20.0768 52.6633C23.5573 52.3442 26.8408 51.396 29.8335 49.8377C31.0719 49.1994 32.2258 48.4015 33.2859 47.444C36.091 49.359 39.6278 50.3353 43.8307 50.3353C44.8345 50.3353 45.8196 50.2883 46.7577 50.1945C52.5086 49.6688 57.0305 47.8476 60.2389 44.7779C63.0534 46.8056 66.6747 47.8288 71.0183 47.8288C71.9471 47.8288 72.9321 47.7819 73.9453 47.6786C77.4258 47.3595 80.7094 46.4113 83.7114 44.853C85.8973 43.7172 87.7643 42.1589 89.2465 40.2251C89.603 41.4642 90.2973 42.5907 91.2729 43.4731C92.577 44.6559 94.2562 45.313 96.0106 45.313C96.2451 45.313 96.4609 45.3036 96.6673 45.2755L103.703 44.6277C105.852 44.4212 107.728 43.2572 108.873 41.5581C108.929 41.6144 108.985 41.6707 109.041 41.727C110.364 42.9756 112.081 43.6608 113.882 43.6608C114.107 43.6608 114.323 43.6515 114.539 43.6233L136.426 41.605C136.829 41.5581 137.242 41.483 137.655 41.3515C138.021 41.3985 138.396 41.3985 138.94 41.3703L158.792 39.5304C159.214 39.4928 159.655 39.399 160.133 39.2488C160.536 39.2957 160.893 39.3145 161.568 39.2769L183.437 37.2493C184.928 37.1084 186.317 36.4983 187.424 35.522C188.371 35.7379 189.31 35.9069 190.238 36.0195C192.818 36.3575 195.567 36.4138 198.156 36.1791C203.363 35.6909 207.331 34.4237 210.305 32.2927C212.951 30.3965 216.112 26.7917 216.112 20.4177C216.112 18.0708 215.493 15.9023 214.302 14.1L214.283 14.1094Z" fill="#2473A6"/>
<path d="M9.0808 41.3328C7.07316 39.6525 6.06934 37.0709 6.06934 33.607C6.06934 30.143 7.07316 27.2705 9.0808 25.0645C11.0884 22.8491 14.2125 21.5536 18.4529 21.1593C24.382 20.6149 28.3504 22.3609 30.358 26.3975C28.6694 27.1579 26.6899 28.2468 24.4195 29.6643C23.8754 28.6223 23.0123 27.8901 21.8396 27.477C20.6669 27.0546 19.4661 26.9044 18.2465 27.0171C16.4453 27.186 15.1037 27.7962 14.2219 28.8664C13.34 29.9271 12.8991 31.185 12.8991 32.6213C12.8991 34.1796 13.3681 35.4094 14.3251 36.3012C15.2726 37.193 16.7173 37.5497 18.6687 37.3713C20.226 37.2305 21.4644 36.8456 22.3838 36.2261C23.3031 35.6065 23.9786 34.6865 24.4102 33.485C25.9487 34.1984 27.9188 34.9775 30.3205 35.8318C29.3823 38.2725 27.8156 40.0655 25.6204 41.2014C23.4251 42.3373 21.0328 43.0319 18.4435 43.2666C14.2031 43.6609 11.0791 43.0131 9.07141 41.3328H9.0808Z" fill="#F3EBE2"/>
<path d="M35.65 38.7792C33.6236 37.0332 32.6104 34.4047 32.6104 30.8938C32.6104 27.3829 33.6236 24.6231 35.6312 22.4921C37.6482 20.3612 40.8192 19.0939 45.1253 18.6902C49.4595 18.2866 52.6305 18.9718 54.6569 20.7273C56.6739 22.4921 57.6871 25.1018 57.6871 28.5658C57.6871 32.0297 56.6833 34.9116 54.6756 37.0238C52.668 39.1359 49.4877 40.3939 45.1346 40.7975C40.8379 41.1918 37.6764 40.5159 35.65 38.7698V38.7792ZM49.6378 33.1937C50.5571 32.2832 51.0168 30.9501 51.0168 29.1947C51.0168 27.4393 50.5571 26.2471 49.6378 25.4961C48.7184 24.7451 47.2173 24.4635 45.1346 24.6606C43.0707 24.8483 41.5791 25.4116 40.6597 26.3316C39.7403 27.2515 39.2806 28.5751 39.2806 30.2836C39.2806 31.9921 39.7403 33.2594 40.6597 34.0104C41.5791 34.7614 43.0707 35.043 45.1346 34.8553C47.2173 34.6582 48.7184 34.1137 49.6378 33.1937Z" fill="#F3EBE2"/>
<path d="M62.949 36.3479C60.9413 34.6676 59.9375 32.0861 59.9375 28.6221C59.9375 25.1582 60.9413 22.2856 62.949 20.0796C64.9566 17.8736 68.0806 16.5687 72.3211 16.1745C78.2502 15.63 82.2185 17.376 84.2262 21.4126C82.5375 22.173 80.558 23.2619 78.2877 24.6794C77.7436 23.6374 76.8805 22.9146 75.7172 22.4922C74.5445 22.0697 73.3436 21.9195 72.1241 22.0322C70.3228 22.2012 68.9813 22.8113 68.0994 23.8815C67.2175 24.9423 66.7766 26.2002 66.7766 27.6365C66.7766 29.1948 67.2457 30.4245 68.1932 31.3163C69.1407 32.2175 70.5855 32.5742 72.5462 32.3865C74.1036 32.2457 75.3419 31.8608 76.2613 31.2412C77.1807 30.6216 77.8561 29.7017 78.2877 28.5001C79.8263 29.2135 81.7964 29.9927 84.198 30.8469C83.2599 33.2877 81.6932 35.0807 79.4979 36.2165C77.3026 37.3524 74.9104 38.0471 72.3211 38.2817C68.0806 38.676 64.9566 38.0283 62.949 36.3479Z" fill="#F3EBE2"/>
<path d="M110.655 19.3759C107.709 19.5543 104.847 19.7608 102.071 19.9955V35.25L95.0344 35.8977V20.6432C92.2388 20.9248 89.3868 21.244 86.4785 21.6101V15.4708L110.655 13.2366V19.3759Z" fill="#F3EBE2"/>
<path d="M119.549 28.2841C126.679 27.5895 131.848 26.9981 135.056 26.5287C134.925 27.336 134.85 28.1715 134.822 29.0163C134.794 29.8706 134.784 30.9314 134.784 32.2174L112.916 34.2451C113.066 30.4526 113.141 26.9136 113.141 23.6186C113.141 20.3236 113.066 16.8034 112.916 13.0296L134.784 11.002V16.287L119.558 17.6952V20.502C120.459 20.4363 121.791 20.3236 123.555 20.164C126.538 19.8918 129.624 19.5445 132.814 19.1314V24.1537C129.624 24.332 126.538 24.5573 123.555 24.839C121.791 24.9985 120.459 25.1394 119.558 25.2332V28.2747L119.549 28.2841Z" fill="#F3EBE2"/>
<path d="M144.175 25.4494C149.616 24.9049 154.119 24.3886 157.684 23.9099C157.44 24.9237 157.29 25.8906 157.234 26.8106C157.178 27.7305 157.149 28.8476 157.149 30.1525L137.308 31.9924C137.458 28.1999 137.533 24.6608 137.533 21.3659C137.533 18.0709 137.458 14.5506 137.308 10.7863L144.175 10.1479V25.4588V25.4494Z" fill="#F3EBE2"/>
<path d="M166.578 23.9285C173.708 23.2339 178.877 22.6425 182.086 22.1731C181.954 22.9804 181.87 23.8159 181.851 24.6608C181.823 25.515 181.814 26.5758 181.814 27.8619L159.945 29.8895C160.095 26.097 160.17 22.558 160.17 19.263C160.17 15.968 160.095 12.4478 159.945 8.68344L181.814 6.65576V11.9409L166.587 13.349V16.1558C167.488 16.0901 168.82 15.9774 170.584 15.8178C173.567 15.5456 176.654 15.1983 179.843 14.7852V19.8075C176.654 19.9858 173.567 20.2111 170.584 20.4928C168.82 20.6524 167.488 20.7932 166.587 20.8964V23.9379L166.578 23.9285Z" fill="#F3EBE2"/>
<path d="M185.932 22.2011C186.354 21.2999 186.757 20.2767 187.151 19.1033C188.484 19.7792 190.031 20.2579 191.795 20.5489C193.559 20.8399 195.201 20.9056 196.72 20.7648C198.278 20.624 199.375 20.3799 200.013 20.0326C200.651 19.6947 200.97 19.3567 200.97 19.0282C200.97 17.836 199.225 17.4041 195.735 17.7327C191.908 18.0894 189.131 17.9298 187.405 17.2633C185.678 16.5968 184.815 15.3389 184.815 13.4896C184.815 10.8611 185.866 8.82408 187.968 7.38781C190.069 5.95154 192.799 5.06913 196.158 4.75934C198.109 4.58098 200.117 4.65608 202.171 4.97525C204.226 5.30381 206.083 5.83889 207.725 6.58049C207.181 7.9135 206.609 9.53752 206.008 11.4432C205.896 11.8468 205.802 12.1472 205.727 12.3443C204.77 11.6309 203.325 11.1052 201.392 10.7391C199.46 10.3824 197.752 10.2697 196.27 10.4105C194.488 10.5795 193.287 10.8048 192.668 11.1052C192.048 11.4056 191.739 11.7905 191.739 12.2599C191.739 12.7292 192.161 13.0672 193.015 13.2643C193.869 13.4708 195.107 13.499 196.72 13.3488C200.698 12.9827 203.588 13.1892 205.389 13.9684C207.19 14.7475 208.091 16.1087 208.091 18.0519C208.091 20.7836 207.134 22.8301 205.22 24.2006C203.306 25.5712 200.407 26.4442 196.523 26.8009C194.441 26.9981 192.321 26.9511 190.163 26.6695C188.005 26.3973 186.063 25.8716 184.337 25.1206C184.975 24.0692 185.51 23.0929 185.932 22.2011Z" fill="#F3EBE2"/>
</g>
<defs>
<clipPath id="clip0_115_22405">
<rect width="216.093" height="52.8228" fill="white"/>
</clipPath>
</defs>
</svg>
