<svg width="189" height="85" viewBox="0 0 189 85" fill="none" xmlns="http://www.w3.org/2000/svg">
<g clip-path="url(#clip0_115_22354)">
<path d="M157.398 23.6567L150.736 4.46363C149.606 1.5512 146.678 -0.256524 143.559 0.0336036L131.217 1.1718C128.512 1.41729 126.187 3.21385 125.27 5.76921L125.091 6.24904C124.946 6.12629 124.812 5.99239 124.655 5.8808C121.346 3.40355 116.808 2.53317 110.346 3.12458L104.164 3.69368C103.941 3.69368 103.706 3.69368 103.471 3.72716L95.5566 4.46363C93.7903 4.63102 92.2476 5.43445 91.1185 6.62844C88.3462 5.72458 84.959 5.47908 80.7334 5.86964L74.5514 6.43874C74.3279 6.43874 74.0931 6.43874 73.8583 6.47221L65.9437 7.20869C63.6408 7.42071 61.6957 8.72628 60.589 10.5786C59.1469 8.94946 56.9894 8.0456 54.7201 8.24646L42.3786 9.38465C39.6733 9.63014 37.3481 11.4267 36.4314 13.9821L36.2302 14.54C34.6205 13.1005 32.53 12.0962 29.9924 11.5718C27.6896 11.1031 24.8725 11.025 21.3847 11.3486L14.9345 11.94C14.6997 11.94 14.4649 11.94 14.2414 11.9735L6.36026 12.6988C2.64887 13.0336 -0.145851 16.2138 -0.000525811 19.9297C0.178336 24.2928 0.256588 28.4327 0.256588 32.2378C0.256588 36.0429 0.167157 40.194 -0.000525811 44.5906C-0.0340625 45.3605 0.0665475 46.1305 0.290125 46.8558C0.0777263 47.57 -0.0228836 48.3287 -0.000525811 49.1099C0.178336 53.4729 0.256588 57.6128 0.256588 61.418C0.256588 65.2231 0.167157 69.3742 -0.000525811 73.7707C-0.078778 75.7793 0.714923 77.7321 2.17936 79.1158C3.48729 80.3544 5.20883 81.0351 6.99745 81.0351C7.20985 81.0351 7.42225 81.0351 7.64583 81.0016L31.2892 78.8257C31.8705 78.7699 32.4294 78.636 32.9548 78.4574C33.2902 78.5021 33.6255 78.5467 33.9609 78.5467C34.1733 78.5467 34.3857 78.5467 34.6093 78.5132L54.0941 76.7167C54.5524 76.672 54.9996 76.5827 55.4244 76.46C55.6591 76.4823 55.8939 76.4935 56.1286 76.4935C56.341 76.4935 56.5534 76.4935 56.777 76.46L71.8685 75.0652C75.8258 74.6969 78.9671 73.9939 81.4712 72.9004C81.7394 72.7888 81.9854 72.666 82.2425 72.5433C83.3939 73.3021 84.7354 73.7261 86.1216 73.7261C86.334 73.7261 86.5464 73.7261 86.77 73.6926L94.6846 72.9673C96.5291 72.7999 98.1612 71.9184 99.3015 70.6128C100.688 71.6952 102.454 72.242 104.276 72.0746L113.398 71.2377C113.901 71.1931 114.382 71.0815 114.862 70.9253C115.153 70.9587 115.444 70.9922 115.746 70.9922C115.958 70.9922 116.17 70.9922 116.394 70.9587L142.452 68.5484C146.052 68.2137 148.813 65.2008 148.813 61.5854C148.813 60.1459 148.824 58.9407 148.857 58.0034C148.88 57.2892 148.947 56.5974 149.059 55.9279C149.416 53.7296 148.701 51.4867 147.136 49.9021C146.924 49.6901 146.7 49.4893 146.465 49.3107V47.8824C147.907 46.5991 148.813 44.7245 148.813 42.6601V36.3777C148.813 35.3511 148.578 34.3468 148.153 33.4318L151.529 33.1194C153.72 32.9185 155.688 31.7022 156.839 29.8387C158.002 27.9752 158.203 25.6765 157.409 23.6344L157.398 23.6567Z" fill="#2473A6"/>
<path d="M58.5998 35.8756C58.175 34.5924 57.6048 32.9967 56.8894 31.0662L46.1912 32.0593L44.5144 37.1812L36.0967 37.9623L45.4869 11.8843L57.8284 10.7461L67.2858 35.0834L58.5998 35.8868V35.8756ZM54.9778 25.8216C54.1282 23.4671 53.2563 21.1237 52.3619 18.7692L51.5571 16.5821C50.7745 18.7581 49.6231 22.0499 48.1028 26.4465L54.9778 25.8104V25.8216Z" fill="#F3EBE2"/>
<path d="M94.562 20.8557C93.6118 22.3287 91.9796 23.4892 89.6768 24.3261C89.9451 24.672 90.1351 24.9399 90.2469 25.1407L95.6798 32.4497L86.5579 33.2866C85.5741 31.4789 84.0203 28.9347 81.8963 25.6652L76.9664 26.1227V34.1793L69.0518 34.9046C69.2306 30.3965 69.32 26.1896 69.32 22.2729C69.32 18.3562 69.2306 14.1716 69.0518 9.68582L76.9664 8.96049V8.99397L83.8414 8.35792C88.3577 7.94505 91.5101 8.40256 93.2987 9.74161C95.0874 11.0807 95.9817 13.0334 95.9817 15.6C95.9817 17.6085 95.5122 19.3605 94.5508 20.8334L94.562 20.8557ZM76.9664 15.6781V19.6394L81.4939 19.2266C83.3943 19.048 84.8252 18.8583 85.7977 18.6351C86.7703 18.412 87.441 18.1553 87.8323 17.8429C88.2124 17.5304 88.4024 17.1064 88.4024 16.5708C88.4024 16.0352 88.2235 15.6892 87.8658 15.4437C87.5081 15.1982 86.8374 15.0643 85.8536 15.042C84.8699 15.0197 83.4166 15.0978 81.4939 15.2764L76.9664 15.6892V15.6781Z" fill="#F3EBE2"/>
<path d="M124.175 18.1219C123.225 19.5948 121.593 20.7553 119.29 21.5922C119.558 21.9382 119.748 22.206 119.86 22.4068L125.293 29.7158L116.171 30.5527C115.187 28.745 113.634 26.2008 111.51 22.9313L106.58 23.3888V31.4454L98.665 32.1707C98.8439 27.6626 98.9333 23.4557 98.9333 19.539C98.9333 15.6223 98.8439 11.4378 98.665 6.95193L106.58 6.22661V6.26008L113.455 5.62403C117.971 5.21116 121.123 5.66867 122.912 7.00772C124.701 8.34677 125.595 10.2996 125.595 12.8661C125.595 14.8747 125.125 16.6266 124.175 18.0995V18.1219ZM106.58 12.9442V16.9055L111.107 16.4815C113.008 16.303 114.45 16.1133 115.422 15.8901C116.395 15.6781 117.065 15.4103 117.446 15.0978C117.826 14.7854 118.016 14.3614 118.016 13.8257C118.016 13.2901 117.837 12.9442 117.479 12.6987C117.121 12.4532 116.451 12.3193 115.467 12.297C114.483 12.2747 113.03 12.3528 111.107 12.5202L106.58 12.9442Z" fill="#F3EBE2"/>
<path d="M36.7334 30.3966C36.7334 31.9699 36.3868 33.3425 35.6938 34.503C35.0007 35.6635 33.7598 36.6343 31.9712 37.4154C30.1826 38.1965 27.7009 38.7322 24.5261 39.0223L9.43457 40.4171C9.61343 35.909 9.70286 31.7021 9.70286 27.7854C9.70286 23.8687 9.61343 19.6841 9.43457 15.2095L17.3157 14.4842V14.5176L24.459 13.8593C27.2313 13.6026 29.4112 13.6361 31.021 13.9709C32.6196 14.2945 33.7486 14.8859 34.4082 15.7228C35.0677 16.5597 35.4031 17.6756 35.4031 19.0704C35.4031 20.4653 34.9224 21.782 33.9722 22.976C33.022 24.1588 31.3899 25.1966 29.087 26.0781C34.1846 25.6095 36.7334 27.0489 36.7334 30.4077V30.3966ZM17.3157 20.8335V24.0584L23.7547 23.467C25.1409 23.3331 26.1023 23.121 26.65 22.8198C27.1978 22.5185 27.4773 22.0275 27.4773 21.358C27.4773 20.8223 27.1978 20.4764 26.6165 20.309C26.0464 20.1417 25.085 20.1193 23.7547 20.2421L17.3157 20.8335ZM23.7547 32.7399C24.9173 32.6283 25.8004 32.4944 26.4153 32.3382C27.0301 32.182 27.4773 31.9476 27.7344 31.6575C28.0027 31.3674 28.1368 30.988 28.1368 30.5305C28.1368 29.9279 27.8126 29.5262 27.1866 29.3142C26.5494 29.1021 25.398 29.0798 23.7435 29.236L17.3045 29.8275V33.3313L23.7435 32.7399H23.7547Z" fill="#F3EBE2"/>
<path d="M147.472 27.6739C147.047 26.3907 146.477 24.7949 145.761 22.8645L135.063 23.8465L133.386 28.9683L124.969 29.7494L134.359 3.6714L146.7 2.5332L156.158 26.8705L147.472 27.6739ZM143.85 17.6199C143 15.2654 142.128 12.922 141.234 10.5675L140.429 8.3804C139.647 10.5564 138.495 13.8482 136.975 18.2448L143.85 17.6087V17.6199Z" fill="#F3EBE2"/>
<path d="M17.6175 61.8084C24.1013 61.1612 29.4671 60.5475 33.7151 59.9784C33.4244 61.1835 33.2456 62.3329 33.1785 63.4264C33.1114 64.52 33.0779 65.8479 33.0779 67.399L9.43457 69.5861C9.61343 65.0779 9.70286 60.8711 9.70286 56.9544C9.70286 53.0376 9.61343 48.8531 9.43457 44.3784L17.6175 43.6196V61.8196V61.8084Z" fill="#F3EBE2"/>
<path d="M55.8832 47.0007C53.2226 47.1011 51.2552 47.2127 49.9808 47.302V59.1749C51.2775 59.0299 53.245 58.7732 55.8832 58.3827V65.2899L36.3984 67.0865V60.1792C38.9696 60.0788 40.9259 59.9784 42.2673 59.8779V48.005C40.9259 48.1501 38.9696 48.4179 36.3984 48.7861V41.8788L55.8832 40.0823V46.9896V47.0007Z" fill="#F3EBE2"/>
<path d="M85.8643 55.0239C85.8643 56.5973 85.5177 57.9698 84.8246 59.1304C84.1315 60.2909 82.8907 61.2617 81.1021 62.0428C79.3134 62.8239 76.8317 63.3595 73.6569 63.6497L58.5654 65.0445C58.7443 60.5364 58.8337 56.3295 58.8337 52.4128C58.8337 48.4961 58.7443 44.3115 58.5654 39.8257L66.4465 39.1004V39.1338L73.5898 38.4755C76.3622 38.2188 78.5421 38.2523 80.1518 38.5871C81.7504 38.9107 82.8795 39.5021 83.5391 40.339C84.1986 41.1759 84.5228 42.2918 84.5228 43.6866C84.5228 45.0815 84.0421 46.3982 83.0919 47.5922C82.1417 48.775 80.5208 49.8128 78.2179 50.6943C83.3155 50.2257 85.8643 51.6651 85.8643 55.0239ZM66.4465 45.4609V48.6858L72.8856 48.0943C74.2718 47.9604 75.2331 47.7484 75.7809 47.4471C76.3287 47.1458 76.6081 46.6549 76.6081 45.9853C76.6081 45.4497 76.3287 45.1038 75.7585 44.9364C75.1884 44.769 74.227 44.7467 72.8856 44.8695L66.4465 45.4609ZM72.8856 57.3673C74.0482 57.2557 74.9313 57.1218 75.5462 56.9656C76.161 56.8093 76.6081 56.575 76.8764 56.2849C77.1447 55.9947 77.2789 55.6153 77.2789 55.1578C77.2789 54.5553 76.9547 54.1535 76.3287 53.9415C75.6915 53.7295 74.5512 53.7072 72.8856 53.8634L66.4465 54.4548V57.9587L72.8856 57.3673Z" fill="#F3EBE2"/>
<path d="M114.046 48.2281C113.096 49.7011 111.464 50.8616 109.161 51.6985C109.429 52.0444 109.62 52.3122 109.731 52.5131L115.164 59.8221L106.042 60.659C105.059 58.8513 103.505 56.3071 101.381 53.0376L96.4508 53.4951V61.5517L88.5361 62.277C88.715 57.7689 88.8044 53.562 88.8044 49.6453C88.8044 45.7286 88.715 41.544 88.5361 37.0694L96.4508 36.344V36.3775L103.326 35.7415C107.842 35.3286 110.995 35.7861 112.783 37.1252C114.572 38.4642 115.466 40.417 115.466 42.9947C115.466 45.0032 114.997 46.7552 114.046 48.2281ZM96.4508 43.0505V47.0118L100.978 46.5878C102.879 46.4093 104.321 46.2196 105.293 45.9964C106.266 45.7844 106.937 45.5165 107.328 45.2041C107.708 44.8917 107.898 44.4676 107.898 43.932C107.898 43.3964 107.719 43.0505 107.361 42.805C107.004 42.5595 106.333 42.4256 105.349 42.4033C104.365 42.3809 102.912 42.4479 100.989 42.6264L96.462 43.0505H96.4508Z" fill="#F3EBE2"/>
<path d="M126.076 52.4687C134.572 51.6429 140.732 50.9399 144.555 50.382C144.399 51.3416 144.309 52.3348 144.276 53.339C144.242 54.3545 144.231 55.6154 144.231 57.1442L118.173 59.5545C118.352 55.0463 118.441 50.8395 118.441 46.9227C118.441 43.006 118.352 38.8215 118.173 34.3468L144.231 31.9365V38.2189L126.088 39.8927V43.2292C127.161 43.1511 128.748 43.0172 130.85 42.8275C134.405 42.5039 138.082 42.091 141.883 41.6V47.57C138.082 47.782 134.405 48.0498 130.85 48.3845C128.748 48.5742 127.161 48.7416 126.088 48.8644V52.4798L126.076 52.4687Z" fill="#F3EBE2"/>
</g>
<g clip-path="url(#clip1_115_22354)">
<path d="M72.8952 84.0357C72.8153 84.1331 72.6734 84.1638 72.5137 84.1638C72.5492 83.9998 72.7621 83.8819 72.8952 84.0357Z" fill="#FF0000"/>
<path d="M67.0935 66.3664C66.9782 66.4535 66.6144 66.8277 66.6499 66.4945C66.8539 66.4587 66.9427 66.3408 67.0935 66.3664Z" fill="#FF0000"/>
<path d="M66.4719 64.1179C66.4364 64.2768 66.1614 64.1384 66.0283 64.1743C66.0283 63.9693 66.3921 64.0205 66.4719 64.1179Z" fill="#FF0000"/>
<path d="M64.6946 67.085C64.6059 67.1927 64.3574 67.2747 64.251 67.1414C64.2776 66.9877 64.5615 67.1209 64.6946 67.085Z" fill="#FF0000"/>
<path d="M63.8784 63.9692C63.7273 64.1489 63.4697 64.2105 63.1143 64.1592C63.2387 63.9436 63.603 64.0103 63.8784 63.9692Z" fill="#FF0000"/>
<path d="M61.674 79.2823C61.283 79.2977 60.4922 79.5698 60.2168 79.2412C60.6877 79.4466 61.2297 79.1129 61.674 79.2823Z" fill="#FF0000"/>
<path d="M60.6256 72.578C60.1369 72.9887 59.275 72.5267 58.6531 72.7987C58.5642 72.4548 59.5594 72.7525 59.7371 72.4805C59.8881 72.5061 59.9947 72.5729 60.1103 72.6293C60.2791 72.6037 60.439 72.3778 60.6167 72.5729" fill="#FF0000"/>
<path d="M54.6901 71.5615C54.7078 71.746 54.6546 71.8588 54.4949 71.8332C54.4505 71.7717 54.4328 71.6743 54.4417 71.5513C54.5215 71.5513 54.6102 71.5513 54.6901 71.5564" fill="#FF0000"/>
<path d="M52.2288 73.9434C51.8379 74.2616 50.9404 74.277 50.4518 74.0306C50.3807 74.0717 50.3807 74.1898 50.2563 74.1641C49.9631 74.2052 49.3055 74.0717 49.9453 74.0871C50.7361 73.8664 51.3581 74.0871 52.2288 73.9434Z" fill="#FF0000"/>
<path d="M51.9358 70.427C51.8471 70.5346 51.6874 70.5654 51.4922 70.5551C51.5365 70.386 51.8648 70.3501 51.9358 70.427Z" fill="#FF0000"/>
<path d="M51.3315 79.6055C51.2605 79.7644 50.9322 79.6209 50.7637 79.6567C50.8879 79.5645 51.1895 79.462 51.3315 79.6055Z" fill="#FF0000"/>
<path d="M51.4651 71.6025C51.3141 71.7822 50.9587 71.7309 50.7632 71.8643C50.5855 71.5871 51.2252 71.6385 51.4651 71.6025Z" fill="#FF0000"/>
<path d="M51.1714 70.6118C51.047 70.8274 50.6827 70.7607 50.4072 70.8018C50.5672 70.6323 50.9226 70.6837 51.1714 70.6118Z" fill="#FF0000"/>
<path d="M50.7171 81.2737C50.6905 81.5095 50.4421 81.4838 50.2646 81.5402C50.3001 81.3198 50.5574 81.3557 50.7171 81.2737Z" fill="#FF0000"/>
<path d="M50.4435 79.58C50.2391 79.7751 49.5283 79.7186 49.1729 79.6827C49.6171 79.5184 49.9548 79.5338 50.4435 79.58Z" fill="#FF0000"/>
<path d="M50.2743 70.7966C49.9456 71.12 49.4747 70.8633 49.1992 70.8325C49.5013 70.6426 49.9367 70.9865 50.2743 70.7966Z" fill="#FF0000"/>
<path d="M49.439 74.0716C49.3148 74.1895 49.1019 74.21 48.9245 74.2664C48.889 73.9588 49.2261 74.087 49.439 74.0716Z" fill="#FF0000"/>
<path d="M48.8875 73.3532C48.7367 73.5275 48.6036 73.4455 48.3818 73.4096C48.4351 73.2507 48.7367 73.3942 48.8875 73.3532Z" fill="#FF0000"/>
<path d="M48.3368 72.4954C48.2658 72.6799 47.7956 72.7158 47.8932 72.3416C48.0262 72.3109 48.0085 72.4442 48.0174 72.5569C48.1682 72.5877 48.1593 72.4339 48.3368 72.4954Z" fill="#FF0000"/>
<path d="M46.9961 77.8601C47.3066 77.573 47.8478 78.0087 46.9961 77.8601V77.8601Z" fill="#FF0000"/>
<path d="M46.3019 80.4374C46.0442 80.5811 45.7866 80.54 45.4756 80.4836C45.6711 80.3912 46.1686 80.3758 46.3019 80.4374Z" fill="#FF0000"/>
<path d="M46.1064 80.8528C46.1951 81.0681 45.6894 81.0578 45.787 80.8425C45.8934 80.8425 45.9999 80.8477 46.1064 80.8528Z" fill="#FF0000"/>
<path d="M45.5022 84.5542C45.4135 84.6977 45.2094 84.7284 45.0586 84.6823C45.103 84.5132 45.4312 84.4773 45.5022 84.5542Z" fill="#FF0000"/>
<path d="M43.7434 84.2204C43.0336 84.2102 43.2199 84.5434 43.7434 84.2204V84.2204Z" fill="#FF0000"/>
<path d="M57.9957 84.3643C57.8891 84.4567 57.7469 84.5029 57.6758 84.6364C57.4804 84.354 57.125 84.6056 56.8584 84.4721C57.1872 84.1641 57.5337 84.5594 58.0046 84.3643" fill="#FF0000"/>
<path d="M50.923 78.3273C50.772 78.3529 50.7898 78.1938 50.6121 78.2451C50.5943 78.1322 50.6743 78.1271 50.6831 78.0347C50.3633 77.9782 50.1945 78.086 49.919 78.086C49.9546 78.0295 49.9901 77.9731 49.9901 77.8755C49.6347 78.2554 49.2171 77.6548 48.4707 77.8293C49.1815 77.4289 50.7631 77.7267 51.394 77.6342C51.3051 77.9115 50.7542 77.6548 50.692 77.9628C50.6743 78.1835 51.0386 78.0039 50.9319 78.3221" fill="#FF0000"/>
<path d="M50.2559 71.7102C50.1849 71.7205 50.2204 71.7769 50.2559 71.782C50.2382 71.946 49.9809 71.8127 49.9365 71.7717C50.0164 71.577 50.8503 71.6846 50.2559 71.7102Z" fill="#FF0000"/>
<path d="M45.5475 72.4806C45.5475 72.3882 45.5475 72.2907 45.5475 72.1983C45.1388 72.2137 44.4902 72.2753 44.2236 72.0186C44.7034 71.8236 45.7253 72.3061 46.0629 71.8646C46.1429 71.9416 46.2939 71.9416 46.3739 72.0135C47.4934 71.572 48.7018 72.0443 49.8658 71.7671C49.3416 72.5114 48.1598 71.4899 47.5734 72.2599C47.4757 72.2188 47.5734 72.188 47.6356 72.1932C47.1202 72.2034 46.1962 72.034 45.5387 72.4806" fill="#FF0000"/>
<path d="M45.9648 81.4124C45.8672 81.5354 45.6898 81.5661 45.5744 81.684C45.5212 81.6687 45.8317 81.2227 45.9648 81.4124Z" fill="#FF0000"/>
<path d="M61.7177 69.4516C61.1934 69.4824 60.4471 69.7955 60.065 69.544C59.9584 69.544 60.1539 69.9444 59.9939 70.0317C59.7718 69.8571 59.5052 69.7288 59.1143 69.7236C59.0876 69.1436 59.8607 69.4875 59.8962 68.9742C60.1983 69.0204 60.3405 69.0512 60.4737 68.7791C61.0868 68.9742 61.2201 68.6148 61.6733 68.815C61.5489 69.1487 61.7532 69.0717 61.7177 69.4464M61.851 69.3078C61.8598 69.2257 61.8421 69.1846 61.7888 69.1641C61.922 68.8253 62.2241 69.3181 61.851 69.3078ZM174.125 84.1484C174.41 84.1484 174.721 83.8969 175.014 83.8917C175.707 83.8917 176.338 84.1638 177.04 84.0201C177.662 83.8969 178.248 83.5221 178.897 83.4451C179.376 83.3835 179.536 83.2809 179.856 83.1936C180.798 82.9369 181.562 83.0704 181.971 82.3466C182.628 81.8692 182.38 82.8445 182.957 82.3979C183.046 82.3261 183.242 82.362 183.277 82.3363C184.743 81.2173 185.365 80.4986 187.089 79.6978C187.24 79.2871 187.338 78.6865 187.631 78.168C187.764 77.937 188.057 77.7882 188.155 77.552C188.502 76.6794 188.2 75.5654 188.848 74.9032C188.884 74.6825 188.768 74.626 188.733 74.4771C188.75 72.7318 188.493 71.2637 188.653 69.9136C188.2 69.1128 188.306 68.1888 187.951 67.4342C187.737 66.967 187.311 66.5204 187.036 66.0738C186.716 65.5605 186.387 65.1652 186.12 64.6416C186.12 64.1129 185.721 64.0153 185.641 63.5739C185.152 63.2505 184.77 64.6057 184.272 64.2874C184.228 64.1129 184.103 64.0051 184.095 63.7895C183.046 62.8911 182.62 62.9835 181.18 62.6345C181.047 62.6037 180.771 62.5472 180.611 62.5472C179.545 62.5626 178.888 62.9014 178.328 62.1981C178.133 62.1417 178.141 62.3111 177.946 62.2546C177.822 61.9209 177.262 61.2895 176.764 61.3049C176.595 61.3101 176.302 61.7618 175.929 61.8439C175.378 61.962 173.859 60.8327 173.361 60.9251C173.13 60.9661 172.89 61.3717 172.65 61.4641C172.028 61.7053 170.767 61.5359 170.242 61.3922C169.834 61.2793 169.674 60.9456 169.363 61.0123C169.078 61.0739 166.591 61.5462 166.617 62.0852C165.809 63.271 164.725 61.6745 163.481 62.1981C162.565 61.7721 162.699 61.7926 161.828 61.7156C161.65 61.7002 161.446 61.5565 161.259 61.5565C160.957 61.5616 160.557 61.7926 160.175 61.8747C159.518 62.0185 158.94 61.9877 158.398 62.1725C157.554 61.4743 156.941 62.2803 156.239 62.2495C155.973 62.2392 155.715 62.0133 155.422 62.0133C155.173 62.0133 154.933 62.2187 154.658 62.2033C154.382 62.1879 154.098 61.9671 153.84 61.9671C153.645 61.9671 153.494 62.1057 153.334 62.0903C153.12 62.0698 152.987 61.9055 152.765 61.9312C152.534 61.962 152.294 62.2289 152.063 62.2597C151.201 62.3727 150.268 62.0801 149.46 62.6037C147.985 62.1673 146.705 62.8655 144.964 62.3983C144.528 62.5421 144.209 62.6396 143.755 62.501C143.658 62.5523 143.658 62.7217 143.498 62.7063C142.591 62.501 141.641 63.0862 140.708 62.8347C140.672 62.9168 140.637 62.9938 140.574 63.04C139.286 62.7063 137.66 62.6601 136.647 63.0657C135.865 62.7166 134.95 63.117 133.982 63.1273C133.528 63.1273 133.084 62.9425 132.658 63.0195C131.822 63.1683 130.73 62.9887 129.93 63.0811C129.69 63.1067 129.077 63.3685 128.846 63.3993C128.419 63.4609 125.727 62.6191 125.274 62.7217C123.533 63.117 121.533 62.8449 120.014 62.8449C119.543 62.8449 119.143 63.0708 118.61 63.1529C117.739 63.2864 116.833 62.9117 115.953 63.0041C115.731 63.0246 115.518 63.1683 115.314 63.194C114.789 63.271 114.283 63.1324 113.732 63.1478C112.373 63.1786 111.013 63.5687 109.734 63.2402C108.099 63.7022 105.726 63.5533 103.834 63.6252C103.407 64.0102 103.008 63.6765 102.563 63.7279C101.213 63.8819 99.4712 64.3131 98.0584 64.0153C92.0875 64.693 85.7879 64.5646 79.8792 65.3346C79.4171 65.042 78.6974 65.232 78.2976 65.427C78.2087 65.2474 77.9422 65.2576 77.7289 65.2012C76.9915 65.6683 76.0585 65.2884 75.1256 65.4065C74.8856 65.8634 74.3259 65.5194 73.9705 65.8634C73.8194 65.6118 74.1748 65.6478 73.9172 65.5092C73.313 66.3356 71.2693 65.9506 70.3542 66.1765C70.4164 66.1765 70.4341 66.2997 70.3542 66.3151C70.132 66.1098 71.3671 67.1826 72.1134 66.9773C73.6239 66.5615 69.2613 66.079 67.8396 66.3767C67.6619 66.2586 67.1821 65.9096 67.0222 66.2124C67.2799 66.2638 67.6086 66.2381 67.582 66.582C67.1555 66.4691 66.5957 66.6231 66.3114 66.8952C65.7871 66.926 65.5117 66.7463 65.0408 66.9978C64.9253 66.9927 65.1563 67.352 64.9075 67.3418C64.17 67.1621 63.7968 67.4598 63.1304 67.2904C62.935 67.6138 62.1619 67.7114 61.922 67.5368C61.7088 67.6806 62.1619 67.8089 61.9754 67.891C61.38 67.9937 60.8203 68.1272 60.2605 67.9116C60.1272 68.0656 60.0295 68.2709 59.8073 68.3171C59.6563 68.3428 59.8518 67.9988 59.6208 68.1015C59.4075 68.2863 59.7896 68.4249 59.7363 68.6662C59.4342 68.7791 59.4964 68.9536 59.3453 69.1487C58.9277 68.9536 58.6434 69.3489 58.2613 69.467C57.8704 69.5902 57.435 69.467 57.0529 69.5696C56.7242 69.6569 56.5909 69.9033 56.2177 69.8931C55.9156 69.8931 55.6668 69.6364 55.3381 69.6569C55.1603 69.7134 55.4536 69.9187 55.2048 69.9341C54.0408 70.0163 52.8768 70.1035 52.0238 70.5399C53.3389 69.9906 54.2985 70.5758 55.4536 70.083C55.6313 70.3961 55.9689 69.8879 56.1466 70.314C56.2266 70.1343 55.96 70.006 56.2177 70.0368C56.3065 70.0625 56.3332 70.1395 56.4665 70.1138C56.2977 70.4885 56.5465 70.4885 56.6442 70.7503C57.6305 70.7298 58.3946 70.5553 59.2476 70.545C59.4075 70.4577 59.141 70.3294 59.3187 70.2678C59.6474 70.2062 59.8873 70.2627 60.2694 70.1549C60.3849 70.4321 60.6426 70.5707 60.5004 70.9351C59.3542 70.9095 57.7993 71.4587 56.4309 71.5152C56.0222 71.5306 55.5868 71.2483 55.3469 71.6949C55.96 71.5614 56.4576 72.0491 56.9818 72.0953C57.6749 72.1517 58.4035 71.7103 59.0788 71.8078C59.2653 71.8335 59.3453 71.9618 59.5141 71.9618C59.6474 71.9618 59.8784 71.7513 60.0295 71.7667C60.1894 71.7821 60.2072 71.931 60.3405 71.9156C60.6248 71.8848 60.8469 71.6538 61.1668 71.6589C61.6999 71.6743 62.2241 71.9361 62.8106 71.8489C62.9172 71.9721 62.8728 72.2852 62.7306 72.3365C62.0375 72.3211 61.922 72.3365 61.2112 72.3622C61.2912 72.393 61.3356 72.4546 61.3356 72.5778C61.1135 72.5573 61.0424 72.47 60.8913 72.6343C61.4156 72.6189 61.3712 73.163 61.1934 73.4145C59.8873 73.317 58.2791 73.5685 57.204 73.3632C57.0885 73.5121 57.0085 73.7123 56.813 73.7739C55.6046 73.9484 54.2452 73.7739 52.939 73.9381C54.4229 74.3539 55.9689 74.1075 57.6927 73.9381C57.7548 74.0049 57.7104 74.1999 57.8792 74.1537C58.6167 73.9587 59.4697 74.01 60.0384 73.9381C60.2872 74.241 60.5359 74.5541 60.7758 74.8724C62.5796 74.6157 63.9035 75.858 65.6272 75.858C65.6183 76.0736 65.7516 76.1352 65.8049 76.2841C65.6627 76.4586 65.5739 76.6845 65.414 76.8334C65.1296 76.8488 64.8364 76.9617 64.5876 76.8077C63.1304 77.434 61.0602 76.9874 59.2476 77.3518C59.0254 77.7009 59.2031 77.9678 59.3542 78.2656C60.225 78.4709 61.0246 77.9781 61.9487 78.4144C62.2775 79.2409 61.9309 79.821 61.2201 79.8672C60.0384 79.9442 57.9948 79.8672 57.2306 79.7491C53.7565 80.2368 50.3179 80.0366 46.7549 80.4216C48.7274 80.5807 50.5578 80.1392 52.3348 80.4472C52.3348 80.2932 52.397 80.2265 52.5303 80.2419C54.2718 80.3292 56.1999 80.3138 57.7282 80.0468C58.3679 80.555 59.603 79.9596 60.2516 80.4729C60.0917 81.2686 59.5586 81.6331 58.8922 81.8384C59.5763 81.7922 60.2161 82.054 60.7847 82.1053C61.2556 82.1464 62.0731 81.9051 62.3041 82.0797C62.3574 82.1207 62.2508 82.285 62.3574 82.2901C62.1619 82.2799 62.7039 82.2439 62.7395 82.2337C62.9972 82.1413 62.9438 82.0848 63.2459 82.1105C63.6369 82.1413 63.628 82.1567 63.8768 82.3415C65.2274 82.4698 66.5246 82.2234 67.8663 82.3877C68.0085 82.4031 68.2928 82.3877 68.3106 82.4031C68.4349 82.4544 68.3283 82.593 68.4971 82.6187C68.5949 82.6341 68.5505 82.4647 68.6926 82.4852C69.2168 82.5519 69.8122 82.6187 70.3364 82.6033C71.6425 82.5622 73.1975 82.7521 74.2637 82.7213C74.5036 82.7727 74.1926 83.0139 74.5125 83.0088C76.3517 83.1782 78.2976 83.3168 80.2701 83.3887C80.4212 83.4143 80.2968 83.7223 80.5189 83.6761C80.7944 83.7275 80.7233 83.3887 80.9721 83.4092C81.1231 83.5016 81.2653 83.6043 81.3452 83.7685C83.6021 84.0303 85.93 83.7429 88.258 83.6248C90.426 83.5119 92.6029 83.5221 94.6643 83.4657C96.2903 83.4195 97.8452 83.1217 99.2935 83.3219C101.239 83.0858 102.928 83.1012 104.749 83.0601C106.064 83.0345 107.512 83.1936 108.614 83.0345C108.801 83.0037 109.032 82.8445 109.254 82.8394C109.592 82.8394 109.929 83.0755 110.258 83.0807C111.164 83.0858 112.088 82.7983 112.986 82.8086C113.999 82.824 114.967 82.8702 115.962 82.8959C116.522 82.9113 117.064 82.6803 117.615 82.6649C117.979 82.6546 118.37 82.8445 118.752 82.8394C119.818 82.8291 120.911 82.5211 121.924 82.5827C123.275 82.6649 124.67 82.9729 126.038 82.6341C127.558 82.8189 129.397 82.8291 130.854 82.7059C132.027 83.2655 133.262 82.6905 134.595 82.8189C134.737 82.8343 134.826 82.9421 134.968 82.9729C136.985 83.3887 139.224 82.6392 140.859 83.0088C141.472 82.6392 141.996 83.0447 142.565 83.132C143.178 83.2193 143.755 82.9831 144.342 82.9729C144.537 82.9729 144.715 83.1115 144.91 83.132C145.506 83.1833 146.092 82.9523 146.75 82.9061C147.736 82.8394 148.784 83.4451 149.913 83.0704C150.784 83.3322 152.081 83.6351 153.076 83.3065C154.764 83.8353 155.386 82.8548 157.128 83.0909C157.714 83.1731 159.056 83.5427 159.642 83.209C160.255 83.5889 160.886 83.4862 161.633 83.5324C162.37 83.5735 163.134 83.7942 163.907 83.8815C165.009 84.0047 167.435 82.4493 168.261 83.2193C168.634 84.8157 169.363 82.4698 170.233 82.7881C170.696 83.1115 170.633 83.5581 170.838 84.1381C171.255 84.3794 172.286 83.3784 172.686 83.2501C173.157 83.4092 173.494 84.1279 174.125 84.1381" fill="#FF0000"/>
</g>
<path d="M88.9027 71.4729C88.0476 71.4457 87.217 71.4294 86.4109 71.4239V75.6887H84.3683V71.4239C83.5568 71.4294 82.7288 71.4457 81.8846 71.4729V69.7572H88.9027V71.4729ZM92.9814 75.7704C91.7341 75.7704 90.8163 75.5008 90.2281 74.9616C89.6398 74.4169 89.3457 73.6544 89.3457 72.6739C89.3457 71.7044 89.6371 70.9473 90.2199 70.4026C90.8081 69.858 91.7286 69.5856 92.9814 69.5856C94.2396 69.5856 95.1601 69.858 95.7429 70.4026C96.3312 70.9473 96.6253 71.7044 96.6253 72.6739C96.6253 73.6598 96.3339 74.4224 95.7511 74.9616C95.1683 75.5008 94.245 75.7704 92.9814 75.7704ZM92.9814 74.1037C93.586 74.1037 94.0217 73.9893 94.2886 73.7606C94.5555 73.5264 94.689 73.1642 94.689 72.6739C94.689 72.1946 94.5555 71.8379 94.2886 71.6037C94.0217 71.3694 93.586 71.2523 92.9814 71.2523C92.3823 71.2523 91.9492 71.3694 91.6823 71.6037C91.4155 71.8379 91.282 72.1946 91.282 72.6739C91.282 73.1587 91.4155 73.5182 91.6823 73.7524C91.9492 73.9866 92.3823 74.1037 92.9814 74.1037ZM100.163 69.6673C101.187 69.6673 101.996 69.7926 102.59 70.0432C103.183 70.2883 103.597 70.6314 103.832 71.0726C104.071 71.5083 104.191 72.0448 104.191 72.6821C104.191 73.2867 104.055 73.815 103.783 74.2671C103.51 74.7192 103.102 75.0705 102.557 75.3211C102.012 75.5662 101.342 75.6887 100.547 75.6887C100.062 75.6887 99.5695 75.6887 99.0684 75.6887C98.5673 75.6887 98.0608 75.686 97.5488 75.6806C97.5924 74.6075 97.6142 73.6081 97.6142 72.6821C97.6142 71.7453 97.5924 70.7676 97.5488 69.749C98.197 69.6946 99.0684 69.6673 100.163 69.6673ZM100.776 74.0629C101.283 74.0629 101.62 73.9403 101.789 73.6952C101.958 73.4501 102.042 73.1124 102.042 72.6821C102.042 72.2682 101.952 71.9332 101.773 71.6772C101.598 71.4212 101.266 71.2932 100.776 71.2932C100.248 71.2932 99.8528 71.3095 99.5913 71.3422V74.0629H100.776ZM108.749 75.7704C107.502 75.7704 106.584 75.5008 105.996 74.9616C105.408 74.4169 105.114 73.6544 105.114 72.6739C105.114 71.7044 105.405 70.9473 105.988 70.4026C106.576 69.858 107.497 69.5856 108.749 69.5856C110.008 69.5856 110.928 69.858 111.511 70.4026C112.099 70.9473 112.393 71.7044 112.393 72.6739C112.393 73.6598 112.102 74.4224 111.519 74.9616C110.936 75.5008 110.013 75.7704 108.749 75.7704ZM108.749 74.1037C109.354 74.1037 109.79 73.9893 110.057 73.7606C110.323 73.5264 110.457 73.1642 110.457 72.6739C110.457 72.1946 110.323 71.8379 110.057 71.6037C109.79 71.3694 109.354 71.2523 108.749 71.2523C108.15 71.2523 107.717 71.3694 107.45 71.6037C107.183 71.8379 107.05 72.1946 107.05 72.6739C107.05 73.1587 107.183 73.5182 107.45 73.7524C107.717 73.9866 108.15 74.1037 108.749 74.1037ZM113.317 74.9861C113.502 74.7083 113.654 74.4496 113.774 74.2099C113.9 73.9703 114.019 73.6925 114.134 73.3766C114.52 73.5999 114.97 73.7742 115.482 73.8995C115.994 74.0247 116.47 74.0874 116.912 74.0874C117.364 74.0874 117.682 74.0492 117.867 73.973C118.053 73.8913 118.145 73.8041 118.145 73.7116C118.145 73.3793 117.639 73.2132 116.626 73.2132C115.514 73.2132 114.708 73.0988 114.207 72.87C113.706 72.6358 113.456 72.26 113.456 71.7425C113.456 71.0072 113.761 70.4653 114.371 70.1167C114.981 69.7681 115.773 69.5938 116.748 69.5938C117.315 69.5938 117.895 69.6673 118.488 69.8144C119.088 69.956 119.627 70.1521 120.106 70.4026C119.948 70.7621 119.782 71.2006 119.608 71.718C119.575 71.827 119.548 71.9087 119.526 71.9631C119.248 71.7398 118.829 71.5546 118.268 71.4076C117.707 71.2551 117.211 71.1788 116.781 71.1788C116.263 71.1788 115.915 71.2142 115.735 71.285C115.555 71.3504 115.465 71.4484 115.465 71.5791C115.465 71.7099 115.588 71.8161 115.833 71.8978C116.084 71.974 116.443 72.0122 116.912 72.0122C118.066 72.0122 118.905 72.1456 119.428 72.4125C119.951 72.6739 120.212 73.077 120.212 73.6217C120.212 74.3842 119.935 74.9343 119.379 75.272C118.823 75.6043 117.982 75.7704 116.854 75.7704C116.25 75.7704 115.634 75.7051 115.008 75.5743C114.382 75.4382 113.818 75.2421 113.317 74.9861ZM125.038 74.0384C126.618 74.0275 127.925 74.0002 128.96 73.9567C128.889 74.2344 128.846 74.5013 128.829 74.7573C128.813 75.0133 128.805 75.3238 128.805 75.6887H123.045C123.088 74.6321 123.11 73.6435 123.11 72.723C123.11 71.8025 123.088 70.8139 123.045 69.7572H125.038V74.0384ZM133.112 75.7704C131.865 75.7704 130.947 75.5008 130.359 74.9616C129.771 74.4169 129.477 73.6544 129.477 72.6739C129.477 71.7044 129.768 70.9473 130.351 70.4026C130.939 69.858 131.86 69.5856 133.112 69.5856C134.371 69.5856 135.291 69.858 135.874 70.4026C136.462 70.9473 136.756 71.7044 136.756 72.6739C136.756 73.6598 136.465 74.4224 135.882 74.9616C135.299 75.5008 134.376 75.7704 133.112 75.7704ZM133.112 74.1037C133.717 74.1037 134.153 73.9893 134.42 73.7606C134.686 73.5264 134.82 73.1642 134.82 72.6739C134.82 72.1946 134.686 71.8379 134.42 71.6037C134.153 71.3694 133.717 71.2523 133.112 71.2523C132.513 71.2523 132.08 71.3694 131.813 71.6037C131.546 71.8379 131.413 72.1946 131.413 72.6739C131.413 73.1587 131.546 73.5182 131.813 73.7524C132.08 73.9866 132.513 74.1037 133.112 74.1037ZM137.68 74.9861C137.865 74.7083 138.017 74.4496 138.137 74.2099C138.263 73.9703 138.382 73.6925 138.497 73.3766C138.883 73.5999 139.333 73.7742 139.845 73.8995C140.357 74.0247 140.833 74.0874 141.275 74.0874C141.727 74.0874 142.045 74.0492 142.231 73.973C142.416 73.8913 142.508 73.8041 142.508 73.7116C142.508 73.3793 142.002 73.2132 140.989 73.2132C139.878 73.2132 139.071 73.0988 138.57 72.87C138.069 72.6358 137.819 72.26 137.819 71.7425C137.819 71.0072 138.124 70.4653 138.734 70.1167C139.344 69.7681 140.136 69.5938 141.111 69.5938C141.678 69.5938 142.258 69.6673 142.851 69.8144C143.451 69.956 143.99 70.1521 144.469 70.4026C144.311 70.7621 144.145 71.2006 143.971 71.718C143.938 71.827 143.911 71.9087 143.889 71.9631C143.611 71.7398 143.192 71.5546 142.631 71.4076C142.07 71.2551 141.574 71.1788 141.144 71.1788C140.626 71.1788 140.278 71.2142 140.098 71.285C139.918 71.3504 139.828 71.4484 139.828 71.5791C139.828 71.7099 139.951 71.8161 140.196 71.8978C140.447 71.974 140.806 72.0122 141.275 72.0122C142.429 72.0122 143.268 72.1456 143.791 72.4125C144.314 72.6739 144.575 73.077 144.575 73.6217C144.575 74.3842 144.298 74.9343 143.742 75.272C143.186 75.6043 142.345 75.7704 141.217 75.7704C140.613 75.7704 139.997 75.7051 139.371 75.5743C138.745 75.4382 138.181 75.2421 137.68 74.9861ZM150.022 69.6673C151.046 69.6673 151.855 69.7926 152.449 70.0432C153.043 70.2883 153.456 70.6314 153.691 71.0726C153.93 71.5083 154.05 72.0448 154.05 72.6821C154.05 73.2867 153.914 73.815 153.642 74.2671C153.369 74.7192 152.961 75.0705 152.416 75.3211C151.871 75.5662 151.202 75.6887 150.406 75.6887C149.922 75.6887 149.429 75.6887 148.927 75.6887C148.426 75.6887 147.92 75.686 147.408 75.6806C147.451 74.6075 147.473 73.6081 147.473 72.6821C147.473 71.7453 147.451 70.7676 147.408 69.749C148.056 69.6946 148.927 69.6673 150.022 69.6673ZM150.635 74.0629C151.142 74.0629 151.479 73.9403 151.648 73.6952C151.817 73.4501 151.901 73.1124 151.901 72.6821C151.901 72.2682 151.812 71.9332 151.632 71.6772C151.458 71.4212 151.125 71.2932 150.635 71.2932C150.107 71.2932 149.712 71.3095 149.45 71.3422V74.0629H150.635ZM159.719 71.3831C159.071 71.3504 158.592 71.3313 158.282 71.3259V74.1201C158.597 74.1146 159.077 74.0955 159.719 74.0629V75.6887H154.973V74.0629C155.599 74.0955 156.076 74.1146 156.402 74.1201V71.3259C156.076 71.3313 155.599 71.3504 154.973 71.3831V69.7572H159.719V71.3831ZM157.816 69.3977H156.778L156.974 68.1314H158.486L157.816 69.3977ZM165.802 75.6887C165.698 75.3783 165.559 74.9888 165.385 74.5204H162.779L162.37 75.6887H160.32L162.607 69.7572H165.614L167.918 75.6887H165.802ZM164.919 73.2459C164.713 72.6739 164.5 72.102 164.282 71.5301L164.086 70.9991C163.896 71.4947 163.615 72.2437 163.245 73.2459H164.919ZM168.299 74.9861C168.484 74.7083 168.637 74.4496 168.757 74.2099C168.882 73.9703 169.002 73.6925 169.116 73.3766C169.503 73.5999 169.952 73.7742 170.464 73.8995C170.976 74.0247 171.453 74.0874 171.894 74.0874C172.346 74.0874 172.665 74.0492 172.85 73.973C173.035 73.8913 173.128 73.8041 173.128 73.7116C173.128 73.3793 172.621 73.2132 171.608 73.2132C170.497 73.2132 169.691 73.0988 169.19 72.87C168.689 72.6358 168.438 72.26 168.438 71.7425C168.438 71.0072 168.743 70.4653 169.353 70.1167C169.963 69.7681 170.756 69.5938 171.731 69.5938C172.297 69.5938 172.877 69.6673 173.471 69.8144C174.07 69.956 174.609 70.1521 175.088 70.4026C174.931 70.7621 174.764 71.2006 174.59 71.718C174.557 71.827 174.53 71.9087 174.508 71.9631C174.231 71.7398 173.811 71.5546 173.25 71.4076C172.689 71.2551 172.194 71.1788 171.763 71.1788C171.246 71.1788 170.897 71.2142 170.717 71.285C170.538 71.3504 170.448 71.4484 170.448 71.5791C170.448 71.7099 170.57 71.8161 170.816 71.8978C171.066 71.974 171.426 72.0122 171.894 72.0122C173.049 72.0122 173.887 72.1456 174.41 72.4125C174.933 72.6739 175.195 73.077 175.195 73.6217C175.195 74.3842 174.917 74.9343 174.361 75.272C173.806 75.6043 172.964 75.7704 171.837 75.7704C171.232 75.7704 170.617 75.7051 169.99 75.5743C169.364 75.4382 168.8 75.2421 168.299 74.9861Z" fill="#F3EBE2"/>
<defs>
<clipPath id="clip0_115_22354">
<rect width="157.868" height="81.035" fill="white"/>
</clipPath>
<clipPath id="clip1_115_22354">
<rect width="145.576" height="23.7675" fill="white" transform="translate(43.2725 60.9355)"/>
</clipPath>
</defs>
</svg>
