<svg width="31" height="30" viewBox="0 0 31 30" fill="none" xmlns="http://www.w3.org/2000/svg">
<path fill-rule="evenodd" clip-rule="evenodd" d="M6.09761 0C4.65098 0 3.26359 0.574674 2.24067 1.5976C1.21774 2.62053 0.643066 4.00791 0.643066 5.45455V24.5455C0.643066 25.9921 1.21774 27.3795 2.24067 28.4024C3.26359 29.4253 4.65098 30 6.09761 30H25.1885C26.6352 30 28.0225 29.4253 29.0455 28.4024C30.0684 27.3795 30.6431 25.9921 30.6431 24.5455V5.45455C30.6431 4.00791 30.0684 2.62053 29.0455 1.5976C28.0225 0.574674 26.6352 0 25.1885 0H6.09761ZM15.5394 3.77318C12.8994 3.77318 10.4612 4.74818 8.70216 6.80045C6.9567 8.83909 5.98443 11.8091 5.98443 15.6273C5.98443 19.5327 7.33852 22.2409 9.39352 23.9523C11.4076 25.6295 13.9522 26.2268 16.1667 26.2268C20.6422 26.2268 24.2885 23.4723 24.4644 19.5123C24.5531 17.5241 23.6735 15.8714 22.2131 14.7573C21.8126 14.4535 21.3811 14.193 20.9258 13.98C20.9212 13.8949 20.9157 13.8099 20.9094 13.725C20.7526 11.6455 19.8635 10.3364 18.7412 9.59046C17.9278 9.06394 16.9802 8.78231 16.0112 8.77909C14.4512 8.77909 13.089 9.42682 11.9899 10.6882C11.887 10.8064 11.8084 10.9437 11.7586 11.0922C11.7088 11.2408 11.6887 11.3977 11.6995 11.554C11.7104 11.7104 11.7519 11.863 11.8217 12.0033C11.8915 12.1436 11.9883 12.2687 12.1065 12.3716C12.2247 12.4745 12.362 12.5531 12.5105 12.6029C12.6591 12.6527 12.816 12.6728 12.9723 12.6619C13.1286 12.6511 13.2813 12.6096 13.4216 12.5398C13.5619 12.47 13.687 12.3732 13.7899 12.255C14.4717 11.4723 15.1944 11.1655 16.0126 11.1655C16.3031 11.1655 16.9017 11.2336 17.4212 11.5786C17.799 11.8295 18.2367 12.2905 18.4372 13.2382C17.8703 13.1519 17.2978 13.1091 16.7244 13.11C14.6926 13.11 13.2649 13.6268 12.3785 14.5759C11.4949 15.5209 11.3667 16.6636 11.4117 17.4355C11.4413 17.94 11.5768 18.4327 11.8094 18.8815C12.042 19.3302 12.3664 19.725 12.7617 20.04C13.614 20.7273 14.7799 21.06 16.1667 20.9577C17.6722 20.8473 18.9853 20.0809 19.8485 18.7705C20.2549 18.1541 20.5508 17.4341 20.7322 16.6295L20.7649 16.6541C21.654 17.3332 22.1326 18.2591 22.0808 19.4059C21.9785 21.7173 19.7762 23.8405 16.1667 23.8405C14.3381 23.8405 12.3894 23.3414 10.9194 22.1182C9.49034 20.9277 8.37079 18.9341 8.37079 15.6273C8.37079 12.195 9.24489 9.83591 10.5144 8.35364C11.769 6.89045 13.5117 6.15955 15.5394 6.15955C17.6899 6.15955 19.3944 6.675 20.6149 7.55045C21.8176 8.41227 22.6331 9.68182 22.9344 11.3768C22.9899 11.6884 23.167 11.9651 23.4265 12.1462C23.6861 12.3273 24.007 12.3978 24.3185 12.3423C24.6301 12.2868 24.9068 12.1097 25.0879 11.8502C25.269 11.5906 25.3395 11.2698 25.284 10.9582C24.879 8.68909 23.7431 6.85773 22.0058 5.61136C20.2849 4.37727 18.0567 3.77318 15.5394 3.77318ZM16.7244 15.4964C17.3572 15.4964 17.9462 15.5577 18.4835 15.6709C18.3717 16.4318 18.1426 17.0236 17.8562 17.4573C17.394 18.1582 16.7476 18.5223 15.9908 18.5782C15.0826 18.645 14.5494 18.4173 14.2576 18.1827C14.1221 18.0761 14.0107 17.942 13.9308 17.7892C13.8509 17.6364 13.8043 17.4685 13.794 17.2964C13.7694 16.8818 13.8526 16.4932 14.1226 16.2055C14.3899 15.9191 15.0581 15.4964 16.7244 15.4964Z" fill="#F3EBE2"/>
</svg>
