<svg width="31" height="30" viewBox="0 0 31 30" fill="none" xmlns="http://www.w3.org/2000/svg">
<path fill-rule="evenodd" clip-rule="evenodd" d="M6.09761 0C4.65098 0 3.26359 0.574674 2.24067 1.5976C1.21774 2.62053 0.643066 4.00791 0.643066 5.45455V24.5455C0.643066 25.9921 1.21774 27.3795 2.24067 28.4024C3.26359 29.4253 4.65098 30 6.09761 30H25.1885C26.6352 30 28.0225 29.4253 29.0455 28.4024C30.0684 27.3795 30.6431 25.9921 30.6431 24.5455V5.45455C30.6431 4.00791 30.0684 2.62053 29.0455 1.5976C28.0225 0.574674 26.6352 0 25.1885 0H6.09761ZM16.1067 4.77273H19.3617C19.3617 6.95455 21.2053 9.42273 24.0117 9.42273V12.6764C22.0794 12.5427 20.4281 12.2264 19.3617 11.2814V19.6486C19.3617 21.9736 17.5235 25.2273 13.3194 25.2273C8.18397 25.2273 7.27579 20.5773 7.27579 19.1836C7.27579 17.79 8.09398 13.14 13.7831 13.14V16.395C12.2953 16.08 10.5294 17.3236 10.5294 19.1836C10.5294 21.5086 11.9244 21.9736 13.3194 21.9736C14.7131 21.9736 16.1081 20.5786 16.1081 19.1836L16.1067 4.77273Z" fill="#F3EBE2"/>
</svg>
