<svg width="371" height="50" viewBox="0 0 371 50" fill="none" xmlns="http://www.w3.org/2000/svg">
<path d="M8.87839 4.312C11.8864 4.312 14.2624 4.68 16.0064 5.416C17.7504 6.136 18.9664 7.144 19.6544 8.44C20.3584 9.72 20.7104 11.296 20.7104 13.168C20.7104 14.944 20.3104 16.496 19.5104 17.824C18.7104 19.152 17.5104 20.184 15.9104 20.92C14.3104 21.64 12.3424 22 10.0064 22C8.58239 22 7.13439 22 5.66239 22C4.19039 22 2.70239 21.992 1.19839 21.976C1.32639 18.824 1.39039 15.888 1.39039 13.168C1.39039 10.416 1.32639 7.544 1.19839 4.552C3.10239 4.392 5.66239 4.312 8.87839 4.312ZM10.6784 17.224C12.1664 17.224 13.1584 16.864 13.6544 16.144C14.1504 15.424 14.3984 14.432 14.3984 13.168C14.3984 11.952 14.1344 10.968 13.6064 10.216C13.0944 9.464 12.1184 9.088 10.6784 9.088C9.12639 9.088 7.96639 9.136 7.19839 9.232V17.224H10.6784ZM28.7621 17.608C34.8421 17.576 39.2501 17.488 41.9861 17.344C41.8741 18 41.8021 18.68 41.7701 19.384C41.7541 20.072 41.7461 20.944 41.7461 22H23.0981C23.2261 18.896 23.2901 15.992 23.2901 13.288C23.2901 10.584 23.2261 7.68 23.0981 4.576H41.7461V8.92H28.7621V11.224C29.5301 11.24 30.6661 11.248 32.1701 11.248C34.7141 11.248 37.3461 11.2 40.0661 11.104V15.232C37.3461 15.136 34.7141 15.088 32.1701 15.088C30.6661 15.088 29.5301 15.096 28.7621 15.112V17.608ZM50.2445 17.152C54.8845 17.12 58.7245 17.04 61.7645 16.912C61.5565 17.728 61.4285 18.512 61.3805 19.264C61.3325 20.016 61.3085 20.928 61.3085 22H44.3885C44.5165 18.896 44.5805 15.992 44.5805 13.288C44.5805 10.584 44.5165 7.68 44.3885 4.576H50.2445V17.152ZM78.0994 9.352C76.1954 9.256 74.7874 9.2 73.8754 9.184V17.392C74.8034 17.376 76.2114 17.32 78.0994 17.224V22H64.1554V17.224C65.9954 17.32 67.3954 17.376 68.3554 17.392V9.184C67.3954 9.2 65.9954 9.256 64.1554 9.352V4.576H78.0994V9.352ZM91.0604 22.24C87.4444 22.24 84.7804 21.472 83.0684 19.936C81.3564 18.4 80.5004 16.208 80.5004 13.36C80.5004 10.496 81.3564 8.232 83.0684 6.568C84.7804 4.904 87.4444 4.072 91.0604 4.072C96.1164 4.072 99.5004 5.808 101.212 9.28C99.7724 9.776 98.0844 10.52 96.1484 11.512C95.6844 10.616 94.9484 9.952 93.9404 9.52C92.9484 9.088 91.9324 8.872 90.8924 8.872C89.3564 8.872 88.2124 9.28 87.4604 10.096C86.7084 10.896 86.3324 11.888 86.3324 13.072C86.3324 14.352 86.7324 15.4 87.5324 16.216C88.3484 17.016 89.5884 17.416 91.2524 17.416C92.5804 17.416 93.6364 17.2 94.4204 16.768C95.2044 16.32 95.7804 15.616 96.1484 14.656C97.4604 15.36 99.1404 16.152 101.188 17.032C100.388 18.968 99.0524 20.32 97.1804 21.088C95.3084 21.856 93.2684 22.24 91.0604 22.24ZM117.563 9.352C115.659 9.256 114.251 9.2 113.339 9.184V17.392C114.267 17.376 115.675 17.32 117.563 17.224V22H103.619V17.224C105.459 17.32 106.859 17.376 107.819 17.392V9.184C106.859 9.2 105.459 9.256 103.619 9.352V4.576H117.563V9.352ZM135.108 22C134.804 21.088 134.396 19.944 133.884 18.568H126.228L125.028 22H119.004L125.724 4.576H134.556L141.324 22H135.108ZM132.516 14.824C131.908 13.144 131.284 11.464 130.644 9.784L130.068 8.224C129.508 9.68 128.684 11.88 127.596 14.824H132.516ZM142.121 19.936C142.665 19.12 143.113 18.36 143.465 17.656C143.833 16.952 144.185 16.136 144.521 15.208C145.657 15.864 146.977 16.376 148.481 16.744C149.985 17.112 151.385 17.296 152.681 17.296C154.009 17.296 154.945 17.184 155.489 16.96C156.033 16.72 156.305 16.464 156.305 16.192C156.305 15.216 154.817 14.728 151.841 14.728C148.577 14.728 146.209 14.392 144.737 13.72C143.265 13.032 142.529 11.928 142.529 10.408C142.529 8.248 143.425 6.656 145.217 5.632C147.009 4.608 149.337 4.096 152.201 4.096C153.865 4.096 155.569 4.312 157.313 4.744C159.073 5.16 160.657 5.736 162.065 6.472C161.601 7.528 161.113 8.816 160.601 10.336C160.505 10.656 160.425 10.896 160.361 11.056C159.545 10.4 158.313 9.856 156.665 9.424C155.017 8.976 153.561 8.752 152.297 8.752C150.777 8.752 149.753 8.856 149.225 9.064C148.697 9.256 148.433 9.544 148.433 9.928C148.433 10.312 148.793 10.624 149.513 10.864C150.249 11.088 151.305 11.2 152.681 11.2C156.073 11.2 158.537 11.592 160.073 12.376C161.609 13.144 162.377 14.328 162.377 15.928C162.377 18.168 161.561 19.784 159.929 20.776C158.297 21.752 155.825 22.24 152.513 22.24C150.737 22.24 148.929 22.048 147.089 21.664C145.249 21.264 143.593 20.688 142.121 19.936ZM189.35 4.552V13.024C189.35 16.016 188.574 18.304 187.022 19.888C185.486 21.456 183.046 22.24 179.702 22.24C177.782 22.24 176.006 21.96 174.374 21.4C172.758 20.84 171.318 20.112 170.054 19.216C170.358 18.224 170.606 17.272 170.798 16.36C170.99 15.448 171.134 14.448 171.23 13.36C172.878 14.688 174.398 15.608 175.79 16.12C177.182 16.632 178.51 16.888 179.774 16.888C181.086 16.888 182.022 16.592 182.582 16C183.142 15.408 183.43 14.392 183.446 12.952V11.128C183.446 8.536 183.374 6.344 183.23 4.552H189.35ZM206.887 22C206.583 21.088 206.175 19.944 205.663 18.568H198.007L196.807 22H190.783L197.503 4.576H206.335L213.103 22H206.887ZM204.295 14.824C203.687 13.144 203.063 11.464 202.423 9.784L201.847 8.224C201.287 9.68 200.463 11.88 199.375 14.824H204.295ZM225.757 4.6C228.941 4.6 231.157 5.168 232.405 6.304C233.653 7.424 234.277 9.008 234.277 11.056C234.277 12.464 234.029 13.664 233.533 14.656C233.037 15.632 232.165 16.4 230.917 16.96C229.669 17.504 227.949 17.776 225.757 17.776H220.765V22H214.861C214.989 18.896 215.053 15.992 215.053 13.288C215.053 10.584 214.989 7.68 214.861 4.576H220.765V4.6H225.757ZM224.077 13.144C225.405 13.144 226.397 13.096 227.053 13C227.725 12.888 228.189 12.696 228.445 12.424C228.717 12.152 228.853 11.752 228.853 11.224C228.853 10.696 228.725 10.304 228.469 10.048C228.229 9.776 227.773 9.592 227.101 9.496C226.445 9.4 225.437 9.352 224.077 9.352H220.765V13.144H224.077ZM247.347 22.24C243.683 22.24 240.987 21.448 239.259 19.864C237.531 18.264 236.667 16.024 236.667 13.144C236.667 10.296 237.523 8.072 239.235 6.472C240.963 4.872 243.667 4.072 247.347 4.072C251.043 4.072 253.747 4.872 255.459 6.472C257.187 8.072 258.051 10.296 258.051 13.144C258.051 16.04 257.195 18.28 255.483 19.864C253.771 21.448 251.059 22.24 247.347 22.24ZM247.347 17.344C249.123 17.344 250.403 17.008 251.187 16.336C251.971 15.648 252.363 14.584 252.363 13.144C252.363 11.736 251.971 10.688 251.187 10C250.403 9.312 249.123 8.968 247.347 8.968C245.587 8.968 244.315 9.312 243.531 10C242.747 10.688 242.355 11.736 242.355 13.144C242.355 14.568 242.747 15.624 243.531 16.312C244.315 17 245.587 17.344 247.347 17.344ZM280.578 4.6C280.466 7.304 280.41 10.2 280.41 13.288C280.41 16.392 280.466 19.296 280.578 22H271.986L266.178 8.896L266.61 22H260.442C260.57 18.896 260.634 15.992 260.634 13.288C260.634 10.6 260.57 7.704 260.442 4.6H269.274L275.106 18.064L274.698 4.6H280.578ZM288.638 17.608C294.718 17.576 299.126 17.488 301.862 17.344C301.75 18 301.678 18.68 301.646 19.384C301.63 20.072 301.622 20.944 301.622 22H282.974C283.102 18.896 283.166 15.992 283.166 13.288C283.166 10.584 283.102 7.68 282.974 4.576H301.622V8.92H288.638V11.224C289.406 11.24 290.542 11.248 292.046 11.248C294.59 11.248 297.222 11.2 299.942 11.104V15.232C297.222 15.136 294.59 15.088 292.046 15.088C290.542 15.088 289.406 15.096 288.638 15.112V17.608ZM304.265 19.936C304.809 19.12 305.257 18.36 305.609 17.656C305.977 16.952 306.329 16.136 306.665 15.208C307.801 15.864 309.121 16.376 310.625 16.744C312.129 17.112 313.529 17.296 314.825 17.296C316.153 17.296 317.089 17.184 317.633 16.96C318.177 16.72 318.449 16.464 318.449 16.192C318.449 15.216 316.961 14.728 313.985 14.728C310.721 14.728 308.353 14.392 306.881 13.72C305.409 13.032 304.673 11.928 304.673 10.408C304.673 8.248 305.569 6.656 307.361 5.632C309.153 4.608 311.481 4.096 314.345 4.096C316.009 4.096 317.713 4.312 319.457 4.744C321.217 5.16 322.801 5.736 324.209 6.472C323.745 7.528 323.257 8.816 322.745 10.336C322.649 10.656 322.569 10.896 322.505 11.056C321.689 10.4 320.457 9.856 318.809 9.424C317.161 8.976 315.705 8.752 314.441 8.752C312.921 8.752 311.897 8.856 311.369 9.064C310.841 9.256 310.577 9.544 310.577 9.928C310.577 10.312 310.937 10.624 311.657 10.864C312.393 11.088 313.449 11.2 314.825 11.2C318.217 11.2 320.681 11.592 322.217 12.376C323.753 13.144 324.521 14.328 324.521 15.928C324.521 18.168 323.705 19.784 322.073 20.776C320.441 21.752 317.969 22.24 314.657 22.24C312.881 22.24 311.073 22.048 309.233 21.664C307.393 21.264 305.737 20.688 304.265 19.936ZM342.058 22C341.754 21.088 341.346 19.944 340.834 18.568H333.178L331.978 22H325.954L332.674 4.576H341.506L348.274 22H342.058ZM339.466 14.824C338.858 13.144 338.234 11.464 337.594 9.784L337.018 8.224C336.458 9.68 335.634 11.88 334.546 14.824H339.466ZM349.072 19.936C349.616 19.12 350.064 18.36 350.416 17.656C350.784 16.952 351.136 16.136 351.472 15.208C352.608 15.864 353.928 16.376 355.432 16.744C356.936 17.112 358.336 17.296 359.632 17.296C360.96 17.296 361.896 17.184 362.44 16.96C362.984 16.72 363.256 16.464 363.256 16.192C363.256 15.216 361.768 14.728 358.792 14.728C355.528 14.728 353.16 14.392 351.688 13.72C350.216 13.032 349.48 11.928 349.48 10.408C349.48 8.248 350.376 6.656 352.168 5.632C353.96 4.608 356.288 4.096 359.152 4.096C360.816 4.096 362.52 4.312 364.264 4.744C366.024 5.16 367.608 5.736 369.016 6.472C368.552 7.528 368.064 8.816 367.552 10.336C367.456 10.656 367.376 10.896 367.312 11.056C366.496 10.4 365.264 9.856 363.616 9.424C361.968 8.976 360.512 8.752 359.248 8.752C357.728 8.752 356.704 8.856 356.176 9.064C355.648 9.256 355.384 9.544 355.384 9.928C355.384 10.312 355.744 10.624 356.464 10.864C357.2 11.088 358.256 11.2 359.632 11.2C363.024 11.2 365.488 11.592 367.024 12.376C368.56 13.144 369.328 14.328 369.328 15.928C369.328 18.168 368.512 19.784 366.88 20.776C365.248 21.752 362.776 22.24 359.464 22.24C357.688 22.24 355.88 22.048 354.04 21.664C352.2 21.264 350.544 20.688 349.072 19.936Z" fill="white"/>
<mask id="path-2-outside-1_115_24769" maskUnits="userSpaceOnUse" x="46.9883" y="24" width="278" height="28" fill="black">
<rect fill="white" x="46.9883" y="24" width="278" height="28"/>
<path d="M59.8984 31.6C63.0824 31.6 65.2984 32.168 66.5464 33.304C67.7944 34.424 68.4184 36.008 68.4184 38.056C68.4184 39.464 68.1704 40.664 67.6744 41.656C67.1784 42.632 66.3064 43.4 65.0584 43.96C63.8104 44.504 62.0904 44.776 59.8984 44.776H54.9064V49H49.0024C49.1304 45.896 49.1944 42.992 49.1944 40.288C49.1944 37.584 49.1304 34.68 49.0024 31.576H54.9064V31.6H59.8984ZM58.2184 40.144C59.5464 40.144 60.5384 40.096 61.1944 40C61.8664 39.888 62.3304 39.696 62.5864 39.424C62.8584 39.152 62.9944 38.752 62.9944 38.224C62.9944 37.696 62.8664 37.304 62.6104 37.048C62.3704 36.776 61.9144 36.592 61.2424 36.496C60.5864 36.4 59.5784 36.352 58.2184 36.352H54.9064V40.144H58.2184ZM81.4884 49.24C77.8244 49.24 75.1284 48.448 73.4004 46.864C71.6724 45.264 70.8084 43.024 70.8084 40.144C70.8084 37.296 71.6644 35.072 73.3764 33.472C75.1044 31.872 77.8084 31.072 81.4884 31.072C85.1844 31.072 87.8884 31.872 89.6004 33.472C91.3284 35.072 92.1924 37.296 92.1924 40.144C92.1924 43.04 91.3364 45.28 89.6244 46.864C87.9124 48.448 85.2004 49.24 81.4884 49.24ZM81.4884 44.344C83.2644 44.344 84.5444 44.008 85.3284 43.336C86.1124 42.648 86.5044 41.584 86.5044 40.144C86.5044 38.736 86.1124 37.688 85.3284 37C84.5444 36.312 83.2644 35.968 81.4884 35.968C79.7284 35.968 78.4564 36.312 77.6724 37C76.8884 37.688 76.4964 38.736 76.4964 40.144C76.4964 41.568 76.8884 42.624 77.6724 43.312C78.4564 44 79.7284 44.344 81.4884 44.344ZM113.855 37.384C113.855 38.776 113.511 39.952 112.823 40.912C112.151 41.872 110.991 42.568 109.343 43C109.535 43.256 109.671 43.456 109.751 43.6L113.639 49H107.111C106.407 47.688 105.295 45.832 103.775 43.432H100.247V49H94.5831C94.7111 45.896 94.7751 42.992 94.7751 40.288C94.7751 37.584 94.7111 34.68 94.5831 31.576H100.247V31.6H105.167C108.399 31.6 110.655 32.12 111.935 33.16C113.215 34.2 113.855 35.608 113.855 37.384ZM100.247 36.208V38.944H103.487C104.847 38.944 105.871 38.904 106.559 38.824C107.263 38.728 107.751 38.584 108.023 38.392C108.295 38.2 108.431 37.92 108.431 37.552C108.431 37.2 108.303 36.928 108.047 36.736C107.791 36.544 107.311 36.408 106.607 36.328C105.903 36.248 104.863 36.208 103.487 36.208H100.247ZM137.374 49.24C133.758 49.24 131.094 48.472 129.382 46.936C127.67 45.4 126.814 43.208 126.814 40.36C126.814 37.496 127.67 35.232 129.382 33.568C131.094 31.904 133.758 31.072 137.374 31.072C142.43 31.072 145.814 32.808 147.526 36.28C146.086 36.776 144.398 37.52 142.462 38.512C141.998 37.616 141.262 36.952 140.254 36.52C139.262 36.088 138.246 35.872 137.206 35.872C135.67 35.872 134.526 36.28 133.774 37.096C133.022 37.896 132.646 38.888 132.646 40.072C132.646 41.352 133.046 42.4 133.846 43.216C134.662 44.016 135.902 44.416 137.566 44.416C138.894 44.416 139.95 44.2 140.734 43.768C141.518 43.32 142.094 42.616 142.462 41.656C143.774 42.36 145.454 43.152 147.502 44.032C146.702 45.968 145.366 47.32 143.494 48.088C141.622 48.856 139.582 49.24 137.374 49.24ZM165.076 49C164.772 48.088 164.364 46.944 163.852 45.568H156.196L154.996 49H148.972L155.692 31.576H164.524L171.292 49H165.076ZM162.484 41.824C161.876 40.144 161.252 38.464 160.612 36.784L160.036 35.224C159.476 36.68 158.652 38.88 157.564 41.824H162.484ZM192.237 36.616C189.725 36.536 187.285 36.488 184.917 36.472V49H178.917V36.472C176.533 36.488 174.101 36.536 171.621 36.616V31.576H192.237V36.616ZM200.31 44.608C206.39 44.576 210.798 44.488 213.534 44.344C213.422 45 213.35 45.68 213.318 46.384C213.302 47.072 213.294 47.944 213.294 49H194.646C194.774 45.896 194.838 42.992 194.838 40.288C194.838 37.584 194.774 34.68 194.646 31.576H213.294V35.92H200.31V38.224C201.078 38.24 202.214 38.248 203.718 38.248C206.262 38.248 208.894 38.2 211.614 38.104V42.232C208.894 42.136 206.262 42.088 203.718 42.088C202.214 42.088 201.078 42.096 200.31 42.112V44.608ZM225.824 39.064H236.072V49H231.848L231.344 44.752C230.864 46.272 230.008 47.4 228.776 48.136C227.544 48.872 226.04 49.24 224.264 49.24C222.648 49.24 221.208 48.88 219.944 48.16C218.696 47.44 217.712 46.408 216.992 45.064C216.288 43.72 215.936 42.152 215.936 40.36C215.936 37.496 216.792 35.232 218.504 33.568C220.216 31.904 222.88 31.072 226.496 31.072C228.56 31.072 230.376 31.408 231.944 32.08C233.528 32.752 234.872 33.792 235.976 35.2C235.256 35.568 233.848 36.304 231.752 37.408L231.152 37.744C230.528 37.12 229.8 36.656 228.968 36.352C228.136 36.032 227.256 35.872 226.328 35.872C224.792 35.872 223.648 36.28 222.896 37.096C222.144 37.896 221.768 38.888 221.768 40.072C221.768 41.352 222.168 42.384 222.968 43.168C223.784 43.952 225.024 44.344 226.688 44.344C227.408 44.344 228.104 44.24 228.776 44.032C229.464 43.824 230.04 43.464 230.504 42.952H225.824V39.064ZM249.148 49.24C245.484 49.24 242.788 48.448 241.06 46.864C239.332 45.264 238.468 43.024 238.468 40.144C238.468 37.296 239.324 35.072 241.036 33.472C242.764 31.872 245.468 31.072 249.148 31.072C252.844 31.072 255.548 31.872 257.26 33.472C258.988 35.072 259.852 37.296 259.852 40.144C259.852 43.04 258.996 45.28 257.284 46.864C255.572 48.448 252.86 49.24 249.148 49.24ZM249.148 44.344C250.924 44.344 252.204 44.008 252.988 43.336C253.772 42.648 254.164 41.584 254.164 40.144C254.164 38.736 253.772 37.688 252.988 37C252.204 36.312 250.924 35.968 249.148 35.968C247.388 35.968 246.116 36.312 245.332 37C244.548 37.688 244.156 38.736 244.156 40.144C244.156 41.568 244.548 42.624 245.332 43.312C246.116 44 247.388 44.344 249.148 44.344ZM281.515 37.384C281.515 38.776 281.171 39.952 280.483 40.912C279.811 41.872 278.651 42.568 277.003 43C277.195 43.256 277.331 43.456 277.411 43.6L281.299 49H274.771C274.067 47.688 272.955 45.832 271.435 43.432H267.907V49H262.243C262.371 45.896 262.435 42.992 262.435 40.288C262.435 37.584 262.371 34.68 262.243 31.576H267.907V31.6H272.827C276.059 31.6 278.315 32.12 279.595 33.16C280.875 34.2 281.515 35.608 281.515 37.384ZM267.907 36.208V38.944H271.147C272.507 38.944 273.531 38.904 274.219 38.824C274.923 38.728 275.411 38.584 275.683 38.392C275.955 38.2 276.091 37.92 276.091 37.552C276.091 37.2 275.963 36.928 275.707 36.736C275.451 36.544 274.971 36.408 274.267 36.328C273.563 36.248 272.523 36.208 271.147 36.208H267.907ZM297.853 36.352C295.949 36.256 294.541 36.2 293.629 36.184V44.392C294.557 44.376 295.965 44.32 297.853 44.224V49H283.909V44.224C285.749 44.32 287.149 44.376 288.109 44.392V36.184C287.149 36.2 285.749 36.256 283.909 36.352V31.576H297.853V36.352ZM292.261 30.52H289.213L289.789 26.8H294.229L292.261 30.52ZM315.398 49C315.094 48.088 314.686 46.944 314.174 45.568H306.518L305.318 49H299.294L306.014 31.576H314.846L321.614 49H315.398ZM312.806 41.824C312.198 40.144 311.574 38.464 310.934 36.784L310.358 35.224C309.798 36.68 308.974 38.88 307.886 41.824H312.806Z"/>
</mask>
<path d="M66.5464 33.304L65.2597 34.7175L65.2698 34.7266L66.5464 33.304ZM67.6744 41.656L69.3784 42.522L69.384 42.5108L67.6744 41.656ZM65.0584 43.96L65.8222 45.7122L65.8316 45.7081L65.8409 45.7039L65.0584 43.96ZM54.9064 44.776V42.8646H52.995V44.776H54.9064ZM54.9064 49V50.9114H56.8178V49H54.9064ZM49.0024 49L47.0926 48.9212L47.0105 50.9114H49.0024V49ZM49.0024 31.576V29.6646H47.0105L47.0926 31.6548L49.0024 31.576ZM54.9064 31.576H56.8178V29.6646H54.9064V31.576ZM54.9064 31.6H52.995V33.5114H54.9064V31.6ZM61.1944 40L61.4712 41.8913L61.4899 41.8885L61.5086 41.8854L61.1944 40ZM62.5864 39.424L61.2348 38.0724L61.2144 38.0929L61.1945 38.114L62.5864 39.424ZM62.6104 37.048L61.1772 38.3126L61.2166 38.3574L61.2588 38.3996L62.6104 37.048ZM61.2424 36.496L60.9656 38.3873L60.9721 38.3882L61.2424 36.496ZM54.9064 36.352V34.4406H52.995V36.352H54.9064ZM54.9064 40.144H52.995V42.0554H54.9064V40.144ZM59.8984 33.5114C62.9784 33.5114 64.5657 34.0858 65.2598 34.7175L67.8331 31.8905C66.0311 30.2502 63.1864 29.6886 59.8984 29.6886V33.5114ZM65.2698 34.7266C66.0261 35.4053 66.507 36.4207 66.507 38.056H70.3298C70.3298 35.5953 69.5627 33.4427 67.8231 31.8814L65.2698 34.7266ZM66.507 38.056C66.507 39.245 66.2972 40.1363 65.9648 40.8012L69.384 42.5108C70.0436 41.1917 70.3298 39.683 70.3298 38.056H66.507ZM65.9704 40.79C65.7175 41.2877 65.2273 41.7892 64.2759 42.2161L65.8409 45.7039C67.3855 45.0108 68.6393 43.9763 69.3784 42.522L65.9704 40.79ZM64.2946 42.2078C63.3902 42.6021 61.9691 42.8646 59.8984 42.8646V46.6874C62.2117 46.6874 64.2307 46.4059 65.8222 45.7122L64.2946 42.2078ZM59.8984 42.8646H54.9064V46.6874H59.8984V42.8646ZM52.995 44.776V49H56.8178V44.776H52.995ZM54.9064 47.0886H49.0024V50.9114H54.9064V47.0886ZM50.9122 49.0788C51.0411 45.9523 51.1058 43.0218 51.1058 40.288H47.283C47.283 42.9622 47.2197 45.8397 47.0926 48.9212L50.9122 49.0788ZM51.1058 40.288C51.1058 37.5542 51.0411 34.6237 50.9122 31.4972L47.0926 31.6548C47.2197 34.7363 47.283 37.6138 47.283 40.288H51.1058ZM49.0024 33.4874H54.9064V29.6646H49.0024V33.4874ZM52.995 31.576V31.6H56.8178V31.576H52.995ZM54.9064 33.5114H59.8984V29.6886H54.9064V33.5114ZM58.2184 42.0554C59.5666 42.0554 60.6723 42.0082 61.4712 41.8913L60.9176 38.1087C60.4045 38.1838 59.5263 38.2326 58.2184 38.2326V42.0554ZM61.5086 41.8854C62.2955 41.7543 63.2815 41.4744 63.9783 40.734L61.1945 38.114C61.3043 37.9973 61.379 37.9796 61.3156 38.0058C61.2553 38.0308 61.1202 38.0746 60.8802 38.1146L61.5086 41.8854ZM63.938 40.7756C64.6851 40.0284 64.9058 39.0658 64.9058 38.224H61.083C61.083 38.3288 61.069 38.3452 61.0827 38.3047C61.0902 38.2829 61.1048 38.2473 61.1311 38.204C61.1577 38.1602 61.1923 38.1149 61.2348 38.0724L63.938 40.7756ZM64.9058 38.224C64.9058 37.4213 64.7127 36.4471 63.962 35.6964L61.2588 38.3996C61.1463 38.2871 61.0977 38.1772 61.0814 38.1273C61.0682 38.0867 61.083 38.1079 61.083 38.224H64.9058ZM64.0437 35.7834C63.3335 34.9785 62.2908 34.7149 61.5127 34.6038L60.9721 38.3882C61.0864 38.4045 61.1765 38.4225 61.2454 38.4396C61.3148 38.4568 61.3553 38.4713 61.3732 38.4785C61.3913 38.4859 61.3771 38.482 61.3424 38.4593C61.307 38.4361 61.2454 38.3899 61.1772 38.3126L64.0437 35.7834ZM61.5192 34.6047C60.7191 34.4876 59.5959 34.4406 58.2184 34.4406V38.2634C59.5609 38.2634 60.4537 38.3124 60.9656 38.3873L61.5192 34.6047ZM58.2184 34.4406H54.9064V38.2634H58.2184V34.4406ZM52.995 36.352V40.144H56.8178V36.352H52.995ZM54.9064 42.0554H58.2184V38.2326H54.9064V42.0554ZM73.4004 46.864L72.1017 48.2665L72.1088 48.273L73.4004 46.864ZM73.3764 33.472L72.0777 32.0695L72.0713 32.0755L73.3764 33.472ZM89.6004 33.472L88.2952 34.8685L88.3018 34.8745L89.6004 33.472ZM89.6244 46.864L90.9225 48.267V48.267L89.6244 46.864ZM85.3284 43.336L86.5723 44.7873L86.5808 44.78L86.5891 44.7727L85.3284 43.336ZM85.3284 37L84.0676 38.4367L85.3284 37ZM77.6724 37L78.9331 38.4367L78.9331 38.4367L77.6724 37ZM77.6724 43.312L78.9331 41.8753V41.8753L77.6724 43.312ZM81.4884 47.3286C78.0443 47.3286 75.9146 46.5758 74.692 45.455L72.1088 48.273C74.3421 50.3202 77.6045 51.1514 81.4884 51.1514V47.3286ZM74.699 45.4615C73.4466 44.3018 72.7198 42.6194 72.7198 40.144H68.897C68.897 43.4286 69.8982 46.2262 72.1018 48.2665L74.699 45.4615ZM72.7198 40.144C72.7198 37.7025 73.4377 36.0309 74.6815 34.8685L72.0713 32.0755C69.8911 34.1131 68.897 36.8895 68.897 40.144H72.7198ZM74.675 34.8745C75.8964 33.7436 78.0296 32.9834 81.4884 32.9834V29.1606C77.5872 29.1606 74.3124 30.0004 72.0778 32.0695L74.675 34.8745ZM81.4884 32.9834C84.9679 32.9834 87.0938 33.7456 88.2953 34.8685L90.9055 32.0755C88.683 29.9984 85.4008 29.1606 81.4884 29.1606V32.9834ZM88.3018 34.8745C89.5587 36.0383 90.281 37.708 90.281 40.144H94.1038C94.1038 36.884 93.0981 34.1057 90.899 32.0695L88.3018 34.8745ZM90.281 40.144C90.281 42.6453 89.5563 44.3229 88.3263 45.461L90.9225 48.267C93.1164 46.2371 94.1038 43.4347 94.1038 40.144H90.281ZM88.3263 45.461C87.126 46.5715 84.9906 47.3286 81.4884 47.3286V51.1514C85.4102 51.1514 88.6987 50.3245 90.9225 48.267L88.3263 45.461ZM81.4884 46.2554C83.4209 46.2554 85.2674 45.9058 86.5723 44.7873L84.0845 41.8847C83.8214 42.1102 83.1079 42.4326 81.4884 42.4326V46.2554ZM86.5891 44.7727C87.9264 43.5991 88.4158 41.9161 88.4158 40.144H84.593C84.593 41.2519 84.2984 41.6969 84.0676 41.8993L86.5891 44.7727ZM88.4158 40.144C88.4158 38.388 87.9176 36.7292 86.5891 35.5633L84.0676 38.4367C84.3071 38.6468 84.593 39.084 84.593 40.144H88.4158ZM86.5891 35.5633C85.2828 34.417 83.4286 34.0566 81.4884 34.0566V37.8794C83.1002 37.8794 83.8059 38.207 84.0676 38.4367L86.5891 35.5633ZM81.4884 34.0566C79.5588 34.0566 77.7155 34.4191 76.4116 35.5633L78.9331 38.4367C79.1972 38.2049 79.8979 37.8794 81.4884 37.8794V34.0566ZM76.4116 35.5633C75.0831 36.7292 74.585 38.388 74.585 40.144H78.4078C78.4078 39.084 78.6936 38.6468 78.9331 38.4367L76.4116 35.5633ZM74.585 40.144C74.585 41.908 75.0787 43.5789 76.4116 44.7487L78.9331 41.8753C78.6981 41.6691 78.4078 41.228 78.4078 40.144H74.585ZM76.4116 44.7487C77.7155 45.8929 79.5588 46.2554 81.4884 46.2554V42.4326C79.8979 42.4326 79.1972 42.1071 78.9331 41.8753L76.4116 44.7487ZM112.823 40.912L111.269 39.7986L111.263 39.8072L111.257 39.8159L112.823 40.912ZM109.343 43L108.858 41.1511L106.108 41.8721L107.814 44.1468L109.343 43ZM109.751 43.6L108.08 44.5283L108.135 44.6261L108.2 44.7168L109.751 43.6ZM113.639 49V50.9114H117.371L115.19 47.8832L113.639 49ZM107.111 49L105.427 49.9037L105.968 50.9114H107.111V49ZM103.775 43.432L105.39 42.4093L104.827 41.5206H103.775V43.432ZM100.247 43.432V41.5206H98.3357V43.432H100.247ZM100.247 49V50.9114H102.159V49H100.247ZM94.5831 49L92.6733 48.9212L92.5913 50.9114H94.5831V49ZM94.5831 31.576V29.6646H92.5913L92.6733 31.6548L94.5831 31.576ZM100.247 31.576H102.159V29.6646H100.247V31.576ZM100.247 31.6H98.3357V33.5114H100.247V31.6ZM111.935 33.16L110.73 34.6435L110.73 34.6435L111.935 33.16ZM100.247 36.208V34.2966H98.3357V36.208H100.247ZM100.247 38.944H98.3357V40.8554H100.247V38.944ZM106.559 38.824L106.78 40.7226L106.799 40.7204L106.817 40.7179L106.559 38.824ZM108.023 38.392L106.921 36.8304L106.921 36.8304L108.023 38.392ZM108.047 36.736L109.194 35.2069V35.2069L108.047 36.736ZM106.607 36.328L106.391 38.2272H106.391L106.607 36.328ZM111.944 37.384C111.944 38.45 111.685 39.2182 111.269 39.7986L114.377 42.0254C115.337 40.6858 115.767 39.102 115.767 37.384H111.944ZM111.257 39.8159C110.941 40.268 110.263 40.783 108.858 41.1511L109.828 44.8489C111.72 44.353 113.361 43.476 114.389 42.0081L111.257 39.8159ZM107.814 44.1468C107.898 44.2583 107.961 44.3475 108.009 44.4168C108.032 44.4511 108.049 44.4779 108.062 44.4979C108.068 44.5078 108.073 44.5153 108.076 44.5207C108.079 44.526 108.08 44.5285 108.08 44.5283L111.422 42.6717C111.277 42.4107 111.078 42.1268 110.872 41.8532L107.814 44.1468ZM108.2 44.7168L112.088 50.1168L115.19 47.8832L111.302 42.4832L108.2 44.7168ZM113.639 47.0886H107.111V50.9114H113.639V47.0886ZM108.795 48.0963C108.058 46.7224 106.917 44.8201 105.39 42.4093L102.16 44.4547C103.673 46.8439 104.756 48.6536 105.427 49.9037L108.795 48.0963ZM103.775 41.5206H100.247V45.3434H103.775V41.5206ZM98.3357 43.432V49H102.159V43.432H98.3357ZM100.247 47.0886H94.5831V50.9114H100.247V47.0886ZM96.4929 49.0788C96.6218 45.9523 96.6865 43.0218 96.6865 40.288H92.8637C92.8637 42.9622 92.8004 45.8397 92.6733 48.9212L96.4929 49.0788ZM96.6865 40.288C96.6865 37.5542 96.6218 34.6237 96.4929 31.4972L92.6733 31.6548C92.8004 34.7363 92.8637 37.6138 92.8637 40.288H96.6865ZM94.5831 33.4874H100.247V29.6646H94.5831V33.4874ZM98.3357 31.576V31.6H102.159V31.576H98.3357ZM100.247 33.5114H105.167V29.6886H100.247V33.5114ZM105.167 33.5114C108.319 33.5114 109.992 34.0438 110.73 34.6435L113.14 31.6765C111.318 30.1962 108.479 29.6886 105.167 29.6886V33.5114ZM110.73 34.6435C111.525 35.2897 111.944 36.133 111.944 37.384H115.767C115.767 35.083 114.905 33.1102 113.14 31.6765L110.73 34.6435ZM98.3357 36.208V38.944H102.159V36.208H98.3357ZM100.247 40.8554H103.487V37.0326H100.247V40.8554ZM103.487 40.8554C104.865 40.8554 105.979 40.8158 106.78 40.7226L106.338 36.9254C105.764 36.9922 104.829 37.0326 103.487 37.0326V40.8554ZM106.817 40.7179C107.555 40.6173 108.448 40.4316 109.125 39.9536L106.921 36.8304C107.021 36.7597 107.05 36.7701 106.912 36.8107C106.789 36.8471 106.592 36.8905 106.301 36.9301L106.817 40.7179ZM109.125 39.9536C109.964 39.3616 110.343 38.4648 110.343 37.552H106.52C106.52 37.499 106.53 37.3664 106.61 37.2029C106.693 37.0324 106.812 36.9072 106.921 36.8304L109.125 39.9536ZM110.343 37.552C110.343 36.6678 109.984 35.7996 109.194 35.2069L106.9 38.2651C106.795 38.1863 106.683 38.0625 106.606 37.8979C106.531 37.7393 106.52 37.6096 106.52 37.552H110.343ZM109.194 35.2069C108.491 34.6797 107.546 34.511 106.823 34.4288L106.391 38.2272C106.679 38.2599 106.866 38.2984 106.974 38.329C107.026 38.3437 107.043 38.352 107.035 38.3484C107.028 38.3454 106.976 38.3217 106.9 38.2651L109.194 35.2069ZM106.823 34.4288C106.009 34.3363 104.882 34.2966 103.487 34.2966V38.1194C104.845 38.1194 105.798 38.1597 106.391 38.2272L106.823 34.4288ZM103.487 34.2966H100.247V38.1194H103.487V34.2966ZM129.382 46.936L128.105 48.3587L129.382 46.936ZM129.382 33.568L130.714 34.9386V34.9386L129.382 33.568ZM147.526 36.28L148.148 38.0872L150.199 37.3806L149.24 35.4347L147.526 36.28ZM142.462 38.512L140.764 39.391L141.639 41.081L143.333 40.2131L142.462 38.512ZM140.254 36.52L139.49 38.2725L139.501 38.2769L140.254 36.52ZM133.774 37.096L135.166 38.4051L135.173 38.3983L135.179 38.3913L133.774 37.096ZM133.846 43.216L132.481 44.5541L132.494 44.5676L132.507 44.5809L133.846 43.216ZM140.734 43.768L141.656 45.4421L141.669 45.4349L141.682 45.4276L140.734 43.768ZM142.462 41.656L143.365 39.9717L141.453 38.9458L140.677 40.9718L142.462 41.656ZM147.502 44.032L149.268 44.762L149.988 43.02L148.256 42.2758L147.502 44.032ZM143.494 48.088L142.768 46.3196L143.494 48.088ZM137.374 47.3286C133.971 47.3286 131.866 46.5972 130.658 45.5133L128.105 48.3587C130.321 50.3468 133.544 51.1514 137.374 51.1514V47.3286ZM130.658 45.5133C129.443 44.4236 128.725 42.8046 128.725 40.36H124.902C124.902 43.6114 125.896 46.3764 128.105 48.3587L130.658 45.5133ZM128.725 40.36C128.725 37.9015 129.445 36.1722 130.714 34.9386L128.049 32.1974C125.894 34.2918 124.902 37.0905 124.902 40.36H128.725ZM130.714 34.9386C131.922 33.7639 134.004 32.9834 137.374 32.9834V29.1606C133.511 29.1606 130.265 30.0441 128.049 32.1974L130.714 34.9386ZM137.374 32.9834C141.965 32.9834 144.523 34.5128 145.811 37.1253L149.24 35.4347C147.104 31.1032 142.894 29.1606 137.374 29.1606V32.9834ZM146.903 34.4728C145.35 35.0077 143.575 35.7936 141.59 36.8109L143.333 40.2131C145.22 39.2464 146.821 38.5443 148.148 38.0872L146.903 34.4728ZM144.159 37.633C143.473 36.3087 142.384 35.3533 141.006 34.7631L139.501 38.2769C140.14 38.5507 140.522 38.9233 140.764 39.391L144.159 37.633ZM141.017 34.7676C139.794 34.235 138.519 33.9606 137.206 33.9606V37.7834C137.972 37.7834 138.729 37.941 139.49 38.2724L141.017 34.7676ZM137.206 33.9606C135.347 33.9606 133.604 34.4594 132.368 35.8007L135.179 38.3913C135.447 38.1006 135.992 37.7834 137.206 37.7834V33.9606ZM132.381 35.7869C131.268 36.9706 130.734 38.4432 130.734 40.072H134.557C134.557 39.3328 134.775 38.8214 135.166 38.4051L132.381 35.7869ZM130.734 40.072C130.734 41.7869 131.287 43.3366 132.481 44.5541L135.21 41.8779C134.804 41.4634 134.557 40.9171 134.557 40.072H130.734ZM132.507 44.5809C133.816 45.8634 135.629 46.3274 137.566 46.3274V42.5046C136.174 42.5046 135.507 42.1686 135.184 41.8511L132.507 44.5809ZM137.566 46.3274C139.072 46.3274 140.485 46.0871 141.656 45.4421L139.811 42.0939C139.414 42.3129 138.715 42.5046 137.566 42.5046V46.3274ZM141.682 45.4276C142.901 44.7307 143.744 43.6518 144.246 42.3402L140.677 40.9718C140.444 41.5802 140.134 41.9093 139.785 42.1084L141.682 45.4276ZM141.558 43.3403C142.936 44.0797 144.67 44.8959 146.747 45.7882L148.256 42.2758C146.237 41.4081 144.611 40.6403 143.365 39.9717L141.558 43.3403ZM145.735 43.302C145.122 44.7855 144.15 45.7526 142.768 46.3196L144.219 49.8564C146.581 48.8874 148.281 47.1505 149.268 44.762L145.735 43.302ZM142.768 46.3196C141.146 46.9849 139.356 47.3286 137.374 47.3286V51.1514C139.808 51.1514 142.097 50.7271 144.219 49.8564L142.768 46.3196ZM165.076 49L163.263 49.6044L163.698 50.9114H165.076V49ZM163.852 45.568L165.643 44.9014L165.18 43.6566H163.852V45.568ZM156.196 45.568V43.6566H154.839L154.392 44.9371L156.196 45.568ZM154.996 49V50.9114H156.353L156.8 49.6309L154.996 49ZM148.972 49L147.189 48.3122L146.186 50.9114H148.972V49ZM155.692 31.576V29.6646H154.381L153.909 30.8882L155.692 31.576ZM164.524 31.576L166.306 30.8839L165.832 29.6646H164.524V31.576ZM171.292 49V50.9114H174.085L173.074 48.3079L171.292 49ZM162.484 41.824V43.7354H165.208L164.281 41.1735L162.484 41.824ZM160.612 36.784L158.819 37.4461L158.822 37.4553L158.826 37.4645L160.612 36.784ZM160.036 35.224L161.829 34.5619L160.073 29.8045L158.252 34.5378L160.036 35.224ZM157.564 41.824L155.771 41.1614L154.82 43.7354H157.564V41.824ZM166.889 48.3956C166.576 47.4549 166.16 46.2885 165.643 44.9014L162.061 46.2346C162.568 47.5995 162.968 48.7211 163.263 49.6044L166.889 48.3956ZM163.852 43.6566H156.196V47.4794H163.852V43.6566ZM154.392 44.9371L153.192 48.3691L156.8 49.6309L158 46.1989L154.392 44.9371ZM154.996 47.0886H148.972V50.9114H154.996V47.0886ZM150.755 49.6878L157.475 32.2638L153.909 30.8882L147.189 48.3122L150.755 49.6878ZM155.692 33.4874H164.524V29.6646H155.692V33.4874ZM162.742 32.2681L169.51 49.6921L173.074 48.3079L166.306 30.8839L162.742 32.2681ZM171.292 47.0886H165.076V50.9114H171.292V47.0886ZM164.281 41.1735C163.67 39.4834 163.042 37.7935 162.398 36.1035L158.826 37.4645C159.462 39.1345 160.082 40.8046 160.687 42.4745L164.281 41.1735ZM162.405 36.1219L161.829 34.5619L158.243 35.8861L158.819 37.4461L162.405 36.1219ZM158.252 34.5378C157.687 36.0061 156.86 38.2157 155.771 41.1614L159.357 42.4866C160.444 39.5443 161.265 37.3539 161.82 35.9102L158.252 34.5378ZM157.564 43.7354H162.484V39.9126H157.564V43.7354ZM192.237 36.616L192.176 38.5264L194.148 38.5893V36.616H192.237ZM184.917 36.472L184.93 34.5606L183.005 34.5476V36.472H184.917ZM184.917 49V50.9114H186.828V49H184.917ZM178.917 49H177.005V50.9114H178.917V49ZM178.917 36.472H180.828V34.5477L178.904 34.5606L178.917 36.472ZM171.621 36.616H169.709V38.5901L171.682 38.5264L171.621 36.616ZM171.621 31.576V29.6646H169.709V31.576H171.621ZM192.237 31.576H194.148V29.6646H192.237V31.576ZM192.298 34.7056C189.771 34.6251 187.315 34.5767 184.93 34.5606L184.904 38.3834C187.255 38.3993 189.679 38.4469 192.176 38.5264L192.298 34.7056ZM183.005 36.472V49H186.828V36.472H183.005ZM184.917 47.0886H178.917V50.9114H184.917V47.0886ZM180.828 49V36.472H177.005V49H180.828ZM178.904 34.5606C176.503 34.5767 174.055 34.6251 171.559 34.7056L171.682 38.5264C174.147 38.4469 176.563 38.3993 178.93 38.3834L178.904 34.5606ZM173.532 36.616V31.576H169.709V36.616H173.532ZM171.621 33.4874H192.237V29.6646H171.621V33.4874ZM190.325 31.576V36.616H194.148V31.576H190.325ZM200.31 44.608H198.398V46.5295L200.32 46.5194L200.31 44.608ZM213.534 44.344L215.418 44.6657L215.82 42.3096L213.433 42.4352L213.534 44.344ZM213.318 46.384L211.408 46.2972L211.407 46.3184L211.407 46.3396L213.318 46.384ZM213.294 49V50.9114H215.205V49H213.294ZM194.646 49L192.736 48.9212L192.654 50.9114H194.646V49ZM194.646 31.576V29.6646H192.654L192.736 31.6548L194.646 31.576ZM213.294 31.576H215.205V29.6646H213.294V31.576ZM213.294 35.92V37.8314H215.205V35.92H213.294ZM200.31 35.92V34.0086H198.398V35.92H200.31ZM200.31 38.224H198.398V40.096L200.27 40.135L200.31 38.224ZM211.614 38.104H213.525V36.1239L211.546 36.1938L211.614 38.104ZM211.614 42.232L211.546 44.1422L213.525 44.2121V42.232H211.614ZM200.31 42.112L200.27 40.201L198.398 40.24V42.112H200.31ZM200.32 46.5194C206.403 46.4874 210.849 46.3993 213.634 46.2528L213.433 42.4352C210.746 42.5767 206.376 42.6646 200.299 42.6966L200.32 46.5194ZM211.649 44.0223C211.523 44.7604 211.443 45.5191 211.408 46.2972L215.227 46.4708C215.256 45.841 215.32 45.2396 215.418 44.6657L211.649 44.0223ZM211.407 46.3396C211.39 47.048 211.382 47.9361 211.382 49H215.205C215.205 47.9519 215.213 47.096 215.228 46.4284L211.407 46.3396ZM213.294 47.0886H194.646V50.9114H213.294V47.0886ZM196.555 49.0788C196.684 45.9523 196.749 43.0218 196.749 40.288H192.926C192.926 42.9622 192.863 45.8397 192.736 48.9212L196.555 49.0788ZM196.749 40.288C196.749 37.5542 196.684 34.6237 196.555 31.4972L192.736 31.6548C192.863 34.7363 192.926 37.6138 192.926 40.288H196.749ZM194.646 33.4874H213.294V29.6646H194.646V33.4874ZM211.382 31.576V35.92H215.205V31.576H211.382ZM213.294 34.0086H200.31V37.8314H213.294V34.0086ZM198.398 35.92V38.224H202.221V35.92H198.398ZM200.27 40.135C201.058 40.1514 202.21 40.1594 203.718 40.1594V36.3366C202.217 36.3366 201.097 36.3286 200.349 36.313L200.27 40.135ZM203.718 40.1594C206.286 40.1594 208.94 40.111 211.681 40.0142L211.546 36.1938C208.847 36.289 206.238 36.3366 203.718 36.3366V40.1594ZM209.702 38.104V42.232H213.525V38.104H209.702ZM211.681 40.3218C208.94 40.225 206.286 40.1766 203.718 40.1766V43.9994C206.238 43.9994 208.847 44.047 211.546 44.1422L211.681 40.3218ZM203.718 40.1766C202.21 40.1766 201.058 40.1846 200.27 40.201L200.349 44.023C201.097 44.0074 202.217 43.9994 203.718 43.9994V40.1766ZM198.398 42.112V44.608H202.221V42.112H198.398ZM225.824 39.064V37.1526H223.912V39.064H225.824ZM236.072 39.064H237.983V37.1526H236.072V39.064ZM236.072 49V50.9114H237.983V49H236.072ZM231.848 49L229.95 49.2252L230.15 50.9114H231.848V49ZM231.344 44.752L233.242 44.5268L229.521 44.1764L231.344 44.752ZM228.776 48.136L229.756 49.7769L228.776 48.136ZM219.944 48.16L218.989 49.8157L218.998 49.8209L219.944 48.16ZM216.992 45.064L215.299 45.9509L215.303 45.9588L215.307 45.9666L216.992 45.064ZM218.504 33.568L219.836 34.9386V34.9386L218.504 33.568ZM231.944 32.08L231.191 33.8369L231.197 33.8396L231.944 32.08ZM235.976 35.2L236.846 36.902L238.911 35.8462L237.48 34.0206L235.976 35.2ZM231.752 37.408L230.861 35.7168L230.839 35.7283L230.818 35.7403L231.752 37.408ZM231.152 37.744L229.8 39.0956L230.823 40.1187L232.086 39.4117L231.152 37.744ZM228.968 36.352L228.282 38.136L228.297 38.1418L228.312 38.1473L228.968 36.352ZM222.896 37.096L224.289 38.4051L224.295 38.3983L224.301 38.3913L222.896 37.096ZM222.968 43.168L221.63 44.5332L221.637 44.5398L221.644 44.5463L222.968 43.168ZM228.776 44.032L228.223 42.2023L228.211 42.2061L228.776 44.032ZM230.504 42.952L231.92 44.2355L234.816 41.0406H230.504V42.952ZM225.824 42.952H223.912V44.8634H225.824V42.952ZM225.824 40.9754H236.072V37.1526H225.824V40.9754ZM234.16 39.064V49H237.983V39.064H234.16ZM236.072 47.0886H231.848V50.9114H236.072V47.0886ZM233.746 48.7748L233.242 44.5268L229.446 44.9772L229.95 49.2252L233.746 48.7748ZM229.521 44.1764C229.165 45.3033 228.58 46.0262 227.796 46.4951L229.756 49.7769C231.435 48.7738 232.562 47.2407 233.167 45.3276L229.521 44.1764ZM227.796 46.4951C226.923 47.0165 225.776 47.3286 224.264 47.3286V51.1514C226.304 51.1514 228.165 50.7275 229.756 49.7769L227.796 46.4951ZM224.264 47.3286C222.942 47.3286 221.835 47.0373 220.89 46.4991L218.998 49.8209C220.581 50.7227 222.354 51.1514 224.264 51.1514V47.3286ZM220.899 46.5044C219.978 45.973 219.239 45.2104 218.677 44.1614L215.307 45.9666C216.185 47.6056 217.414 48.907 218.989 49.8156L220.899 46.5044ZM218.685 44.1771C218.148 43.1523 217.847 41.8989 217.847 40.36H214.024C214.024 42.4051 214.428 44.2877 215.299 45.9509L218.685 44.1771ZM217.847 40.36C217.847 37.9015 218.567 36.1722 219.836 34.9386L217.172 32.1974C215.017 34.2918 214.024 37.0905 214.024 40.36H217.847ZM219.836 34.9386C221.045 33.7639 223.126 32.9834 226.496 32.9834V29.1606C222.633 29.1606 219.387 30.0441 217.172 32.1974L219.836 34.9386ZM226.496 32.9834C228.354 32.9834 229.905 33.2859 231.191 33.8369L232.697 30.3231C230.847 29.5301 228.766 29.1606 226.496 29.1606V32.9834ZM231.197 33.8396C232.472 34.3802 233.559 35.2152 234.472 36.3794L237.48 34.0206C236.185 32.3688 234.584 31.1237 232.69 30.3204L231.197 33.8396ZM235.106 33.498C234.374 33.8722 232.956 34.6137 230.861 35.7168L232.643 39.0992C234.74 37.9943 236.138 37.2638 236.846 36.902L235.106 33.498ZM230.818 35.7403L230.218 36.0763L232.086 39.4117L232.686 39.0757L230.818 35.7403ZM232.503 36.3924C231.682 35.5709 230.716 34.9558 229.624 34.5567L228.312 38.1473C228.884 38.3562 229.374 38.6691 229.8 39.0956L232.503 36.3924ZM229.654 34.568C228.594 34.1603 227.481 33.9606 226.328 33.9606V37.7834C227.031 37.7834 227.678 37.9037 228.282 38.136L229.654 34.568ZM226.328 33.9606C224.47 33.9606 222.726 34.4594 221.49 35.8007L224.301 38.3913C224.569 38.1006 225.114 37.7834 226.328 37.7834V33.9606ZM221.503 35.7869C220.39 36.9706 219.856 38.4432 219.856 40.072H223.679C223.679 39.3328 223.897 38.8214 224.289 38.4051L221.503 35.7869ZM219.856 40.072C219.856 41.7857 220.41 43.3373 221.63 44.5332L224.306 41.8028C223.926 41.4307 223.679 40.9183 223.679 40.072H219.856ZM221.644 44.5463C222.953 45.804 224.76 46.2554 226.688 46.2554V42.4326C225.288 42.4326 224.615 42.1 224.292 41.7897L221.644 44.5463ZM226.688 46.2554C227.595 46.2554 228.482 46.1239 229.341 45.8579L228.211 42.2061C227.726 42.3561 227.221 42.4326 226.688 42.4326V46.2554ZM229.329 45.8616C230.335 45.5575 231.214 45.0151 231.92 44.2355L229.088 41.6685C228.866 41.9129 228.593 42.0905 228.223 42.2024L229.329 45.8616ZM230.504 41.0406H225.824V44.8634H230.504V41.0406ZM227.735 42.952V39.064H223.912V42.952H227.735ZM241.06 46.864L239.762 48.2665L239.769 48.273L241.06 46.864ZM241.036 33.472L239.738 32.0695L239.731 32.0755L241.036 33.472ZM257.26 33.472L255.955 34.8685L255.962 34.8745L257.26 33.472ZM257.284 46.864L258.583 48.267V48.267L257.284 46.864ZM252.988 43.336L254.232 44.7873L254.241 44.78L254.249 44.7727L252.988 43.336ZM252.988 37L251.728 38.4367L252.988 37ZM245.332 37L246.593 38.4367V38.4367L245.332 37ZM245.332 43.312L246.593 41.8753V41.8753L245.332 43.312ZM249.148 47.3286C245.704 47.3286 243.575 46.5758 242.352 45.455L239.769 48.273C242.002 50.3202 245.265 51.1514 249.148 51.1514V47.3286ZM242.359 45.4615C241.107 44.3018 240.38 42.6194 240.38 40.144H236.557C236.557 43.4286 237.558 46.2262 239.762 48.2665L242.359 45.4615ZM240.38 40.144C240.38 37.7025 241.098 36.0309 242.342 34.8685L239.731 32.0755C237.551 34.1131 236.557 36.8895 236.557 40.144H240.38ZM242.335 34.8745C243.556 33.7436 245.69 32.9834 249.148 32.9834V29.1606C245.247 29.1606 241.972 30.0004 239.738 32.0695L242.335 34.8745ZM249.148 32.9834C252.628 32.9834 254.754 33.7456 255.955 34.8685L258.566 32.0755C256.343 29.9984 253.061 29.1606 249.148 29.1606V32.9834ZM255.962 34.8745C257.219 36.0383 257.941 37.708 257.941 40.144H261.764C261.764 36.884 260.758 34.1057 258.559 32.0695L255.962 34.8745ZM257.941 40.144C257.941 42.6453 257.216 44.3229 255.986 45.461L258.583 48.267C260.776 46.2371 261.764 43.4347 261.764 40.144H257.941ZM255.986 45.461C254.786 46.5715 252.651 47.3286 249.148 47.3286V51.1514C253.07 51.1514 256.359 50.3245 258.583 48.267L255.986 45.461ZM249.148 46.2554C251.081 46.2554 252.927 45.9058 254.232 44.7873L251.744 41.8847C251.481 42.1102 250.768 42.4326 249.148 42.4326V46.2554ZM254.249 44.7727C255.586 43.5991 256.076 41.9161 256.076 40.144H252.253C252.253 41.2519 251.958 41.6969 251.728 41.8993L254.249 44.7727ZM256.076 40.144C256.076 38.388 255.578 36.7292 254.249 35.5633L251.728 38.4367C251.967 38.6468 252.253 39.084 252.253 40.144H256.076ZM254.249 35.5633C252.943 34.417 251.089 34.0566 249.148 34.0566V37.8794C250.76 37.8794 251.466 38.207 251.728 38.4367L254.249 35.5633ZM249.148 34.0566C247.219 34.0566 245.376 34.4191 244.072 35.5633L246.593 38.4367C246.857 38.2049 247.558 37.8794 249.148 37.8794V34.0566ZM244.072 35.5633C242.743 36.7292 242.245 38.388 242.245 40.144H246.068C246.068 39.084 246.354 38.6468 246.593 38.4367L244.072 35.5633ZM242.245 40.144C242.245 41.908 242.739 43.5789 244.072 44.7487L246.593 41.8753C246.358 41.6691 246.068 41.228 246.068 40.144H242.245ZM244.072 44.7487C245.376 45.8929 247.219 46.2554 249.148 46.2554V42.4326C247.558 42.4326 246.857 42.1071 246.593 41.8753L244.072 44.7487ZM280.483 40.912L278.93 39.7986L278.923 39.8072L278.917 39.8159L280.483 40.912ZM277.003 43L276.518 41.1511L273.768 41.8721L275.474 44.1468L277.003 43ZM277.411 43.6L275.74 44.5283L275.795 44.6261L275.86 44.7168L277.411 43.6ZM281.299 49V50.9114H285.031L282.85 47.8832L281.299 49ZM274.771 49L273.087 49.9037L273.628 50.9114H274.771V49ZM271.435 43.432L273.05 42.4093L272.487 41.5206H271.435V43.432ZM267.907 43.432V41.5206H265.996V43.432H267.907ZM267.907 49V50.9114H269.819V49H267.907ZM262.243 49L260.333 48.9212L260.251 50.9114H262.243V49ZM262.243 31.576V29.6646H260.251L260.333 31.6548L262.243 31.576ZM267.907 31.576H269.819V29.6646H267.907V31.576ZM267.907 31.6H265.996V33.5114H267.907V31.6ZM279.595 33.16L278.39 34.6435V34.6435L279.595 33.16ZM267.907 36.208V34.2966H265.996V36.208H267.907ZM267.907 38.944H265.996V40.8554H267.907V38.944ZM274.219 38.824L274.44 40.7226L274.459 40.7204L274.477 40.7179L274.219 38.824ZM275.683 38.392L274.581 36.8304V36.8304L275.683 38.392ZM275.707 36.736L276.854 35.2069V35.2069L275.707 36.736ZM274.267 36.328L274.051 38.2272L274.267 36.328ZM279.604 37.384C279.604 38.45 279.345 39.2182 278.93 39.7986L282.037 42.0254C282.997 40.6858 283.427 39.102 283.427 37.384H279.604ZM278.917 39.8159C278.601 40.268 277.923 40.783 276.518 41.1511L277.488 44.8489C279.38 44.353 281.022 43.476 282.049 42.0081L278.917 39.8159ZM275.474 44.1468C275.558 44.2583 275.621 44.3475 275.669 44.4168C275.692 44.4511 275.709 44.4779 275.722 44.4979C275.728 44.5078 275.733 44.5153 275.736 44.5207C275.739 44.526 275.74 44.5285 275.74 44.5283L279.082 42.6717C278.937 42.4107 278.738 42.1268 278.532 41.8532L275.474 44.1468ZM275.86 44.7168L279.748 50.1168L282.85 47.8832L278.962 42.4832L275.86 44.7168ZM281.299 47.0886H274.771V50.9114H281.299V47.0886ZM276.455 48.0963C275.718 46.7224 274.577 44.8201 273.05 42.4093L269.82 44.4547C271.334 46.8439 272.416 48.6536 273.087 49.9037L276.455 48.0963ZM271.435 41.5206H267.907V45.3434H271.435V41.5206ZM265.996 43.432V49H269.819V43.432H265.996ZM267.907 47.0886H262.243V50.9114H267.907V47.0886ZM264.153 49.0788C264.282 45.9523 264.347 43.0218 264.347 40.288H260.524C260.524 42.9622 260.46 45.8397 260.333 48.9212L264.153 49.0788ZM264.347 40.288C264.347 37.5542 264.282 34.6237 264.153 31.4972L260.333 31.6548C260.46 34.7363 260.524 37.6138 260.524 40.288H264.347ZM262.243 33.4874H267.907V29.6646H262.243V33.4874ZM265.996 31.576V31.6H269.819V31.576H265.996ZM267.907 33.5114H272.827V29.6886H267.907V33.5114ZM272.827 33.5114C275.979 33.5114 277.652 34.0438 278.39 34.6435L280.8 31.6765C278.979 30.1962 276.139 29.6886 272.827 29.6886V33.5114ZM278.39 34.6435C279.185 35.2897 279.604 36.133 279.604 37.384H283.427C283.427 35.083 282.565 33.1102 280.8 31.6765L278.39 34.6435ZM265.996 36.208V38.944H269.819V36.208H265.996ZM267.907 40.8554H271.147V37.0326H267.907V40.8554ZM271.147 40.8554C272.525 40.8554 273.639 40.8158 274.44 40.7226L273.998 36.9254C273.424 36.9922 272.489 37.0326 271.147 37.0326V40.8554ZM274.477 40.7179C275.215 40.6173 276.108 40.4316 276.785 39.9536L274.581 36.8304C274.681 36.7597 274.71 36.7701 274.572 36.8107C274.449 36.8471 274.252 36.8905 273.961 36.9301L274.477 40.7179ZM276.785 39.9536C277.624 39.3616 278.003 38.4648 278.003 37.552H274.18C274.18 37.499 274.19 37.3664 274.27 37.2029C274.353 37.0324 274.472 36.9072 274.581 36.8304L276.785 39.9536ZM278.003 37.552C278.003 36.6678 277.644 35.7996 276.854 35.2069L274.56 38.2651C274.455 38.1863 274.343 38.0625 274.266 37.8979C274.191 37.7393 274.18 37.6096 274.18 37.552H278.003ZM276.854 35.2069C276.151 34.6797 275.206 34.511 274.483 34.4288L274.051 38.2272C274.339 38.2599 274.526 38.2984 274.634 38.329C274.686 38.3437 274.703 38.352 274.695 38.3484C274.688 38.3454 274.636 38.3217 274.56 38.2651L276.854 35.2069ZM274.483 34.4288C273.669 34.3363 272.542 34.2966 271.147 34.2966V38.1194C272.505 38.1194 273.458 38.1597 274.051 38.2272L274.483 34.4288ZM271.147 34.2966H267.907V38.1194H271.147V34.2966ZM297.853 36.352L297.756 38.261L299.764 38.3622V36.352H297.853ZM293.629 36.184L293.662 34.2729L291.717 34.2388V36.184H293.629ZM293.629 44.392H291.717V46.3366L293.661 46.3031L293.629 44.392ZM297.853 44.224H299.764V42.2129L297.755 42.3151L297.853 44.224ZM297.853 49V50.9114H299.764V49H297.853ZM283.909 49H281.997V50.9114H283.909V49ZM283.909 44.224L284.008 42.3152L281.997 42.2103V44.224H283.909ZM288.109 44.392L288.077 46.3031L290.02 46.3355V44.392H288.109ZM288.109 36.184H290.02V34.2405L288.077 34.2729L288.109 36.184ZM283.909 36.352H281.997V38.3657L284.008 38.2608L283.909 36.352ZM283.909 31.576V29.6646H281.997V31.576H283.909ZM297.853 31.576H299.764V29.6646H297.853V31.576ZM292.26 30.52V32.4314H293.412L293.95 31.4138L292.26 30.52ZM289.213 30.52L287.324 30.2275L286.982 32.4314H289.213V30.52ZM289.788 26.8V24.8886H288.15L287.9 26.5075L289.788 26.8ZM294.229 26.8L295.918 27.6938L297.402 24.8886H294.229V26.8ZM297.949 34.443C296.041 34.3468 294.607 34.2895 293.662 34.2729L293.595 38.0951C294.474 38.1105 295.856 38.1652 297.756 38.261L297.949 34.443ZM291.717 36.184V44.392H295.54V36.184H291.717ZM293.661 46.3031C294.623 46.2865 296.057 46.2292 297.95 46.1329L297.755 42.3151C295.872 42.4108 294.49 42.4655 293.596 42.4809L293.661 46.3031ZM295.941 44.224V49H299.764V44.224H295.941ZM297.853 47.0886H283.909V50.9114H297.853V47.0886ZM285.82 49V44.224H281.997V49H285.82ZM283.809 46.1328C285.655 46.2291 287.082 46.2866 288.077 46.3031L288.14 42.4809C287.215 42.4654 285.842 42.4109 284.008 42.3152L283.809 46.1328ZM290.02 44.392V36.184H286.197V44.392H290.02ZM288.077 34.2729C287.082 34.2894 285.655 34.3469 283.809 34.4432L284.008 38.2608C285.842 38.1651 287.215 38.1106 288.14 38.0951L288.077 34.2729ZM285.82 36.352V31.576H281.997V36.352H285.82ZM283.909 33.4874H297.853V29.6646H283.909V33.4874ZM295.941 31.576V36.352H299.764V31.576H295.941ZM292.26 28.6086H289.213V32.4314H292.26V28.6086ZM291.101 30.8125L291.677 27.0925L287.9 26.5075L287.324 30.2275L291.101 30.8125ZM289.788 28.7114H294.229V24.8886H289.788V28.7114ZM292.539 25.9062L290.571 29.6262L293.95 31.4138L295.918 27.6938L292.539 25.9062ZM315.398 49L313.584 49.6044L314.02 50.9114H315.398V49ZM314.174 45.568L315.965 44.9014L315.502 43.6566H314.174V45.568ZM306.518 45.568V43.6566H305.161L304.713 44.9371L306.518 45.568ZM305.318 49V50.9114H306.674L307.122 49.6309L305.318 49ZM299.294 49L297.51 48.3122L296.508 50.9114H299.294V49ZM306.014 31.576V29.6646H304.702L304.23 30.8882L306.014 31.576ZM314.846 31.576L316.627 30.8839L316.154 29.6646H314.846V31.576ZM321.614 49V50.9114H324.407L323.395 48.3079L321.614 49ZM312.806 41.824V43.7354H315.53L314.603 41.1735L312.806 41.824ZM310.934 36.784L309.14 37.4461L309.144 37.4553L309.147 37.4645L310.934 36.784ZM310.358 35.224L312.151 34.5619L310.394 29.8045L308.574 34.5378L310.358 35.224ZM307.886 41.824L306.093 41.1614L305.141 43.7354H307.886V41.824ZM317.211 48.3956C316.897 47.4549 316.481 46.2885 315.965 44.9014L312.382 46.2346C312.89 47.5995 313.29 48.7211 313.584 49.6044L317.211 48.3956ZM314.174 43.6566H306.518V47.4794H314.174V43.6566ZM304.713 44.9371L303.513 48.3691L307.122 49.6309L308.322 46.1989L304.713 44.9371ZM305.318 47.0886H299.294V50.9114H305.318V47.0886ZM301.077 49.6878L307.797 32.2638L304.23 30.8882L297.51 48.3122L301.077 49.6878ZM306.014 33.4874H314.846V29.6646H306.014V33.4874ZM313.064 32.2681L319.832 49.6921L323.395 48.3079L316.627 30.8839L313.064 32.2681ZM321.614 47.0886H315.398V50.9114H321.614V47.0886ZM314.603 41.1735C313.991 39.4834 313.364 37.7935 312.72 36.1035L309.147 37.4645C309.784 39.1345 310.404 40.8046 311.008 42.4745L314.603 41.1735ZM312.727 36.1219L312.151 34.5619L308.564 35.8861L309.14 37.4461L312.727 36.1219ZM308.574 34.5378C308.009 36.0061 307.181 38.2157 306.093 41.1614L309.678 42.4866C310.766 39.5443 311.586 37.3539 312.142 35.9102L308.574 34.5378ZM307.886 43.7354H312.806V39.9126H307.886V43.7354Z" fill="white" mask="url(#path-2-outside-1_115_24769)"/>
</svg>
