<svg width="57" height="7" viewBox="0 0 57 7" fill="none" xmlns="http://www.w3.org/2000/svg">
<path d="M4.54169 2.46144C4.33552 2.48434 4.08025 2.58356 3.89372 2.53268C3.85444 2.53522 3.9788 2.62681 3.92317 2.65353C3.8119 2.61791 3.69082 2.59501 3.537 2.60646C3.45519 2.46526 3.80536 2.52632 3.75299 2.40038C3.87735 2.40293 3.93953 2.40547 3.95917 2.3355C4.22425 2.36476 4.23734 2.27317 4.44678 2.30879C4.43697 2.39402 4.51224 2.36858 4.54169 2.46144ZM4.57769 2.42455C4.57442 2.4042 4.55805 2.39402 4.53514 2.39148C4.54823 2.30497 4.72823 2.41692 4.57769 2.42455ZM48.6333 6.20266C48.7381 6.21157 48.8853 6.15814 48.9933 6.16705C49.2486 6.1874 49.4417 6.27136 49.7166 6.25991C49.9587 6.24973 50.2271 6.17595 50.4725 6.17722C50.6558 6.17722 50.7278 6.15687 50.8587 6.14669C51.2383 6.11489 51.5034 6.17213 51.7554 6.01058C52.0663 5.91644 51.8339 6.14415 52.1121 6.05637C52.1547 6.04238 52.2201 6.05637 52.2397 6.05256C52.9433 5.83376 53.2837 5.68111 54.0495 5.55135C54.1673 5.45722 54.3015 5.31729 54.4913 5.20407C54.5764 5.15319 54.7105 5.12775 54.7858 5.07559C55.0542 4.87842 55.1131 4.59983 55.4698 4.46626C55.5189 4.41538 55.4829 4.39629 55.4927 4.3594C55.7774 3.94089 55.9083 3.57834 56.1832 3.26032C56.1308 3.05169 56.3174 2.83289 56.2978 2.63826C56.2847 2.51741 56.1832 2.39402 56.1407 2.27572C56.0949 2.1396 56.0196 2.03147 55.9901 1.89536C56.0719 1.76815 55.9214 1.72872 55.9574 1.61932C55.8069 1.52264 55.4502 1.8343 55.2931 1.73889C55.2996 1.69437 55.2669 1.66511 55.2931 1.61168C54.9953 1.35599 54.812 1.36108 54.2687 1.22497C54.2197 1.21352 54.1149 1.18808 54.0495 1.18299C53.6077 1.14864 53.2935 1.20716 53.1593 1.01762C53.0873 0.997264 53.0677 1.03924 52.9924 1.01762C52.9892 0.932387 52.8386 0.759383 52.6325 0.746662C52.5605 0.742846 52.3805 0.840797 52.2168 0.848429C51.9747 0.858606 51.4903 0.534223 51.2678 0.539311C51.1663 0.541855 51.0158 0.633446 50.9045 0.647439C50.6165 0.685602 50.1158 0.60546 49.9129 0.554576C49.7558 0.515141 49.7297 0.428639 49.5922 0.436272C49.4646 0.442632 48.3781 0.484611 48.329 0.618181C47.8643 0.88532 47.5894 0.464258 47.0134 0.558392C46.6763 0.429911 46.732 0.438816 46.3753 0.396837C46.3033 0.387932 46.2313 0.347225 46.156 0.343409C46.0284 0.337048 45.0728 0.27726 44.9026 0.288709C44.6146 0.309062 44.3757 0.287437 44.1335 0.320511C43.8455 0.129697 43.5183 0.314151 43.227 0.291253C43.119 0.282348 43.0274 0.22256 42.9063 0.2162C42.8016 0.211111 42.6838 0.255635 42.5725 0.24673C42.4612 0.237825 42.3598 0.176765 42.2485 0.171677C42.1667 0.16786 42.0914 0.19839 42.026 0.19203C41.9409 0.183125 41.8983 0.138602 41.8002 0.142418C41.6987 0.146235 41.5809 0.207295 41.4795 0.209839C41.1096 0.220016 40.7398 0.132242 40.3668 0.245458C39.781 0.110616 39.2017 0.261995 38.5014 0.119521C38.3116 0.147507 38.1709 0.16786 37.9909 0.127153C37.945 0.138602 37.9352 0.180581 37.8698 0.174221C37.5033 0.109344 37.0745 0.241642 36.6982 0.166588C36.6818 0.186942 36.6589 0.204751 36.6327 0.2162C36.1124 0.115704 35.4317 0.0851743 34.9932 0.175493C34.679 0.0800859 34.283 0.170404 33.8772 0.164044C33.6874 0.160228 33.5074 0.109344 33.3274 0.124609C32.974 0.155139 32.5256 0.100439 32.1853 0.118249C32.0838 0.123337 31.822 0.183125 31.7239 0.189486C31.5471 0.200935 30.4377 -0.0229535 30.2479 0.0012162C29.5116 0.0915347 28.6803 0.0177534 28.0422 0.0164813C27.8426 0.0164813 27.6756 0.0711813 27.4531 0.0915347C27.0899 0.124609 26.707 0.0304743 26.3404 0.0546441C26.2488 0.0610045 26.1604 0.095351 26.0754 0.102984C25.8561 0.122065 25.6466 0.0889905 25.4143 0.0940789C24.8449 0.104256 24.282 0.204751 23.7453 0.128425C23.0711 0.249274 22.0795 0.225104 21.2908 0.256907C21.1239 0.354858 20.9472 0.275988 20.7639 0.291253C20.2043 0.339593 19.5007 0.462986 18.8986 0.404469C16.4539 0.633446 13.8359 0.699595 11.4665 1.00871C11.2538 0.94638 10.9723 1.00744 10.8218 1.06468C10.7727 1.02143 10.6614 1.03034 10.5698 1.02143C10.3047 1.15246 9.89238 1.07995 9.5193 1.12956C9.46367 1.24659 9.20186 1.17536 9.09059 1.26822C9.00551 1.21098 9.15277 1.21098 9.03496 1.18299C8.86479 1.39925 7.99427 1.35472 7.64411 1.43359C7.67029 1.43359 7.68992 1.46158 7.6572 1.46794C7.54593 1.42341 8.15463 1.65366 8.43608 1.58624C9.01205 1.44758 7.18594 1.43486 6.63942 1.54808C6.55433 1.52391 6.32198 1.4514 6.28925 1.53027C6.40052 1.53536 6.52815 1.52009 6.55761 1.60532C6.37107 1.58879 6.15835 1.64221 6.07326 1.716C5.86382 1.73762 5.73291 1.70073 5.56928 1.77706C5.52019 1.7796 5.65437 1.86101 5.55292 1.86483C5.23221 1.84193 5.11767 1.92589 4.82968 1.90299C4.79041 1.98695 4.48605 2.03402 4.37151 1.9984C4.30279 2.03911 4.49915 2.05692 4.43369 2.08236C4.20461 2.12434 3.99517 2.17522 3.74972 2.13833C3.71372 2.18031 3.70391 2.23247 3.61882 2.25155C3.55991 2.26172 3.59591 2.17268 3.51737 2.20448C3.45519 2.25536 3.62536 2.27826 3.63191 2.33805C3.52719 2.37494 3.56973 2.41437 3.53373 2.46653C3.34392 2.43218 3.2752 2.53777 3.14102 2.5772C3.0003 2.61918 2.81049 2.60392 2.67304 2.64081C2.55523 2.67261 2.53232 2.73621 2.38505 2.74639C2.26724 2.7553 2.13306 2.70187 2.00543 2.71713C1.94325 2.73749 2.08724 2.77692 1.98907 2.78837C1.54072 2.84689 1.0891 2.90667 0.814206 3.04279C1.25928 2.8647 1.71744 2.97409 2.11015 2.81636C2.22142 2.88759 2.29015 2.75148 2.4145 2.84943C2.42105 2.80236 2.29996 2.78074 2.40469 2.77946C2.44068 2.78201 2.46687 2.80109 2.51595 2.78964C2.49959 2.88632 2.59777 2.87869 2.66977 2.93848C3.05593 2.90159 3.33738 2.83544 3.67445 2.80745C3.72681 2.78074 3.60573 2.75911 3.66791 2.73749C3.78899 2.71204 3.89372 2.7184 4.03116 2.68151C4.10971 2.74512 4.23079 2.77183 4.2177 2.86342C3.75954 2.89141 3.21302 3.07332 2.68613 3.13056C2.52577 3.14837 2.3196 3.09367 2.2836 3.20816C2.50614 3.15473 2.76467 3.25777 2.98066 3.25268C3.25883 3.24505 3.49119 3.11402 3.76936 3.11784C3.8479 3.11784 3.89372 3.1471 3.96244 3.14201C4.0148 3.13819 4.08025 3.07968 4.13916 3.07968C4.20461 3.07841 4.22752 3.11402 4.27988 3.10639C4.38788 3.08986 4.44678 3.02752 4.57442 3.01989C4.78713 3.00717 5.02276 3.05678 5.2453 3.01862C5.30093 3.0466 5.32057 3.12293 5.27148 3.13947C4.99658 3.15473 4.95076 3.16236 4.67587 3.18908C4.71186 3.19417 4.73804 3.20816 4.75113 3.23742C4.66278 3.23742 4.6235 3.21961 4.58423 3.26413C4.79041 3.24505 4.83622 3.37862 4.79695 3.44604C4.27334 3.46131 3.67772 3.57071 3.23265 3.55544C3.20647 3.59615 3.2032 3.64576 3.13447 3.66738C2.68613 3.74753 2.13633 3.7488 1.65526 3.83276C2.28687 3.88364 2.85303 3.77424 3.501 3.68011C3.53373 3.6941 3.54028 3.74244 3.59918 3.72717C3.85772 3.65594 4.19807 3.64322 4.41079 3.60887C4.54496 3.67502 4.67914 3.74371 4.81004 3.81495C5.48092 3.70046 6.13544 3.96505 6.80305 3.92053C6.82269 3.97269 6.88159 3.98414 6.92086 4.01975C6.88487 4.06555 6.87505 4.12407 6.82923 4.16477C6.72124 4.17495 6.62306 4.21057 6.51179 4.18131C6.02417 4.3734 5.18312 4.32251 4.53514 4.46371C4.4926 4.55531 4.59405 4.61509 4.68896 4.68379C5.04567 4.70796 5.28784 4.56548 5.69037 4.64562C5.91291 4.83898 5.85073 4.98909 5.58892 5.01962C5.15366 5.07177 4.37479 5.11121 4.07371 5.10739C2.8334 5.33128 1.51781 5.39489 0.248047 5.61241C1.00729 5.58061 1.62581 5.4127 2.32942 5.42923C2.30651 5.39234 2.3196 5.37326 2.37523 5.37326C3.03957 5.33764 3.75954 5.27404 4.29952 5.16337C4.60387 5.2664 4.99331 5.08704 5.30093 5.19262C5.33693 5.39107 5.18312 5.49538 4.96058 5.5628C5.2093 5.531 5.47765 5.5768 5.69692 5.57298C5.87691 5.56916 6.1518 5.48902 6.2598 5.52464C6.28598 5.53354 6.26307 5.57552 6.30562 5.57425C6.23362 5.5768 6.4267 5.5539 6.43979 5.55008C6.52488 5.52082 6.4987 5.5081 6.61324 5.50556C6.76051 5.50301 6.76051 5.50556 6.87178 5.54499C7.38557 5.5399 7.84374 5.44704 8.36081 5.45467C8.41317 5.45467 8.51789 5.44577 8.52771 5.44704C8.58007 5.45595 8.55389 5.49284 8.61934 5.49538C8.65534 5.49665 8.61934 5.45722 8.67825 5.45849C8.87788 5.46231 9.11023 5.46485 9.30331 5.44831C9.78766 5.40761 10.3833 5.42033 10.776 5.3898C10.8709 5.39743 10.776 5.46231 10.8938 5.45595C11.5941 5.45976 12.3305 5.45467 13.0668 5.43687C13.1224 5.44068 13.1028 5.51828 13.1813 5.50301C13.2861 5.51065 13.2337 5.42796 13.3286 5.42923C13.3941 5.44959 13.453 5.47248 13.4955 5.51192C14.3529 5.53609 15.194 5.42796 16.0547 5.36563C16.8565 5.30711 17.6681 5.28167 18.4338 5.24478C19.036 5.21552 19.6054 5.12647 20.1552 5.16337C20.8752 5.08831 21.5068 5.07941 22.1875 5.05905C22.6784 5.04506 23.2249 5.07814 23.634 5.03361C23.706 5.02598 23.7878 4.984 23.8696 4.98273C23.9973 4.98146 24.1249 5.0387 24.2525 5.0387C24.5896 5.0387 24.9332 4.96237 25.2736 4.96492C25.6532 4.96619 26.0197 4.97764 26.3928 4.98273C26.6022 4.98527 26.8051 4.9293 27.0146 4.92548C27.152 4.92294 27.296 4.97001 27.44 4.96874C27.8426 4.96619 28.2516 4.89241 28.6345 4.91022C29.1418 4.93439 29.6588 5.0158 30.1792 4.93693C30.7453 4.99036 31.4359 5.00308 31.9857 4.98273C32.4111 5.12902 32.8856 4.99545 33.3831 5.03997C33.4354 5.04506 33.4649 5.07177 33.5172 5.08068C34.2568 5.20153 35.1241 5.03997 35.7197 5.15064C35.9684 5.06669 36.1451 5.17354 36.3513 5.20153C36.5771 5.23206 36.8029 5.1799 37.0254 5.18626C37.0974 5.18881 37.1564 5.2257 37.2284 5.23206C37.4476 5.25368 37.68 5.20407 37.932 5.2028C38.305 5.20026 38.6552 5.36563 39.1035 5.29185C39.4112 5.37072 39.8693 5.46612 40.2653 5.40379C40.8511 5.56407 41.162 5.3351 41.7903 5.42669C42.0031 5.45849 42.4645 5.5768 42.7165 5.5081C42.9096 5.61369 43.8324 5.70146 44.1041 5.73072C44.3724 5.7587 44.6342 5.82994 44.9059 5.86938C45.2953 5.92535 46.3654 5.60733 46.5847 5.81722C46.5389 6.21666 47.0789 5.6633 47.3636 5.76506C47.4977 5.85666 47.4192 5.96351 47.4225 6.1098C47.5436 6.17977 48.0443 5.96478 48.2112 5.9457C48.365 5.99786 48.401 6.18231 48.6268 6.20266" fill="#FF0000"/>
</svg>
